<svg xmlns="http://www.w3.org/2000/svg" xmlns:xlink="http://www.w3.org/1999/xlink" viewBox="0 0 422 473"><defs><style>.cls-1{fill:none;}.cls-2{isolation:isolate;}.cls-3{opacity:0.1;}.cls-4{clip-path:url(#clip-path);}.cls-5{fill:#f5f5f5;}.cls-6{opacity:0.05;}.cls-7{clip-path:url(#clip-path-2);}.cls-8{clip-path:url(#clip-path-3);}.cls-30,.cls-50,.cls-9{opacity:0.56;mix-blend-mode:overlay;}.cls-9{fill:url(#linear-gradient);}.cls-10{fill:url(#New_Gradient_Swatch_2);}.cls-11{fill:url(#linear-gradient-2);}.cls-12{fill:url(#linear-gradient-3);}.cls-13{fill:#b4793c;}.cls-14,.cls-35,.cls-36{fill:#f0a150;}.cls-15{fill:url(#linear-gradient-4);}.cls-16{fill:url(#linear-gradient-5);}.cls-17{fill:url(#linear-gradient-6);}.cls-18{fill:url(#linear-gradient-7);}.cls-19{fill:url(#linear-gradient-8);}.cls-20{fill:url(#linear-gradient-9);}.cls-21{fill:#16284c;}.cls-22{clip-path:url(#clip-path-4);}.cls-23{fill:url(#New_Gradient_Swatch_2-2);}.cls-24{fill:url(#linear-gradient-10);}.cls-25{fill:url(#linear-gradient-11);}.cls-26{fill:url(#linear-gradient-12);}.cls-27{fill:url(#linear-gradient-13);}.cls-28{fill:url(#linear-gradient-14);}.cls-29{fill:url(#linear-gradient-15);}.cls-30{fill:url(#linear-gradient-16);}.cls-31{fill:#a5ffff;}.cls-32,.cls-33,.cls-34,.cls-40,.cls-41,.cls-42{opacity:0.5;}.cls-32{fill:url(#New_Gradient_Swatch_2-3);}.cls-33{fill:url(#New_Gradient_Swatch_2-4);}.cls-34{fill:url(#New_Gradient_Swatch_2-5);}.cls-35{opacity:0.88;}.cls-36{opacity:0.75;}.cls-37{fill:#103450;}.cls-38{fill:#ffc6a0;}.cls-39{fill:#fff;}.cls-40{fill:url(#New_Gradient_Swatch_2-6);}.cls-41{fill:url(#New_Gradient_Swatch_2-7);}.cls-42{fill:url(#New_Gradient_Swatch_2-8);}.cls-43{fill:url(#New_Gradient_Swatch_2-9);}.cls-44{fill:url(#linear-gradient-17);}.cls-45{fill:url(#linear-gradient-18);}.cls-46{fill:url(#linear-gradient-19);}.cls-47{fill:url(#New_Gradient_Swatch_2-10);}.cls-48{fill:url(#linear-gradient-20);}.cls-49{fill:url(#linear-gradient-21);}.cls-50{fill:url(#linear-gradient-22);}.cls-51{fill:url(#linear-gradient-23);}.cls-52{fill:url(#linear-gradient-24);}</style><clipPath id="clip-path"><rect id="Rectangle_44" data-name="Rectangle 44" class="cls-1" x="486.84" y="-688.66" width="1200" height="675"/></clipPath><clipPath id="clip-path-2"><rect class="cls-1" x="490.92" y="40.55" width="1200" height="1002.77"/></clipPath><clipPath id="clip-path-3"><rect id="Rectangle_14" data-name="Rectangle 14" class="cls-1" x="-3.36" y="-512.73" width="422" height="473" rx="38"/></clipPath><linearGradient id="linear-gradient" x1="-7198.44" y1="-344.72" x2="-7201.65" y2="114.36" gradientTransform="matrix(-1, 0, 0, 1, -6981.85, 0)" gradientUnits="userSpaceOnUse"><stop offset="0.04" stop-color="#93fffd" stop-opacity="0"/><stop offset="0.14" stop-color="#95fffd" stop-opacity="0.07"/><stop offset="0.33" stop-color="#9bfefe" stop-opacity="0.25"/><stop offset="0.61" stop-color="#a4fdfe" stop-opacity="0.54"/><stop offset="0.95" stop-color="#b0fbff" stop-opacity="0.94"/><stop offset="1" stop-color="#b2fbff"/></linearGradient><linearGradient id="New_Gradient_Swatch_2" x1="-7163.5" y1="-216.17" x2="-7236.06" y2="-10.99" gradientTransform="matrix(-1, 0, 0, 1, -6981.85, 0)" gradientUnits="userSpaceOnUse"><stop offset="0" stop-color="#89daf4"/><stop offset="1" stop-color="#008dd7"/></linearGradient><linearGradient id="linear-gradient-2" x1="-7199.34" y1="118.21" x2="-6971.58" y2="118.21" gradientTransform="matrix(-1, 0, 0, 1, -6981.85, 0)" gradientUnits="userSpaceOnUse"><stop offset="0" stop-color="#144188"/><stop offset="1" stop-color="#1a7cde"/></linearGradient><linearGradient id="linear-gradient-3" x1="-7428.1" y1="118.21" x2="-7199.34" y2="118.21" gradientTransform="matrix(-1, 0, 0, 1, -6981.85, 0)" gradientUnits="userSpaceOnUse"><stop offset="0" stop-color="#144188"/><stop offset="1" stop-color="#102465"/></linearGradient><linearGradient id="linear-gradient-4" x1="-7257.94" y1="41.77" x2="-7292.33" y2="91.78" xlink:href="#linear-gradient-2"/><linearGradient id="linear-gradient-5" x1="-7275.98" y1="29.9" x2="-7354.14" y2="43.18" gradientTransform="matrix(-1, 0, 0, 1, -6981.85, 0)" gradientUnits="userSpaceOnUse"><stop offset="0.15" stop-color="#144188"/><stop offset="1" stop-color="#1a7cde"/></linearGradient><linearGradient id="linear-gradient-6" x1="-7257.94" y1="112.19" x2="-7292.33" y2="162.21" xlink:href="#linear-gradient-2"/><linearGradient id="linear-gradient-7" x1="-7275.98" y1="100.32" x2="-7354.14" y2="113.6" xlink:href="#linear-gradient-5"/><linearGradient id="linear-gradient-8" x1="-7257.94" y1="182.61" x2="-7292.33" y2="232.63" xlink:href="#linear-gradient-2"/><linearGradient id="linear-gradient-9" x1="-7275.98" y1="170.74" x2="-7354.14" y2="184.03" xlink:href="#linear-gradient-5"/><clipPath id="clip-path-4"><rect id="Rectangle_24" data-name="Rectangle 24" class="cls-1" width="422" height="473" rx="38"/></clipPath><linearGradient id="New_Gradient_Swatch_2-2" x1="235.08" y1="267.25" x2="192.96" y2="386.35" gradientTransform="matrix(1, 0, 0, 1, 0, 0)" xlink:href="#New_Gradient_Swatch_2"/><linearGradient id="linear-gradient-10" x1="214.27" y1="462.99" x2="346.48" y2="462.99" gradientTransform="matrix(1, 0, 0, 1, 0, 0)" xlink:href="#linear-gradient-2"/><linearGradient id="linear-gradient-11" x1="81.49" y1="462.99" x2="214.27" y2="462.99" gradientTransform="matrix(1, 0, 0, 1, 0, 0)" xlink:href="#linear-gradient-3"/><linearGradient id="linear-gradient-12" x1="125.92" y1="397.49" x2="108.4" y2="397.14" gradientTransform="matrix(1, 0, 0, 1, 0, 0)" xlink:href="#linear-gradient-2"/><linearGradient id="linear-gradient-13" x1="133.28" y1="404.08" x2="116.21" y2="403.74" gradientTransform="matrix(1, 0, 0, 1, 0, 0)" xlink:href="#linear-gradient-2"/><linearGradient id="linear-gradient-14" x1="155.12" y1="414.16" x2="137.6" y2="413.81" gradientTransform="matrix(1, 0, 0, 1, 0, 0)" xlink:href="#linear-gradient-2"/><linearGradient id="linear-gradient-15" x1="162.48" y1="420.75" x2="145.41" y2="420.41" gradientTransform="matrix(1, 0, 0, 1, 0, 0)" xlink:href="#linear-gradient-2"/><linearGradient id="linear-gradient-16" x1="257.33" y1="-70.43" x2="121.18" y2="314.54" gradientUnits="userSpaceOnUse"><stop offset="0.5" stop-color="#93fffd" stop-opacity="0"/><stop offset="0.55" stop-color="#95fffd" stop-opacity="0.07"/><stop offset="0.65" stop-color="#9bfefe" stop-opacity="0.25"/><stop offset="0.8" stop-color="#a4fdfe" stop-opacity="0.54"/><stop offset="0.97" stop-color="#b0fbff" stop-opacity="0.94"/><stop offset="1" stop-color="#b2fbff"/></linearGradient><linearGradient id="New_Gradient_Swatch_2-3" x1="312.38" y1="152.18" x2="358.01" y2="152.18" gradientTransform="matrix(1, 0, 0, 1, 0, 0)" xlink:href="#New_Gradient_Swatch_2"/><linearGradient id="New_Gradient_Swatch_2-4" x1="166.51" y1="105.85" x2="285.53" y2="105.85" gradientTransform="matrix(1, 0, 0, 1, 0, 0)" xlink:href="#New_Gradient_Swatch_2"/><linearGradient id="New_Gradient_Swatch_2-5" x1="75.18" y1="142.84" x2="136.79" y2="142.84" gradientTransform="matrix(1, 0, 0, 1, 0, 0)" xlink:href="#New_Gradient_Swatch_2"/><linearGradient id="New_Gradient_Swatch_2-6" x1="74.83" y1="220.13" x2="134.41" y2="220.13" gradientTransform="matrix(1, 0, 0, 1, 0, 0)" xlink:href="#New_Gradient_Swatch_2"/><linearGradient id="New_Gradient_Swatch_2-7" x1="163.85" y1="258.77" x2="283.01" y2="258.77" gradientTransform="matrix(1, 0, 0, 1, 0, 0)" xlink:href="#New_Gradient_Swatch_2"/><linearGradient id="New_Gradient_Swatch_2-8" x1="310.24" y1="213.3" x2="357.99" y2="213.3" gradientTransform="matrix(1, 0, 0, 1, 0, 0)" xlink:href="#New_Gradient_Swatch_2"/><linearGradient id="New_Gradient_Swatch_2-9" x1="189.56" y1="444.29" x2="185.39" y2="456.09" gradientTransform="matrix(1, 0, 0, 1, 0, 0)" xlink:href="#New_Gradient_Swatch_2"/><linearGradient id="linear-gradient-17" x1="187.5" y1="582.36" x2="200.6" y2="582.36" gradientTransform="matrix(1, 0, 0, 1, 0, 0)" xlink:href="#linear-gradient-2"/><linearGradient id="linear-gradient-18" x1="174.35" y1="582.36" x2="187.5" y2="582.36" gradientTransform="matrix(1, 0, 0, 1, 0, 0)" xlink:href="#linear-gradient-3"/><linearGradient id="linear-gradient-19" x1="188.03" y1="490.75" x2="187.08" y2="640.74" gradientUnits="userSpaceOnUse"><stop offset="0" stop-color="#0276ce" stop-opacity="0"/><stop offset="0.06" stop-color="#0276ce" stop-opacity="0.16"/><stop offset="0.15" stop-color="#0276ce" stop-opacity="0.38"/><stop offset="0.25" stop-color="#0276ce" stop-opacity="0.57"/><stop offset="0.35" stop-color="#0276ce" stop-opacity="0.73"/><stop offset="0.45" stop-color="#0276ce" stop-opacity="0.85"/><stop offset="0.56" stop-color="#0276ce" stop-opacity="0.93"/><stop offset="0.68" stop-color="#0276ce" stop-opacity="0.98"/><stop offset="0.81" stop-color="#0276ce"/></linearGradient><linearGradient id="New_Gradient_Swatch_2-10" x1="310.31" y1="401.88" x2="295.11" y2="444.86" gradientTransform="matrix(1, 0, 0, 1, 0, 0)" xlink:href="#New_Gradient_Swatch_2"/><linearGradient id="linear-gradient-20" x1="302.8" y1="563.18" x2="350.52" y2="563.18" gradientTransform="matrix(1, 0, 0, 1, 0, 0)" xlink:href="#linear-gradient-2"/><linearGradient id="linear-gradient-21" x1="254.88" y1="563.18" x2="302.8" y2="563.18" gradientTransform="matrix(1, 0, 0, 1, 0, 0)" xlink:href="#linear-gradient-3"/><linearGradient id="linear-gradient-22" x1="315.54" y1="306.18" x2="275.21" y2="420.21" gradientTransform="matrix(1, 0, 0, 1, 0, 0)" xlink:href="#linear-gradient"/><linearGradient id="linear-gradient-23" x1="284.34" y1="538.62" x2="267.99" y2="538.3" gradientTransform="matrix(1, 0, 0, 1, 0, 0)" xlink:href="#linear-gradient-2"/><linearGradient id="linear-gradient-24" x1="301.73" y1="682.19" x2="302.95" y2="514.74" gradientUnits="userSpaceOnUse"><stop offset="0" stop-color="#0044ae"/><stop offset="0.18" stop-color="#0044ae" stop-opacity="0.76"/><stop offset="0.46" stop-color="#0044ae" stop-opacity="0.44"/><stop offset="0.7" stop-color="#0044ae" stop-opacity="0.2"/><stop offset="0.89" stop-color="#0044ae" stop-opacity="0.05"/><stop offset="1" stop-color="#0044ae" stop-opacity="0"/></linearGradient></defs><g class="cls-2"><g id="Banner"><g class="cls-3"><g class="cls-4"><g id="Group_2" data-name="Group 2"><g id="Group_1" data-name="Group 1"><path id="Path_5" data-name="Path 5" class="cls-5" d="M187-267.17a551.9,551.9,0,0,0,335.23,507L592.75,22.67C432.7-57.59,368-252.39,448.26-412.44S723.32-637.19,883.37-556.93s224.75,275,144.5,435.11A324.23,324.23,0,0,1,883.37,22.67l70.57,217.19c280-119.23,410.38-442.9,291.14-722.93S802.18-893.45,522.15-774.22A551.1,551.1,0,0,0,187-267.16Z"/><path id="Path_12" data-name="Path 12" class="cls-5" d="M91.49-218.55H-460.37A1202.26,1202.26,0,0,0-417.25,57.07L108.08-113.61A647.4,647.4,0,0,1,91.49-218.55Z"/><path id="Path_13" data-name="Path 13" class="cls-5" d="M405.06,289.22l-324.78,447a1185.67,1185.67,0,0,0,241,121.93L492,332.82A645.88,645.88,0,0,1,405.06,289.22Z"/><path id="Path_15" data-name="Path 15" class="cls-5" d="M138.07-21.08l-525.35,170.7A1186.45,1186.45,0,0,0-260.43,398.18L186.38,73.57A646,646,0,0,1,138.07-21.08Z"/><path id="Path_16" data-name="Path 16" class="cls-5" d="M243.61,152.18-203,476.68A1218.52,1218.52,0,0,0,1.26,679.56L325.63,233.11A651.19,651.19,0,0,1,243.61,152.18Z"/><path id="Path_21" data-name="Path 21" class="cls-5" d="M861.46,269.85,790.89,52.68l-30.55-94-22.25-68.43L715.87-41.41,685.28,52.74,614.73,269.88l-30.22,93L413.82,888.2a1213,1213,0,0,0,648.53,0L891.66,362.88Z"/></g></g></g></g><g id="Group_769" data-name="Group 769" class="cls-6"><g class="cls-7"><g id="Group_768" data-name="Group 768"><g id="Group_2-2" data-name="Group 2"><g id="Group_1-2" data-name="Group 1"><path id="Path_5-2" data-name="Path 5" d="M413.35,462.25a329.28,329.28,0,0,0,200,302.5l42.1-129.58c-95.49-47.88-134.09-164.1-86.21-259.6s164.11-134.08,259.6-86.2S962.94,453.47,915.06,549a193.47,193.47,0,0,1-86.21,86.2L871,764.76c167.07-71.14,244.84-264.25,173.7-431.32S780.41,88.6,613.33,159.74A328.79,328.79,0,0,0,413.35,462.25Z"/><path id="Path_7" data-name="Path 7" d="M595.34,104.29,493.48-209.15a707.29,707.29,0,0,0-148.29,75.68L538.86,133.1A385.27,385.27,0,0,1,595.34,104.29Z"/><path id="Path_14" data-name="Path 14" d="M366.27,370.62,52.85,268.79A716.83,716.83,0,0,0,27.12,433.23H356.39A386.51,386.51,0,0,1,366.27,370.62Z"/><path id="Path_19" data-name="Path 19" d="M413,259,146.43,65.3A707.13,707.13,0,0,0,70.75,213.6L384.18,315.44A385.72,385.72,0,0,1,413,259Z"/><path id="Path_20" data-name="Path 20" d="M492,167.24,298.36-99.23A723.42,723.42,0,0,0,180.67,18.45l266.47,193.6A390.26,390.26,0,0,1,492,167.24Z"/></g></g></g></g></g><g class="cls-8"><polygon class="cls-9" points="446.24 -395.38 446.24 105.34 217.49 237.55 -10.28 105.33 -10.28 -395.38 446.24 -395.38"/><g class="cls-2"><polygon class="cls-10" points="-10.28 -113.42 217.49 18.8 446.24 -113.42 217.49 -245.63 -10.28 -113.42"/><polygon class="cls-11" points="-10.28 -113.42 -10.28 217.62 217.49 349.84 217.49 18.8 -10.28 -113.42"/><polygon class="cls-12" points="217.49 18.8 217.49 349.84 446.24 217.62 446.24 -113.42 217.49 18.8"/></g><polygon class="cls-13" points="217.49 43.83 -10.28 -88.39 -10.28 -90.65 217.49 41.57 217.49 43.83"/><polygon class="cls-14" points="446.24 -88.39 217.49 43.83 217.49 41.57 446.24 -90.65 446.24 -88.39"/><polygon class="cls-15" points="245.71 112.14 245.71 64.86 335.18 13.15 335.18 60.43 245.71 112.14"/><polygon class="cls-16" points="334.96 13.28 335.18 13.4 335.18 60.43 294.27 36.79 334.96 13.28"/><polygon class="cls-17" points="245.71 182.56 245.71 135.28 335.18 83.57 335.18 130.86 245.71 182.56"/><polygon class="cls-18" points="334.96 83.7 335.18 83.83 335.18 130.86 294.27 107.21 334.96 83.7"/><polygon class="cls-19" points="245.71 252.99 245.71 205.7 335.18 153.99 335.18 201.28 245.71 252.99"/><polygon class="cls-20" points="334.96 154.12 335.18 154.25 335.18 201.28 294.27 177.64 334.96 154.12"/></g><rect id="Rectangle_24-2" data-name="Rectangle 24" class="cls-21" width="422" height="473" rx="38"/><g class="cls-22"><g class="cls-2"><polygon class="cls-23" points="346.48 326.89 214.27 403.64 81.49 326.89 214.27 250.15 346.48 326.89"/><polygon class="cls-24" points="346.48 326.89 346.48 522.34 214.27 599.09 214.27 403.64 346.48 326.89"/><polygon class="cls-25" points="214.27 403.64 214.27 599.09 81.49 522.34 81.49 326.89 214.27 403.64"/></g><polygon class="cls-13" points="214.27 418.83 346.48 342.09 346.48 340.11 214.27 416.85 214.27 418.83"/><polygon class="cls-14" points="81.49 342.09 214.27 418.83 214.27 416.85 81.49 340.11 81.49 342.09"/><polygon class="cls-26" points="127.44 390.73 110.43 380.89 110.43 403.97 127.44 413.8 127.44 390.73"/><polygon class="cls-27" points="110.43 403.97 127.44 413.8 127.44 394.13 110.43 403.97"/><polygon class="cls-28" points="156.64 407.4 139.63 397.56 139.63 420.64 156.64 430.47 156.64 407.4"/><polygon class="cls-29" points="139.63 420.64 156.64 430.47 156.64 410.8 139.63 420.64"/><polygon class="cls-30" points="66.18 -65 121.38 325.32 214.19 378.96 306.59 325.32 361.79 -65 66.18 -65"/><polygon class="cls-31" points="271.61 326.73 214.11 360.1 156.36 326.73 214.11 293.35 271.61 326.73"/><polygon class="cls-31" points="306.59 325.32 214.19 378.96 121.38 325.32 214.19 271.68 306.59 325.32"/><path class="cls-32" d="M357.9,194.12v-30.5c-.7-10.39-4.82-20.3-11.72-29.36v30.5c6.9,9.06,11,19,11.72,29.36Zm-15.25-33.64V130a86.79,86.79,0,0,0-8.07-7.95v30.49a86.87,86.87,0,0,1,8.07,8Zm-13.07-12V118a118.74,118.74,0,0,0-10.29-7v30.5a116.53,116.53,0,0,1,10.29,7Zm-17.2-1.92V98c28.1,14.91,45.63,36.22,45.63,59.81v48.52c0-23.59-17.53-44.9-45.63-59.81Z"/><path class="cls-33" d="M261,123.25v-8.76c-2.14-.41-4.31-.8-6.5-1.15v8.76c2.19.35,4.36.74,6.5,1.15Zm-11.69-10.69v-7.75c-2.22-.31-4.46-.58-6.73-.83v7.76c2.27.24,4.51.52,6.73.82ZM272.25,117V106.38q-3.09-.76-6.25-1.45V115.5q3.17.69,6.25,1.45Zm-35-5.74V95.61q-3.43-.3-6.92-.5v15.61c2.32.13,4.63.3,6.92.49Zm-25.11-.88V94.73c-2.36,0-4.69.1-7,.2v15.61c2.33-.1,4.66-.17,7-.21Zm-12.48.51V91.21c-2.29.15-4.58.33-6.84.54v19.63c2.26-.21,4.55-.39,6.84-.54Zm25.15-.38V88c-2.1-.08-4.21-.12-6.34-.15h-.75v22.45h.75q3.19,0,6.34.14Zm-37.31,1.48V83.85q-3.36.41-6.66.88v28.09c2.2-.32,4.42-.62,6.66-.88Zm-21-30.49a238.89,238.89,0,0,1,51.93-5.06A227.16,227.16,0,0,1,285.53,86.8v48.52a227.16,227.16,0,0,0-67.09-10.41A238.89,238.89,0,0,0,166.51,130V81.45Z"/><path class="cls-34" d="M84,147.26V137.5a59.1,59.1,0,0,0-6.9,13v28.93a59.55,59.55,0,0,1,6.9-13v-9.77q1.26-1.82,2.67-3.59v5.27a78.49,78.49,0,0,1,5.83-6.54v-5.27c9.16-9.21,21.35-17.29,35.78-23.8v-9.4q-3.86,1.74-7.49,3.62c-1.21.63-2.4,1.27-3.58,1.92a111.34,111.34,0,0,0-23.88,17.44l-.83.82v-5.27a80.24,80.24,0,0,0-5.83,6.55v5.27q-1.41,1.77-2.67,3.58Zm-8.78-.3c5.51-23.68,28.71-44.07,61.61-56.76v48.52c-32.9,12.69-56.1,33.08-61.61,56.76V147Z"/><path class="cls-14" d="M92.46,137.13l.83-.82v9.4a104.51,104.51,0,0,1,17.09-13.4c2.18-1.39,4.45-2.74,6.79-4v-9.4c1.18-.65,2.37-1.29,3.58-1.92v9.4q3.63-1.87,7.49-3.62v0c-14.43,6.51-26.62,14.59-35.78,23.8v-9.4ZM84,147.26q1.26-1.81,2.67-3.58v9.39q-1.41,1.77-2.67,3.59v-9.4Z"/><path class="cls-35" d="M120.75,117q3.63-1.87,7.49-3.62v9.4q-3.86,1.74-7.49,3.62V117Z"/><path class="cls-35" d="M93.29,136.31a105.05,105.05,0,0,1,17.09-13.4v9.4a104.51,104.51,0,0,0-17.09,13.4v-9.4Z"/><path class="cls-36" d="M110.38,122.91c2.18-1.39,4.45-2.73,6.79-4v9.4c-2.34,1.3-4.61,2.65-6.79,4v-9.4Z"/><path class="cls-14" d="M77.06,150.51a59.1,59.1,0,0,1,6.9-13v9.76a59.39,59.39,0,0,0-6.9,13v9.4a59.39,59.39,0,0,1,6.9-13v9.77a59.55,59.55,0,0,0-6.9,13V150.51Z"/><path class="cls-14" d="M77.06,160.28a59.39,59.39,0,0,1,6.9-13v9.4a59.39,59.39,0,0,0-6.9,13v-9.4Z"/><path class="cls-14" d="M86.63,153.07a78.49,78.49,0,0,1,5.83-6.54v5.27a78.49,78.49,0,0,0-5.83,6.54v-5.27Zm0-14.66a80.24,80.24,0,0,1,5.83-6.55v5.27a78.6,78.6,0,0,0-5.83,6.55v-5.27Z"/><path class="cls-14" d="M86.63,143.68a78.6,78.6,0,0,1,5.83-6.55v9.4a78.49,78.49,0,0,0-5.83,6.54v-9.39Z"/><path class="cls-36" d="M346.18,134.26c6.9,9.06,11,19,11.72,29.36v30.5c-.7-10.39-4.82-20.3-11.72-29.36v-30.5Z"/><path class="cls-14" d="M334.58,122a86.79,86.79,0,0,1,8.07,7.95v30.5a86.87,86.87,0,0,0-8.07-8V122Z"/><path class="cls-36" d="M319.29,111a118.74,118.74,0,0,1,10.29,7v30.5a116.53,116.53,0,0,0-10.29-7V111Z"/><path class="cls-36" d="M266,104.93q3.17.69,6.25,1.45V117q-3.09-.77-6.25-1.45V104.93Z"/><path class="cls-36" d="M254.5,113.34c2.19.35,4.36.74,6.5,1.15v8.76c-2.14-.41-4.31-.8-6.5-1.15v-8.76Z"/><path class="cls-36" d="M242.58,104c2.27.25,4.51.52,6.73.83v7.75c-2.22-.3-4.46-.58-6.73-.82V104Z"/><path class="cls-36" d="M230.3,95.11q3.48.19,6.92.5v15.6c-2.29-.19-4.6-.36-6.92-.49V95.11Z"/><path class="cls-36" d="M217.69,87.86h.75c2.13,0,4.24.07,6.34.15v22.45q-3.15-.1-6.34-.14h-.75V87.86Z"/><path class="cls-14" d="M205.09,94.93c2.33-.1,4.66-.17,7-.2v15.6c-2.36,0-4.69.11-7,.21V94.93Z"/><path class="cls-36" d="M192.79,91.75c2.26-.21,4.55-.39,6.84-.54v19.63c-2.29.15-4.58.33-6.84.54V91.75Z"/><path class="cls-14" d="M180.81,84.73q3.3-.48,6.66-.88v28.09c-2.24.26-4.46.56-6.66.88V84.73Z"/><path class="cls-37" d="M198.59,321.49s-2.15.27-2.55,1.1-.62,7.93-.58,8.9c0,0,5.66,5.56,10.95,8.28s9.87,3.89,11.91,2.11.78-3.84-3.57-7.38-8.56-13-8.56-13Z"/><path class="cls-37" d="M226.42,310.3s-2.15.27-2.55,1.1-.62,7.92-.58,8.89c0,0,5.66,5.57,11,8.28s9.87,3.9,11.92,2.12.78-3.85-3.58-7.38-8.56-13-8.56-13Z"/><path class="cls-38" d="M241.78,207.45s-.16,2.82-.27,3.36-2.53,4.12-2.58,5.31a3.13,3.13,0,0,0,1.24,2.17,15.94,15.94,0,0,0,.3,3.17c.26.54,2.68.2,2.94.33s1.81,1.12,2.84.69a39.82,39.82,0,0,0,4.25-1.69c.36-.37.63-9.17-.66-15.88-.44-2.25-2.44-54.37-3.64-54C243.81,151.7,241.78,207.45,241.78,207.45Z"/><path class="cls-39" d="M249.39,157.13C248.32,152,247,146,245.88,141.87c-2.37-8.68-4.1-15.42-9.16-15.57L235,155.75s.55,4.44,1.48,9.47A93.83,93.83,0,0,0,249.39,157.13Z"/><path class="cls-37" d="M195.34,212.75,195,323.65a13.64,13.64,0,0,0,13.25-.29s12.55-95.8,12.76-98.08c.2-2.1,1.78,87.47,1.78,87.47s7.77,4.46,13.69-1.6l7-106.1Z"/><path class="cls-39" d="M206.39,129.88A61.63,61.63,0,0,0,190.77,139l4.57,73.8s9.55,7,29.06,1.88c15.9-4.16,20.08-10.85,20.08-10.85s1.45-36.27,0-51.61a68.6,68.6,0,0,0-7.73-25.87c-3.46-1-11.11-.61-11.11-.61Z"/><path class="cls-37" d="M226.94,84.91c-3.4-1.22-6.24-1.21-10-.82-7,.74-12.84,4.13-14,11.6-.88,5.63,1.22,11.39,3.45,16.47,2.95,6.73,5,4.28,5,4.28l17.09-6.89c1.57-.63,3.95-1.1,5.26-2.25,2.09-1.83,1.4-5,1.78-7.42.51-3.27,1-6-.79-9.1a13.63,13.63,0,0,0-6.38-5.29C227.89,85.27,227.41,85.08,226.94,84.91Z"/><path class="cls-38" d="M209.6,126.32l-.44-14.78a3.45,3.45,0,0,1-3.08-4.35c.64-4.07,4.45-1.4,5.12-.2,0,0,.86-14,8.28-15.37s14.63.25,14.82,3.87.43,16.25,0,21-4.11,6.62-10.89,6.44l.46,7.6s-3.4,2.49-12.91.17Z"/><path class="cls-39" d="M223.5,124.44a5.05,5.05,0,0,1,1.81.27c.51.28,3.22,3,3.29,6a21.57,21.57,0,0,1-1.15,6.42l-6.16-5.55-3.87,7.48a15.86,15.86,0,0,1-5.72-3,21.55,21.55,0,0,1-5.31-6.21c1.06-2.7,1.79-4.31,1.79-4.31.25-.62,1.42-.9,1.42-.9s6.55,5.94,11.69,6.23C221.29,130.9,223.13,130.05,223.5,124.44Z"/><path class="cls-38" d="M195.3,217.79s.72,2.73.94,3.24,3.31,3.52,3.6,4.67a3.12,3.12,0,0,1-.78,2.38,16.47,16.47,0,0,1,.35,3.17c-.15.57-2.59.73-2.82.91s-1.55,1.47-2.64,1.25a39.07,39.07,0,0,1-4.5-.8c-.43-.29-2.47-8.85-2.56-15.69,0-2.56.86-53.76.86-53.76.71.17,11.16,4.17,11.16,4.17Z"/><path class="cls-39" d="M199.54,171.05c.14-6.49.39-13.54.31-15.25-.28-5.8-.28-22.13-9.08-16.85-3.55,2.13-4.35,18-5.08,28.62C189.68,170.31,195.93,171.05,199.54,171.05Z"/><path class="cls-37" d="M234.74,97.35a5.21,5.21,0,0,0-.4-5.18,9.85,9.85,0,0,0-4.16-3.41c-4.06-2-15.44-4.11-15.75,2.95-.16,3.52,2.88,9.37,7.08,8.64,1.81-.32,2.87-2,4.86-1.45,1,.28,3.68,2.82,3.81.11A3.68,3.68,0,0,0,234.74,97.35Z"/><path class="cls-37" d="M208.83,104.11a10.76,10.76,0,0,1,3.79,7l1.42,0c-.07-1.87.06-3.53,0-5.4a12.93,12.93,0,0,0,3-11.08c-.35-1.59-1.3-3.35-2.92-3.5s-2.87,1.44-3.57,2.93A18.69,18.69,0,0,0,208.83,104.11Z"/><path class="cls-40" d="M119,258.73v-8.2q2.46,1.32,5,2.58v8.19q-2.56-1.24-5-2.57Zm-16.15-10.24V233.38c1.37,1,2.77,2,4.22,3v15.11c-1.45-1-2.85-2-4.22-3Zm7.7,5.31V236q2.27,1.44,4.64,2.81v17.82q-2.37-1.37-4.64-2.81Zm-20.65-17V217q1.58,1.72,3.28,3.41V240.2q-1.71-1.68-3.28-3.41Zm6.06,6V221.39c1.21,1.09,2.46,2.17,3.76,3.22V246c-1.3-1.06-2.55-2.13-3.76-3.23ZM80.55,223.86V200.64c.69,1.25,1.44,2.5,2.24,3.73v23.22c-.8-1.23-1.55-2.48-2.24-3.73Zm4.21,6.6V200.25c.88,1.21,1.8,2.4,2.78,3.58V234c-1-1.18-1.9-2.37-2.78-3.58ZM77.32,217V182.89q.77,2,1.68,3.87v34.11c-.61-1.27-1.17-2.56-1.68-3.86Zm57.09,7.57C102,211.5,79.53,190.84,74.83,167.17v48.52C79.53,239.36,102,260,134.41,273.1V224.58Z"/><path class="cls-41" d="M229.59,278.47V267.53q8.39-.46,16.46-1.46V277q-8.07,1-16.46,1.46Zm-26.24,0V258.58q5,.26,10.13.3,3.5,0,7,0V278.8q-3.47.06-7,0c-3.41,0-6.79-.14-10.13-.31Zm-25.3-2.61v-30.5q7.94,1.26,16.23,2v30.5q-8.29-.73-16.23-2Zm76.65-.13V243.57q7.88-1.27,15.37-3.06v32.21q-7.49,1.77-15.37,3.06ZM283,229.7a230.43,230.43,0,0,1-69.53,9.62,236.28,236.28,0,0,1-49.63-5.65v48.52a236.28,236.28,0,0,0,49.63,5.65A230.43,230.43,0,0,0,283,278.22V229.7Z"/><path class="cls-42" d="M317.87,243.58v-9.4c22.64-13.37,37.38-31.2,39.79-51v9.4c-2.41,19.83-17.15,37.66-39.79,51ZM358,207.8V159.28c-.72,23.73-19.07,44.91-47.75,59.52v48.52c28.68-14.61,47-35.79,47.75-59.52Z"/><path class="cls-36" d="M357.66,183.15c-2.41,19.83-17.15,37.66-39.79,51v9.4c22.64-13.37,37.38-31.2,39.79-51v-9.4Z"/><path class="cls-14" d="M194.28,247.4q-8.29-.72-16.23-2v30.5q7.94,1.24,16.23,2V247.4Z"/><path class="cls-14" d="M246.05,266.07q-8.07,1-16.46,1.46v10.94Q238,278,246.05,277V266.07Z"/><path class="cls-14" d="M270.07,240.51q-7.49,1.77-15.37,3.06v32.21q7.88-1.29,15.37-3.06V240.51Z"/><path class="cls-36" d="M220.44,258.86q-3.47.06-7,0-5.11,0-10.13-.3v19.94c3.34.17,6.72.28,10.13.31q3.5,0,7,0V258.86Z"/><path class="cls-14" d="M79,186.76q-.91-1.92-1.68-3.87V217c.51,1.3,1.07,2.59,1.68,3.86V186.76Z"/><path class="cls-14" d="M82.79,204.37c-.8-1.23-1.55-2.48-2.24-3.73v23.22c.69,1.25,1.44,2.5,2.24,3.73V204.37Z"/><path class="cls-36" d="M87.54,203.83c-1-1.18-1.9-2.37-2.78-3.58v30.21c.88,1.21,1.8,2.4,2.78,3.58V203.83Z"/><path class="cls-14" d="M93.2,220.43q-1.71-1.68-3.28-3.41v19.77q1.58,1.72,3.28,3.41V220.43Z"/><path class="cls-36" d="M99.74,224.61c-1.3-1.05-2.55-2.13-3.76-3.22V242.8c1.21,1.1,2.46,2.17,3.76,3.23V224.61Z"/><path class="cls-36" d="M107.09,236.4c-1.45-1-2.85-2-4.22-3v15.11c1.37,1,2.77,2,4.22,3V236.4Z"/><path class="cls-36" d="M115.21,238.79q-2.37-1.36-4.64-2.81V253.8q2.27,1.44,4.64,2.81V238.79Z"/><path class="cls-36" d="M124.05,253.11q-2.56-1.26-5-2.58v8.2q2.46,1.32,5,2.57v-8.19Z"/><g class="cls-2"><polygon class="cls-43" points="200.6 450.2 187.5 457.8 174.35 450.2 187.5 442.6 200.6 450.2"/><polygon class="cls-44" points="200.6 450.2 200.6 706.93 187.5 714.53 187.5 457.8 200.6 450.2"/><polygon class="cls-45" points="187.5 457.8 187.5 714.53 174.35 706.93 174.35 450.2 187.5 457.8"/></g><polygon class="cls-46" points="187.5 442.6 174.35 450.2 174.35 706.93 187.5 714.53 200.6 706.93 200.6 450.2 187.5 442.6"/><g class="cls-2"><polygon class="cls-47" points="350.52 423.4 302.8 451.1 254.88 423.4 302.8 395.71 350.52 423.4"/><polygon class="cls-48" points="350.52 423.4 350.52 675.25 302.8 702.95 302.8 451.1 350.52 423.4"/><polygon class="cls-49" points="302.8 451.1 302.8 702.95 254.88 675.25 254.88 423.4 302.8 451.1"/></g><polygon class="cls-13" points="302.8 457.02 350.52 429.32 350.52 428.17 302.8 455.87 302.8 457.02"/><polygon class="cls-14" points="254.88 429.32 302.8 457.02 302.8 455.87 254.88 428.17 254.88 429.32"/><polygon class="cls-50" points="258.92 307.79 275.27 423.4 302.76 439.29 330.13 423.4 346.48 307.79 258.92 307.79"/><polygon class="cls-31" points="330.13 423.4 302.76 439.29 275.27 423.4 302.76 407.52 330.13 423.4"/><polygon class="cls-51" points="284.53 468.62 271.12 460.87 271.12 608.36 284.53 616.11 284.53 468.62"/><polygon class="cls-52" points="302.8 451.1 254.88 423.4 254.88 675.25 302.8 702.95 350.52 675.25 350.52 423.4 302.8 451.1"/></g></g></g></svg>