<svg xmlns="http://www.w3.org/2000/svg" xmlns:xlink="http://www.w3.org/1999/xlink" viewBox="0 0 263.38 221.58"><defs><style>.cls-1{fill:none;}.cls-2{isolation:isolate;}.cls-3{clip-path:url(#clip-path);}.cls-4{fill:#fff;}.cls-5{fill:#ccc;}.cls-6{fill:#12284c;}.cls-7{opacity:0.1;}.cls-8{clip-path:url(#clip-path-2);}.cls-9{fill:#f5f5f5;}.cls-10{opacity:0.05;}.cls-11{clip-path:url(#clip-path-3);}.cls-12{clip-path:url(#clip-path-4);}.cls-13{opacity:0.56;mix-blend-mode:overlay;fill:url(#linear-gradient);}.cls-14{clip-path:url(#clip-path-5);}.cls-15{fill:url(#linear-gradient-2);}.cls-16{fill:url(#linear-gradient-3);}.cls-17{fill:url(#linear-gradient-4);}.cls-18{fill:url(#linear-gradient-5);}.cls-19{fill:url(#linear-gradient-6);}.cls-20{fill:url(#linear-gradient-7);}.cls-21{fill:url(#linear-gradient-8);}.cls-22{fill:url(#linear-gradient-9);}.cls-23{fill:url(#linear-gradient-10);}.cls-24{fill:url(#linear-gradient-11);}</style><clipPath id="clip-path"><rect class="cls-1" width="263.38" height="178.63"/></clipPath><clipPath id="clip-path-2"><rect id="Rectangle_44" data-name="Rectangle 44" class="cls-1" x="328.22" y="-1177.06" width="1200" height="675"/></clipPath><clipPath id="clip-path-3"><rect class="cls-1" x="332.31" y="-447.85" width="1200" height="1002.77"/></clipPath><clipPath id="clip-path-4"><rect id="Rectangle_19" data-name="Rectangle 19" class="cls-1" x="-344.63" y="265.59" width="607" height="203" rx="22"/></clipPath><linearGradient id="linear-gradient" x1="140.05" y1="245.47" x2="137.52" y2="607.64" gradientUnits="userSpaceOnUse"><stop offset="0.04" stop-color="#93fffd" stop-opacity="0"/><stop offset="0.14" stop-color="#95fffd" stop-opacity="0.07"/><stop offset="0.33" stop-color="#9bfefe" stop-opacity="0.25"/><stop offset="0.61" stop-color="#a4fdfe" stop-opacity="0.54"/><stop offset="0.95" stop-color="#b0fbff" stop-opacity="0.94"/><stop offset="1" stop-color="#b2fbff"/></linearGradient><clipPath id="clip-path-5"><rect id="Rectangle_24" data-name="Rectangle 24" class="cls-1" x="-158.62" y="-488.4" width="422" height="473" rx="38"/></clipPath><linearGradient id="linear-gradient-2" x1="55.65" y1="-25.41" x2="187.86" y2="-25.41" gradientUnits="userSpaceOnUse"><stop offset="0" stop-color="#144188"/><stop offset="1" stop-color="#1a7cde"/></linearGradient><linearGradient id="linear-gradient-3" x1="-77.13" y1="-25.41" x2="55.65" y2="-25.41" gradientUnits="userSpaceOnUse"><stop offset="0" stop-color="#144188"/><stop offset="1" stop-color="#102465"/></linearGradient><linearGradient id="linear-gradient-4" x1="28.88" y1="93.97" x2="41.98" y2="93.97" xlink:href="#linear-gradient-2"/><linearGradient id="linear-gradient-5" x1="15.73" y1="93.97" x2="28.88" y2="93.97" xlink:href="#linear-gradient-3"/><linearGradient id="linear-gradient-6" x1="29.42" y1="2.35" x2="28.46" y2="152.35" gradientUnits="userSpaceOnUse"><stop offset="0" stop-color="#0276ce" stop-opacity="0"/><stop offset="0.06" stop-color="#0276ce" stop-opacity="0.16"/><stop offset="0.15" stop-color="#0276ce" stop-opacity="0.38"/><stop offset="0.25" stop-color="#0276ce" stop-opacity="0.57"/><stop offset="0.35" stop-color="#0276ce" stop-opacity="0.73"/><stop offset="0.45" stop-color="#0276ce" stop-opacity="0.85"/><stop offset="0.56" stop-color="#0276ce" stop-opacity="0.93"/><stop offset="0.68" stop-color="#0276ce" stop-opacity="0.98"/><stop offset="0.81" stop-color="#0276ce"/></linearGradient><linearGradient id="linear-gradient-7" x1="144.18" y1="74.78" x2="191.9" y2="74.78" xlink:href="#linear-gradient-2"/><linearGradient id="linear-gradient-8" x1="96.26" y1="74.78" x2="144.18" y2="74.78" xlink:href="#linear-gradient-3"/><linearGradient id="linear-gradient-9" x1="125.73" y1="50.22" x2="109.37" y2="49.9" xlink:href="#linear-gradient-2"/><linearGradient id="linear-gradient-10" x1="130.51" y1="120.06" x2="117.06" y2="119.79" xlink:href="#linear-gradient-2"/><linearGradient id="linear-gradient-11" x1="143.11" y1="193.79" x2="144.33" y2="26.34" gradientUnits="userSpaceOnUse"><stop offset="0" stop-color="#0044ae"/><stop offset="0.18" stop-color="#0044ae" stop-opacity="0.76"/><stop offset="0.46" stop-color="#0044ae" stop-opacity="0.44"/><stop offset="0.7" stop-color="#0044ae" stop-opacity="0.2"/><stop offset="0.89" stop-color="#0044ae" stop-opacity="0.05"/><stop offset="1" stop-color="#0044ae" stop-opacity="0"/></linearGradient></defs><g class="cls-2"><g id="Banner"><g id="Group_129" data-name="Group 129"><g class="cls-3"><g id="Group_128" data-name="Group 128"><g id="Group_127" data-name="Group 127"><g id="Group_125" data-name="Group 125"><g id="Group_124" data-name="Group 124"><path id="Path_573" data-name="Path 573" class="cls-4" d="M240.19,63.22,160,31.65l8.91,24.69Z"/><path id="Path_574" data-name="Path 574" class="cls-5" d="M168.87,56.34l-15,25.26,86.33-18.38Z"/><path id="Path_575" data-name="Path 575" class="cls-6" d="M153.86,81.6l18.3-13.77,68-4.61Z"/><path id="Path_576" data-name="Path 576" class="cls-4" d="M240.19,63.22,177.4,100.37l-5.23-32.54Z"/></g></g><g id="Group_126" data-name="Group 126"><path id="Path_577" data-name="Path 577" class="cls-4" d="M144,82.11a1.55,1.55,0,0,1-.36.08c-1.55.09-3.14.22-4.73.41a1.28,1.28,0,0,1-.3-2.55c1.64-.19,3.28-.34,4.88-.43a1.29,1.29,0,0,1,.51,2.49Z"/><path id="Path_578" data-name="Path 578" class="cls-4" d="M122.88,193.49a41.7,41.7,0,0,1-5.37,1.55,1.29,1.29,0,0,1-.54-2.52,38.59,38.59,0,0,0,9-3.13,1.29,1.29,0,1,1,1.21,2.27l-.07,0A39.73,39.73,0,0,1,122.88,193.49Zm12.2-7.22a1.28,1.28,0,0,1-1.29-2.17,33.09,33.09,0,0,0,6.11-7.19,1.29,1.29,0,0,1,2.18,1.37A36.44,36.44,0,0,1,135.5,186a1.76,1.76,0,0,1-.42.24Zm-27.18,9.58a1.12,1.12,0,0,1-.48.07,37.94,37.94,0,0,1-4-.35,35.65,35.65,0,0,1-6-1.4,1.28,1.28,0,0,1,.79-2.44,33.67,33.67,0,0,0,5.6,1.29,35.45,35.45,0,0,0,3.72.34,1.27,1.27,0,0,1,1.23,1.33,1.29,1.29,0,0,1-.84,1.16Zm37.35-26.07a1.28,1.28,0,0,1-1.65-.77,1.33,1.33,0,0,1,0-.74,31.5,31.5,0,0,0,.82-9.38,1.29,1.29,0,1,1,2.57-.15,34.28,34.28,0,0,1-.89,10.14,1.26,1.26,0,0,1-.82.9ZM89.38,190a1.29,1.29,0,0,1-1.13-.13,46.54,46.54,0,0,1-7.86-6.34,1.29,1.29,0,0,1,1.82-1.82,44,44,0,0,0,7.42,6,1.29,1.29,0,0,1-.25,2.3ZM40,206.92a1.27,1.27,0,0,1-1.64-.76,1.18,1.18,0,0,1-.08-.49,94.18,94.18,0,0,1,.88-9.92,1.28,1.28,0,0,1,2.55.29s0,0,0,.06a91.9,91.9,0,0,0-.85,9.66,1.3,1.3,0,0,1-.85,1.16Zm35.49-30.71a1.28,1.28,0,0,1-1.5-.49,58,58,0,0,1-4.89-8.78,1.29,1.29,0,1,1,2.35-1.05,54.51,54.51,0,0,0,4.66,8.39,1.28,1.28,0,0,1-.33,1.78,1.59,1.59,0,0,1-.29.15ZM42.63,187.46a1.3,1.3,0,0,1-1.65-.77,1.26,1.26,0,0,1,0-.72c.7-3.12,1.53-6.35,2.49-9.6a1.28,1.28,0,0,1,2.46.73c-.94,3.2-1.76,6.37-2.45,9.43a1.24,1.24,0,0,1-.81.92Zm101.62-37.07h0a1.28,1.28,0,0,1-1.62-.82h0c-.13-.4-.27-.79-.41-1.18a40.89,40.89,0,0,0-3.61-7.44,1.28,1.28,0,0,1,2.18-1.35,42.48,42.48,0,0,1,3.84,7.91c.16.42.3.84.44,1.26a1.29,1.29,0,0,1-.78,1.61Zm-96.1,18.2A1.28,1.28,0,0,1,46.5,167c1-2.92,2.2-5.91,3.43-8.92l.15-.33a1.28,1.28,0,1,1,2.37,1v0l-.13.3c-1.22,3-2.36,5.92-3.39,8.8a1.28,1.28,0,0,1-.77.77Zm19.34-10.25-.13,0a1.3,1.3,0,0,1-1.56-.93h0a55.75,55.75,0,0,1-1.57-9.94,1.29,1.29,0,0,1,1.2-1.37,1.3,1.3,0,0,1,1.37,1.2h0a52.43,52.43,0,0,0,1.5,9.48,1.29,1.29,0,0,1-.81,1.51ZM134,133.83a1.28,1.28,0,0,1-1.34-.29,35.49,35.49,0,0,0-7.57-5.67,1.28,1.28,0,0,1,1.24-2.25,38.34,38.34,0,0,1,8.13,6.08,1.28,1.28,0,0,1,0,1.82,1.17,1.17,0,0,1-.48.31ZM56.77,151a1.29,1.29,0,0,1-1.46-2,64.19,64.19,0,0,1,6.75-7.42,1.28,1.28,0,0,1,1.77,1.86,61.67,61.67,0,0,0-6.48,7.13,1.36,1.36,0,0,1-.58.42Zm60.17-26.52a1.36,1.36,0,0,1-.72.05,38.47,38.47,0,0,0-9.45-.86,1.29,1.29,0,0,1-.08-2.57,41.19,41.19,0,0,1,10.09.92,1.29,1.29,0,0,1,1,1.53,1.31,1.31,0,0,1-.82.93Zm-46,12.94a1.28,1.28,0,0,1-1.2-2.24,84.08,84.08,0,0,1,8.4-5.42A1.29,1.29,0,0,1,79.39,132h0a78.8,78.8,0,0,0-8.13,5.25,1.41,1.41,0,0,1-.32.17Zm-4.67,1.39a1.28,1.28,0,0,1-1.64-.78,1.23,1.23,0,0,1-.07-.6,48,48,0,0,1,2.36-9.81,1.28,1.28,0,0,1,2.42.86h0a44.93,44.93,0,0,0-2.23,9.29,1.28,1.28,0,0,1-.83,1Zm31.17-13.94-.15,0a62.71,62.71,0,0,0-9.18,2.9,1.28,1.28,0,0,1-1-2.38,65.22,65.22,0,0,1,9.57-3,1.28,1.28,0,0,1,.72,2.46Zm-24.59-4.45a1.28,1.28,0,0,1-1.53-1.88,58.92,58.92,0,0,1,6-8,1.28,1.28,0,0,1,1.92,1.7,57.53,57.53,0,0,0-5.75,7.7,1.31,1.31,0,0,1-.65.53Zm12.89-14.77a1.29,1.29,0,0,1-1.65-.76,1.31,1.31,0,0,1,.37-1.42,91.28,91.28,0,0,1,7.93-6.06,1.29,1.29,0,0,1,1.8.3,1.28,1.28,0,0,1-.3,1.79l0,0a84.62,84.62,0,0,0-7.7,5.88,1.47,1.47,0,0,1-.4.24ZM102,94.59a1.29,1.29,0,0,1-1-2.34c2.88-1.56,5.9-3,9-4.34a1.29,1.29,0,0,1,1,2.36c-3,1.29-5.94,2.71-8.75,4.24l-.18.07Zm27.54-10.38-.16,0c-3.1.7-6.25,1.58-9.36,2.59a1.29,1.29,0,0,1-1.62-.82h0a1.27,1.27,0,0,1,.8-1.61h0c3.19-1,6.42-1.93,9.6-2.65a1.29,1.29,0,0,1,.73,2.46Z"/><path id="Path_579" data-name="Path 579" class="cls-4" d="M41.39,221.5l0,0a1.29,1.29,0,0,1-1.62-.82h0a28.85,28.85,0,0,1-1-4.95,1.29,1.29,0,0,1,2.55-.33,26.41,26.41,0,0,0,.93,4.48A1.27,1.27,0,0,1,41.39,221.5Z"/></g></g></g></g></g><g class="cls-7"><g class="cls-8"><g id="Group_2" data-name="Group 2"><g id="Group_1" data-name="Group 1"><path id="Path_13" data-name="Path 13" class="cls-9" d="M246.44-199.18l-324.78,447a1185.67,1185.67,0,0,0,241,121.93l170.7-525.34A645.94,645.94,0,0,1,246.44-199.18Z"/><path id="Path_16" data-name="Path 16" class="cls-9" d="M85-336.22-361.64-11.72A1218.14,1218.14,0,0,0-157.36,191.16L167-255.28A652,652,0,0,1,85-336.22Z"/><path id="Path_21" data-name="Path 21" class="cls-9" d="M702.84-218.54,632.27-435.71l-30.55-94-22.25-68.44-22.21,68.37-30.59,94.15L456.11-218.52l-30.22,93L255.2,399.81a1213.21,1213.21,0,0,0,648.53,0L733-125.52Z"/></g></g></g></g><g id="Group_769" data-name="Group 769" class="cls-10"><g class="cls-11"><g id="Group_768" data-name="Group 768"><g id="Group_2-2" data-name="Group 2"><g id="Group_1-2" data-name="Group 1"><path id="Path_5" data-name="Path 5" d="M254.73-26.15a329.28,329.28,0,0,0,200,302.5l42.1-129.57C401.35,98.9,362.75-17.33,410.63-112.82S574.74-246.91,670.23-199s134.09,164.1,86.21,259.6a193.39,193.39,0,0,1-86.21,86.21l42.1,129.58C879.4,205.22,957.17,12.12,886-155S621.79-399.8,454.71-328.66A328.8,328.8,0,0,0,254.73-26.15Z"/><path id="Path_12" data-name="Path 12" d="M197.77,2.86H-131.48A716.83,716.83,0,0,0-105.75,167.3L207.67,65.47A386.21,386.21,0,0,1,197.77,2.86Z"/><path id="Path_15" data-name="Path 15" d="M225.56,120.68-87.87,222.52a707.6,707.6,0,0,0,75.68,148.3L254.38,177.15A385.72,385.72,0,0,1,225.56,120.68Z"/></g></g></g></g></g><g class="cls-12"><polygon class="cls-13" points="-41.13 205.5 -41.13 600.52 139.34 704.83 319.03 600.52 319.03 205.5 -41.13 205.5"/></g><g class="cls-14"><g class="cls-2"><polygon class="cls-15" points="187.86 -161.51 187.86 33.95 55.65 110.69 55.65 -84.76 187.86 -161.51"/><polygon class="cls-16" points="55.65 -84.76 55.65 110.69 -77.13 33.95 -77.13 -161.5 55.65 -84.76"/></g><g class="cls-2"><polygon class="cls-17" points="41.98 -38.2 41.98 218.53 28.88 226.13 28.88 -30.59 41.98 -38.2"/><polygon class="cls-18" points="28.88 -30.59 28.88 226.13 15.73 218.53 15.73 -38.2 28.88 -30.59"/></g><polygon class="cls-19" points="28.88 -45.8 15.73 -38.2 15.73 218.53 28.88 226.13 41.98 218.53 41.98 -38.2 28.88 -45.8"/><g class="cls-2"><polygon class="cls-20" points="191.9 -64.99 191.9 186.85 144.18 214.55 144.18 -37.29 191.9 -64.99"/><polygon class="cls-21" points="144.18 -37.29 144.18 214.55 96.26 186.86 96.26 -64.99 144.18 -37.29"/></g><polygon class="cls-22" points="125.91 -19.78 112.5 -27.53 112.5 119.97 125.91 127.72 125.91 -19.78"/><polygon class="cls-23" points="112.5 119.97 125.91 127.72 125.91 112.22 112.5 119.97"/><polygon class="cls-24" points="144.18 -37.29 96.26 -64.99 96.26 186.86 144.18 214.55 191.9 186.85 191.9 -64.99 144.18 -37.29"/></g></g></g></svg>