<?xml version="1.0" encoding="UTF-8"?>
<svg width="484px" height="484px" viewBox="0 0 484 484" version="1.1" xmlns="http://www.w3.org/2000/svg" xmlns:xlink="http://www.w3.org/1999/xlink">
    <title>brandmark-white</title>
    <g id="Page-1" stroke="none" stroke-width="1" fill="none" fill-rule="evenodd" opacity="0.5">
        <g id="brandmark-white" fill="#FFFFFF" fill-rule="nonzero">
            <path d="M326,342.11 L391.48,432.24 C406.441427,420.442867 419.973176,406.937967 431.8,392 L341.66,326.51 C336.88759,332.140767 331.649045,337.35924 326,342.11 L326,342.11 Z" id="Path_1"></path>
            <path d="M363,192.21 L469,157.76 C462.472274,140.08998 453.879359,123.253238 443.4,107.6 L353.23,173.11 C357.005166,179.197841 360.272863,185.586073 363,192.21 L363,192.21 Z" id="Path_2"></path>
            <path d="M372.36,232.06 L483.74,232.06 C483.010205,213.241729 480.090524,194.57255 475.04,176.43 L369,210.88 C370.697969,217.836105 371.821747,224.919918 372.36,232.06 L372.36,232.06 Z" id="Path_3"></path>
            <path d="M241.87,196.08 C221.193895,196.083313 203.082737,209.936343 197.666836,229.890524 C192.250935,249.844704 200.872853,270.953542 218.71,281.41 L232.54,238.84 C233.858849,234.800781 237.625923,232.067979 241.875,232.067979 C246.124077,232.067979 249.891151,234.800781 251.21,238.84 L265,281.36 C282.826518,270.906933 291.442419,249.808974 286.029182,229.865348 C280.615946,209.921722 262.51522,196.075374 241.85,196.07 L241.87,196.08 Z" id="Path_4"></path>
            <path d="M130.65,241.87 C130.696892,286.445307 157.313349,326.700435 198.31,344.2 L212.55,300.37 C185.435376,286.7757 171.218647,256.328544 178.203526,226.81212 C185.188405,197.295696 211.54337,176.44958 241.875,176.44958 C272.20663,176.44958 298.561595,197.295696 305.546474,226.81212 C312.531353,256.328544 298.314624,286.7757 271.2,300.37 L285.44,344.2 C336.665171,322.3895 363.871242,266.062442 349.109282,212.380037 C334.347321,158.697632 282.165944,124.201087 226.99129,131.64915 C171.816636,139.097213 130.65,186.194906 130.65,241.87 Z" id="Path_5"></path>
            <path d="M307.32,8.7 C289.177276,3.65027527 270.508192,0.730608998 251.69,0 L251.69,111.38 C258.830094,111.906762 265.914303,113.023913 272.87,114.72 L307.32,8.7 Z" id="Path_6"></path>
            <path d="M192.21,120.79 L157.76,14.79 C140.087716,21.3197485 123.247895,29.9125217 107.59,40.39 L173.11,130.56 C179.198839,126.786603 185.586922,123.518981 192.21,120.79 Z" id="Path_7"></path>
            <path d="M232.06,111.39 L232.06,0 C213.241729,0.729794605 194.57255,3.64947558 176.43,8.7 L210.88,114.7 C217.837515,113.018879 224.921311,111.911827 232.06,111.39 L232.06,111.39 Z" id="Path_8"></path>
            <path d="M310.63,130.53 L376.15,40.36 C360.498391,29.883918 343.665356,21.2911827 326,14.76 L291.55,120.76 C298.166217,123.489971 304.547576,126.757575 310.63,130.53 L310.63,130.53 Z" id="Path_9"></path>
            <path d="M341.66,157.24 L431.8,91.75 C420.107627,76.9943043 406.752758,63.6360794 392,51.94 L326.51,142.08 C331.964231,146.712532 337.031068,151.782713 341.66,157.24 L341.66,157.24 Z" id="Path_10"></path>
            <path d="M353.21,310.64 L443.38,376.15 C453.859502,360.497284 462.458751,343.664641 469,326 L363,291.54 C360.266436,298.164581 356.99204,304.552831 353.21,310.64 Z" id="Path_11"></path>
            <path d="M111.38,251.69 L0,251.69 C0.730568012,270.504912 3.65024203,289.17069 8.7,307.31 L114.7,272.86 C113.019691,265.905317 111.909344,258.825184 111.38,251.69 L111.38,251.69 Z" id="Path_12"></path>
            <path d="M174.67,354.16 L109.12,444.38 C124.343162,454.411659 140.662241,462.671851 157.76,469 L192.21,363 C186.14887,360.49966 180.285487,357.544569 174.67,354.16 L174.67,354.16 Z" id="Path_13"></path>
            <path d="M114.72,210.88 L8.7,176.43 C3.64947558,194.57255 0.729794605,213.241729 2.84217094e-14,232.06 L111.38,232.06 C111.911683,224.920475 113.028771,217.836669 114.72,210.88 Z" id="Path_14"></path>
            <path d="M120.78,291.54 L14.76,326 C21.2877263,343.67002 29.8806409,360.506762 40.36,376.16 L130.53,310.65 C126.76122,304.55828 123.500212,298.166704 120.78,291.54 Z" id="Path_15"></path>
            <path d="M142.08,326.51 L52,392 C64.0721596,407.229163 77.9089087,420.971921 93.22,432.94 L158.69,342.84 C152.684232,337.895328 147.126052,332.430844 142.08,326.51 L142.08,326.51 Z" id="Path_16"></path>
            <path d="M369,272.87 L475,307.32 C480.053017,289.177658 482.976039,270.508577 483.71,251.69 L372.36,251.69 C371.821747,258.830082 370.697969,265.913895 369,272.87 Z" id="Path_17"></path>
            <path d="M291.54,363 L326,469 C343.450271,462.543698 360.089068,454.076638 375.58,443.77 L310,353.58 C304.104885,357.202209 297.93227,360.352048 291.54,363 Z" id="Path_18"></path>
            <path d="M130.53,173.11 L40.36,107.6 C29.8806409,123.253238 21.2877263,140.08998 14.76,157.76 L120.76,192.21 C123.487137,185.586073 126.754834,179.197841 130.53,173.11 Z" id="Path_19"></path>
            <path d="M157.24,142.08 L91.75,51.94 C76.9943302,63.6361555 63.6361555,76.9943302 51.94,91.75 L142.08,157.24 C146.709809,151.780183 151.780183,146.709809 157.24,142.08 L157.24,142.08 Z" id="Path_20"></path>
            <path d="M266.78,350.25 L252.53,306.43 L246.37,287.43 L241.88,273.62 L237.39,287.42 L231.22,306.42 L217,350.26 L210.88,369 L176.43,475 C219.25133,486.879779 264.49867,486.879779 307.32,475 L272.87,369 L266.78,350.25 Z" id="Path_21"></path>
        </g>
    </g>
</svg>