<svg xmlns="http://www.w3.org/2000/svg" xmlns:xlink="http://www.w3.org/1999/xlink" viewBox="0 0 509.15 570.68"><defs><style>.cls-1{fill:none;}.cls-2{isolation:isolate;}.cls-3{fill:#16284c;}.cls-4{clip-path:url(#clip-path);}.cls-5{opacity:0.56;mix-blend-mode:overlay;fill:url(#linear-gradient);}.cls-6{fill:#a5ffff;}.cls-7{fill:#0b3391;}.cls-10,.cls-11,.cls-14,.cls-19,.cls-8{opacity:0.7;}.cls-10,.cls-11,.cls-14,.cls-19,.cls-21,.cls-8{mix-blend-mode:lighten;}.cls-8{fill:url(#Áåçûìÿííûé_ãðàäèåíò_3);}.cls-9{fill:url(#Áåçûìÿííûé_ãðàäèåíò_4);}.cls-10{fill:url(#Áåçûìÿííûé_ãðàäèåíò_2);}.cls-11{fill:url(#Áåçûìÿííûé_ãðàäèåíò_3-2);}.cls-12,.cls-13,.cls-15,.cls-16{fill:#42e8e0;}.cls-12{opacity:0.3;}.cls-14{fill:url(#linear-gradient-2);}.cls-15,.cls-17{opacity:0.9;}.cls-16{opacity:0.2;}.cls-18{fill:url(#Áåçûìÿííûé_ãðàäèåíò_4-2);}.cls-19{fill:url(#Áåçûìÿííûé_ãðàäèåíò_2-2);}.cls-20{fill:#5cfff3;opacity:0.5;}.cls-21{fill:url(#Áåçûìÿííûé_ãðàäèåíò_3-3);}.cls-22,.cls-23,.cls-24,.cls-31,.cls-32,.cls-33{opacity:0.5;}.cls-22{fill:url(#New_Gradient_Swatch_2);}.cls-23{fill:url(#New_Gradient_Swatch_2-2);}.cls-24{fill:url(#New_Gradient_Swatch_2-3);}.cls-25,.cls-26,.cls-27{fill:#f0a150;}.cls-26{opacity:0.88;}.cls-27{opacity:0.75;}.cls-28{fill:#103450;}.cls-29{fill:#ffc6a0;}.cls-30{fill:#fff;}.cls-31{fill:url(#New_Gradient_Swatch_2-4);}.cls-32{fill:url(#New_Gradient_Swatch_2-5);}.cls-33{fill:url(#New_Gradient_Swatch_2-6);}</style><clipPath id="clip-path"><rect id="Rectangle_24" data-name="Rectangle 24" class="cls-1" width="509.15" height="570.68" rx="15"/></clipPath><linearGradient id="linear-gradient" x1="307.53" y1="-40.82" x2="153.54" y2="394.62" gradientUnits="userSpaceOnUse"><stop offset="0.5" stop-color="#93fffd" stop-opacity="0"/><stop offset="0.55" stop-color="#95fffd" stop-opacity="0.07"/><stop offset="0.65" stop-color="#9bfefe" stop-opacity="0.25"/><stop offset="0.8" stop-color="#a4fdfe" stop-opacity="0.54"/><stop offset="0.97" stop-color="#b0fbff" stop-opacity="0.94"/><stop offset="1" stop-color="#b2fbff"/></linearGradient><linearGradient id="Áåçûìÿííûé_ãðàäèåíò_3" x1="491.3" y1="582.58" x2="138" y2="388.83" gradientUnits="userSpaceOnUse"><stop offset="0" stop-color="#180d5b"/><stop offset="0.09" stop-color="#1a1660"/><stop offset="0.25" stop-color="#1e2d6e"/><stop offset="0.44" stop-color="#255385"/><stop offset="0.66" stop-color="#2f87a5"/><stop offset="0.9" stop-color="#3ccace"/><stop offset="1" stop-color="#42e8e0"/></linearGradient><linearGradient id="Áåçûìÿííûé_ãðàäèåíò_4" x1="206.65" y1="951.09" x2="452.36" y2="951.09" gradientUnits="userSpaceOnUse"><stop offset="0" stop-color="#11147c"/><stop offset="1" stop-color="#180d5b"/></linearGradient><linearGradient id="Áåçûìÿííûé_ãðàäèåíò_2" x1="489.24" y1="1128.11" x2="-181.34" y2="746.9" gradientUnits="userSpaceOnUse"><stop offset="0" stop-color="#180d5b"/><stop offset="0.14" stop-color="#141363"/><stop offset="0.28" stop-color="#0d1c72"/><stop offset="0.37" stop-color="#112d7b"/><stop offset="0.54" stop-color="#1d5a93"/><stop offset="0.78" stop-color="#2fa0b9"/><stop offset="1" stop-color="#42e8e0"/></linearGradient><linearGradient id="Áåçûìÿííûé_ãðàäèåíò_3-2" x1="378.38" y1="472.28" x2="90.1" y2="285.03" xlink:href="#Áåçûìÿííûé_ãðàäèåíò_3"/><linearGradient id="linear-gradient-2" x1="262.95" y1="457.81" x2="262.95" y2="-393.97" gradientUnits="userSpaceOnUse"><stop offset="0" stop-color="#42e8e0"/><stop offset="0.01" stop-color="#41e5dd"/><stop offset="0.15" stop-color="#32a2aa"/><stop offset="0.29" stop-color="#266e82"/><stop offset="0.4" stop-color="#1d4864"/><stop offset="0.5" stop-color="#183153"/><stop offset="0.55" stop-color="#16284c"/></linearGradient><linearGradient id="Áåçûìÿííûé_ãðàäèåíò_4-2" x1="206.65" y1="461.73" x2="452.36" y2="461.73" xlink:href="#Áåçûìÿííûé_ãðàäèåíò_4"/><linearGradient id="Áåçûìÿííûé_ãðàäèåíò_2-2" x1="253.13" y1="504.18" x2="51.73" y2="390.63" xlink:href="#Áåçûìÿííûé_ãðàäèåíò_2"/><linearGradient id="Áåçûìÿííûé_ãðàäèåíò_3-3" x1="321.07" y1="410.78" x2="89.3" y2="358.44" xlink:href="#Áåçûìÿííûé_ãðàäèåíò_3"/><linearGradient id="New_Gradient_Swatch_2" x1="369.8" y1="171.56" x2="421.42" y2="171.56" gradientUnits="userSpaceOnUse"><stop offset="0" stop-color="#89daf4"/><stop offset="1" stop-color="#008dd7"/></linearGradient><linearGradient id="New_Gradient_Swatch_2-2" x1="204.81" y1="119.15" x2="339.43" y2="119.15" xlink:href="#New_Gradient_Swatch_2"/><linearGradient id="New_Gradient_Swatch_2-3" x1="101.51" y1="160.99" x2="171.2" y2="160.99" xlink:href="#New_Gradient_Swatch_2"/><linearGradient id="New_Gradient_Swatch_2-4" x1="101.11" y1="248.42" x2="168.51" y2="248.42" xlink:href="#New_Gradient_Swatch_2"/><linearGradient id="New_Gradient_Swatch_2-5" x1="201.81" y1="292.13" x2="336.59" y2="292.13" xlink:href="#New_Gradient_Swatch_2"/><linearGradient id="New_Gradient_Swatch_2-6" x1="367.38" y1="240.69" x2="421.39" y2="240.69" xlink:href="#New_Gradient_Swatch_2"/></defs><g class="cls-2"><g id="Content"><rect id="Rectangle_24-2" data-name="Rectangle 24" class="cls-3" width="509.15" height="570.68" rx="15"/><g class="cls-4"><polygon class="cls-5" points="91.33 -34.67 153.77 406.81 258.74 467.48 363.25 406.81 425.68 -34.67 91.33 -34.67"/><polygon class="cls-6" points="323.68 408.4 258.65 446.15 193.33 408.4 258.65 370.65 323.68 408.4"/><polygon class="cls-7" points="263.78 1444.38 91.9 1345.14 263.78 387.12 435.66 1345.14 263.78 1444.38"/><polygon class="cls-7" points="263.78 557.04 91.9 457.81 263.78 358.57 435.66 457.81 263.78 557.04"/><polygon class="cls-8" points="263.78 534.42 131.08 457.81 263.78 381.19 396.49 457.81 263.78 534.42"/><polygon class="cls-9" points="435.66 457.81 435.66 1345.14 263.78 1444.38 263.78 557.04 435.66 457.81"/><polygon class="cls-7" points="91.9 457.81 91.9 1345.14 263.78 1444.38 263.78 557.04 91.9 457.81"/><polygon class="cls-10" points="91.9 457.81 91.9 1345.14 263.78 1444.38 263.78 557.04 91.9 457.81"/><polygon class="cls-7" points="263.78 525.62 91.9 426.39 263.78 327.15 435.66 426.39 263.78 525.62"/><polygon class="cls-7" points="263.78 497.08 91.9 397.84 263.78 298.61 435.66 397.84 263.78 497.08"/><polygon class="cls-11" points="263.78 497.08 91.9 397.84 263.78 298.61 435.66 397.84 263.78 497.08"/><polygon class="cls-12" points="264.12 457.81 159.43 397.37 264.12 336.93 368.81 397.37 264.12 457.81"/><polygon class="cls-12" points="264.12 377.95 333.28 417.88 368.81 397.37 264.12 336.93 159.43 397.37 194.96 417.88 264.12 377.95"/><polygon class="cls-13" points="264.12 377.95 333.28 417.88 368.81 397.37 264.12 336.93 159.43 397.37 194.96 417.88 264.12 377.95"/><polygon class="cls-14" points="368.21 397.71 364.38 -588.65 157.7 -588.65 160.01 397.7 264.11 457.81 368.21 397.71"/><circle class="cls-15" cx="277.97" cy="331.49" r="8.03"/><path class="cls-12" d="M181.64,267.79a5,5,0,1,1-5-5A5,5,0,0,1,181.64,267.79Z"/><path class="cls-16" d="M216.37,211.62a5.06,5.06,0,1,1-5.06-5.05A5.06,5.06,0,0,1,216.37,211.62Z"/><path class="cls-16" d="M362.86,193.21a3.2,3.2,0,1,1-3.2-3.2A3.2,3.2,0,0,1,362.86,193.21Z"/><path class="cls-16" d="M354.58,176.51a6.7,6.7,0,1,1-6.7-6.7A6.7,6.7,0,0,1,354.58,176.51Z"/><path class="cls-16" d="M200.8,201.51a3.25,3.25,0,1,1-3.25-3.25A3.24,3.24,0,0,1,200.8,201.51Z"/><path class="cls-12" d="M196.84,358.47a5,5,0,1,1-5-5A5,5,0,0,1,196.84,358.47Z"/><circle class="cls-16" cx="226.51" cy="302.31" r="5.06"/><path class="cls-16" d="M216,292.19a3.24,3.24,0,1,1-3.24-3.24A3.24,3.24,0,0,1,216,292.19Z"/><path class="cls-15" d="M259.66,251.47a7.13,7.13,0,1,0,5.14-8.67A7.13,7.13,0,0,0,259.66,251.47Z"/><path class="cls-12" d="M335.45,173.72a4.41,4.41,0,1,0,3.18-5.36A4.41,4.41,0,0,0,335.45,173.72Z"/><path class="cls-16" d="M293.23,133a4.49,4.49,0,1,0,3.24-5.46A4.49,4.49,0,0,0,293.23,133Z"/><path class="cls-16" d="M163.14,149.38a2.84,2.84,0,1,0,2.05-3.46A2.85,2.85,0,0,0,163.14,149.38Z"/><path class="cls-16" d="M166.59,133.19a6,6,0,1,0,4.3-7.24A6,6,0,0,0,166.59,133.19Z"/><path class="cls-16" d="M304.4,120.91a2.88,2.88,0,1,0,2.08-3.51A2.87,2.87,0,0,0,304.4,120.91Z"/><path class="cls-16" d="M339,361.55a3.2,3.2,0,1,1,.37-4.51A3.2,3.2,0,0,1,339,361.55Z"/><path class="cls-16" d="M346.35,344.44a6.7,6.7,0,1,1,.78-9.45A6.69,6.69,0,0,1,346.35,344.44Z"/><path class="cls-12" d="M336.1,328a4.41,4.41,0,1,0,6.15-1A4.42,4.42,0,0,0,336.1,328Z"/><path class="cls-16" d="M339.82,269.52a4.49,4.49,0,1,0,6.26-1.06A4.5,4.5,0,0,0,339.82,269.52Z"/><path class="cls-16" d="M356.29,270.2a2.88,2.88,0,1,0,4-.68A2.89,2.89,0,0,0,356.29,270.2Z"/><g class="cls-17"><path class="cls-13" d="M240.26,412.89a7.13,7.13,0,1,0,5.14-8.67A7.13,7.13,0,0,0,240.26,412.89Z"/><path class="cls-13" d="M260.88,374.33a5,5,0,1,0,3.64-6.13A5,5,0,0,0,260.88,374.33Z"/></g><circle class="cls-15" cx="277.97" cy="240.22" r="8.03"/><path class="cls-12" d="M181.64,176.51a5,5,0,1,1-5-5A5,5,0,0,1,181.64,176.51Z"/><path class="cls-16" d="M216.37,120.35a5.06,5.06,0,1,1-5.06-5.06A5.07,5.07,0,0,1,216.37,120.35Z"/><path class="cls-16" d="M362.86,101.93a3.2,3.2,0,1,1-3.2-3.2A3.2,3.2,0,0,1,362.86,101.93Z"/><path class="cls-16" d="M354.58,85.23a6.7,6.7,0,1,1-6.7-6.7A6.7,6.7,0,0,1,354.58,85.23Z"/><path class="cls-16" d="M200.8,110.23a3.25,3.25,0,1,1-3.25-3.24A3.25,3.25,0,0,1,200.8,110.23Z"/><path class="cls-12" d="M196.84,267.19a5,5,0,1,1-5-5A5,5,0,0,1,196.84,267.19Z"/><circle class="cls-16" cx="226.51" cy="211.03" r="5.06"/><path class="cls-16" d="M216,200.91a3.24,3.24,0,1,1-3.24-3.24A3.25,3.25,0,0,1,216,200.91Z"/><path class="cls-15" d="M259.66,160.19a7.13,7.13,0,1,0,5.14-8.67A7.11,7.11,0,0,0,259.66,160.19Z"/><path class="cls-12" d="M335.45,82.44a4.41,4.41,0,1,0,3.18-5.35A4.41,4.41,0,0,0,335.45,82.44Z"/><path class="cls-16" d="M293.23,41.76a4.49,4.49,0,1,0,3.24-5.47A4.49,4.49,0,0,0,293.23,41.76Z"/><path class="cls-16" d="M163.14,58.1a2.84,2.84,0,1,0,2.05-3.45A2.85,2.85,0,0,0,163.14,58.1Z"/><path class="cls-16" d="M166.59,41.92a6,6,0,1,0,4.3-7.24A6,6,0,0,0,166.59,41.92Z"/><path class="cls-16" d="M304.4,29.63a2.88,2.88,0,1,0,2.08-3.5A2.88,2.88,0,0,0,304.4,29.63Z"/><path class="cls-16" d="M339,270.27a3.2,3.2,0,1,1,.37-4.51A3.19,3.19,0,0,1,339,270.27Z"/><path class="cls-16" d="M346.35,253.16a6.7,6.7,0,1,1,.78-9.44A6.69,6.69,0,0,1,346.35,253.16Z"/><path class="cls-12" d="M336.1,236.77a4.41,4.41,0,1,0,6.15-1.05A4.41,4.41,0,0,0,336.1,236.77Z"/><path class="cls-16" d="M339.82,178.25a4.49,4.49,0,1,0,6.26-1.07A4.49,4.49,0,0,0,339.82,178.25Z"/><path class="cls-16" d="M356.29,178.92a2.88,2.88,0,1,0,4-.68A2.89,2.89,0,0,0,356.29,178.92Z"/><g class="cls-17"><path class="cls-13" d="M240.26,321.62A7.13,7.13,0,1,0,245.4,313,7.13,7.13,0,0,0,240.26,321.62Z"/><path class="cls-13" d="M260.88,283.05a5,5,0,1,0,3.64-6.13A5,5,0,0,0,260.88,283.05Z"/></g><polygon class="cls-18" points="435.66 397.84 435.66 426.39 263.78 525.62 263.78 497.08 435.66 397.84"/><polygon class="cls-7" points="91.9 397.84 91.9 426.39 263.78 525.62 263.78 497.08 91.9 397.84"/><polygon class="cls-19" points="91.9 397.84 91.9 426.39 263.78 525.62 263.78 497.08 91.9 397.84"/><polygon class="cls-12" points="263.78 525.62 263.78 557.04 91.9 457.81 91.9 426.39 263.78 525.62"/><polygon class="cls-12" points="131.08 449 131.08 457.81 263.78 534.42 396.49 457.81 396.49 449.01 263.78 525.62 131.08 449"/><polygon class="cls-12" points="263.78 525.62 263.78 534.42 131.08 457.81 131.08 449 263.78 525.62"/><polygon class="cls-20" points="91.9 426.39 91.9 457.81 263.78 557.04 435.66 457.81 435.66 426.39 263.78 525.62 91.9 426.39"/><polygon class="cls-21" points="95.96 397.84 265.81 299.78 263.78 298.61 91.9 397.84 263.78 497.08 265.81 495.9 95.96 397.84"/><path class="cls-22" d="M421.29,219V184.5c-.8-11.76-5.45-23-13.26-33.21v34.5c7.81,10.24,12.46,21.45,13.26,33.2ZM404,180.94V146.45a98.49,98.49,0,0,0-9.13-9V172a98.41,98.41,0,0,1,9.13,9Zm-14.78-13.59v-34.5a133.86,133.86,0,0,0-11.64-7.91v34.49a131.72,131.72,0,0,1,11.64,7.92Zm-19.46-2.17V110.3c31.78,16.86,51.62,41,51.62,67.64v54.88c0-26.67-19.84-50.78-51.62-67.64Z"/><path class="cls-23" d="M311.69,138.83v-9.91q-3.65-.69-7.35-1.29v9.91q3.71.6,7.35,1.29Zm-13.23-12.08V118q-3.76-.53-7.6-.94v8.77q3.84.42,7.6.94Zm26,5v-12c-2.32-.57-4.68-1.12-7.06-1.63v12c2.38.51,4.74,1.06,7.06,1.63Zm-39.62-6.49V107.57q-3.89-.33-7.83-.56v17.65q3.94.23,7.83.56Zm-28.4-1V106.57q-4,.06-7.94.24v17.65c2.63-.12,5.28-.19,7.94-.23Zm-14.11.56v-22.2q-3.9.25-7.75.62v22.2c2.57-.24,5.15-.44,7.75-.62Zm28.44-.42V99q-3.57-.12-7.17-.16h-.85v25.4h.85c2.4,0,4.79.08,7.17.16Zm-42.2,1.68V94.28q-3.79.43-7.53,1V127q3.73-.56,7.53-1ZM204.81,91.56a270.48,270.48,0,0,1,58.74-5.73c27.58.28,53.42,4.53,75.88,11.78v54.88c-22.46-7.25-48.3-11.5-75.88-11.78a270.48,270.48,0,0,0-58.74,5.73V91.56Z"/><path class="cls-24" d="M111.44,166V155a66.9,66.9,0,0,0-7.8,14.72V202.4a67.19,67.19,0,0,1,7.8-14.73v-11c1-1.37,2-2.73,3-4.06v6a90.33,90.33,0,0,1,6.6-7.41v-6c10.35-10.41,24.14-19.55,40.46-26.91V127.62c-2.9,1.31-5.73,2.68-8.46,4.1q-2.06,1.07-4.05,2.17a125.67,125.67,0,0,0-27,19.72l-.93.93v-6a88.6,88.6,0,0,0-6.6,7.4v6q-1.59,2-3,4.06Zm-9.93-.35c6.24-26.78,32.47-49.84,69.69-64.2v54.88c-37.22,14.36-63.45,37.42-69.69,64.2V165.65Z"/><path class="cls-25" d="M121.06,154.54l.93-.93v10.63a118.88,118.88,0,0,1,19.33-15.16q3.7-2.36,7.69-4.57V133.89q2-1.11,4.05-2.17v10.62c2.73-1.42,5.56-2.78,8.46-4.09v0c-16.32,7.36-30.11,16.5-40.46,26.91V154.54ZM111.44,166q1.43-2.06,3-4.06v10.63c-1.06,1.33-2.07,2.69-3,4.06V166Z"/><path class="cls-26" d="M153.06,131.72c2.73-1.42,5.56-2.79,8.46-4.1v10.63c-2.9,1.31-5.73,2.67-8.46,4.09V131.72Z"/><path class="cls-26" d="M122,153.61a118.84,118.84,0,0,1,19.33-15.15v10.62A118.88,118.88,0,0,0,122,164.24V153.61Z"/><path class="cls-27" d="M141.32,138.46q3.7-2.37,7.69-4.57v10.62q-4,2.22-7.69,4.57V138.46Z"/><path class="cls-25" d="M103.64,169.67a66.9,66.9,0,0,1,7.8-14.72V166a66.9,66.9,0,0,0-7.8,14.72v10.63a66.9,66.9,0,0,1,7.8-14.72v11a67.19,67.19,0,0,0-7.8,14.73V169.67Z"/><path class="cls-25" d="M103.64,180.72a66.9,66.9,0,0,1,7.8-14.72v10.63a66.9,66.9,0,0,0-7.8,14.72V180.72Z"/><path class="cls-25" d="M114.46,172.57a90.33,90.33,0,0,1,6.6-7.41v6a90.33,90.33,0,0,0-6.6,7.41v-6Zm0-16.59a88.6,88.6,0,0,1,6.6-7.4v6a88.6,88.6,0,0,0-6.6,7.4v-6Z"/><path class="cls-25" d="M114.46,161.94a88.6,88.6,0,0,1,6.6-7.4v10.62a90.33,90.33,0,0,0-6.6,7.41V161.94Z"/><path class="cls-27" d="M408,151.29c7.81,10.25,12.46,21.45,13.26,33.21V219c-.8-11.75-5.45-23-13.26-33.2v-34.5Z"/><path class="cls-25" d="M394.91,137.45a98.49,98.49,0,0,1,9.13,9v34.49a98.41,98.41,0,0,0-9.13-9v-34.5Z"/><path class="cls-27" d="M377.62,124.94a133.86,133.86,0,0,1,11.64,7.91v34.5a131.72,131.72,0,0,0-11.64-7.92V124.94Z"/><path class="cls-27" d="M317.35,118.12c2.38.51,4.74,1.06,7.06,1.63v12c-2.32-.57-4.68-1.12-7.06-1.63v-12Z"/><path class="cls-27" d="M304.34,127.63q3.71.6,7.35,1.29v9.91q-3.65-.69-7.35-1.29v-9.91Z"/><path class="cls-27" d="M290.86,117q3.84.42,7.6.94v8.77q-3.76-.52-7.6-.94V117Z"/><path class="cls-27" d="M277,107q3.94.22,7.83.56v17.65q-3.89-.33-7.83-.56V107Z"/><path class="cls-27" d="M262.7,98.8h.85q3.6,0,7.17.16v25.4c-2.38-.08-4.77-.14-7.17-.16h-.85V98.8Z"/><path class="cls-25" d="M248.45,106.81q3.95-.18,7.94-.24v17.66c-2.66,0-5.31.11-7.94.23V106.81Z"/><path class="cls-27" d="M234.53,103.21q3.85-.36,7.75-.62v22.2c-2.6.18-5.18.38-7.75.62v-22.2Z"/><path class="cls-25" d="M221,95.27q3.73-.55,7.53-1v31.77q-3.79.44-7.53,1V95.27Z"/><path class="cls-28" d="M241.1,402.48s-2.43.31-2.89,1.25-.7,9-.66,10.06c0,0,6.41,6.29,12.39,9.36s11.16,4.41,13.48,2.39.88-4.34-4.05-8.34-9.68-14.73-9.68-14.72Z"/><path class="cls-28" d="M272.58,389.82s-2.43.31-2.89,1.24-.7,9-.65,10.07c0,0,6.4,6.29,12.38,9.36s11.16,4.41,13.48,2.39.88-4.34-4-8.35-9.68-14.72-9.68-14.71Z"/><path class="cls-29" d="M290,273.49s-.18,3.2-.31,3.8-2.86,4.67-2.92,6a3.56,3.56,0,0,0,1.4,2.45,18.55,18.55,0,0,0,.35,3.59c.29.61,3,.22,3.32.37s2,1.27,3.22.78,4.39-1.5,4.8-1.92.72-10.36-.75-17.95c-.49-2.55-2.76-61.49-4.12-61.05C292.25,210.44,290,273.49,290,273.49Z"/><path class="cls-30" d="M298.55,216.58c-1.21-5.83-2.69-12.6-4-17.26-2.68-9.82-4.63-17.45-10.36-17.61l-2,33.3s.61,5,1.67,10.72A105.17,105.17,0,0,0,298.55,216.58Z"/><path class="cls-28" d="M237.42,279.49,237,404.92a15.38,15.38,0,0,0,15-.33s14.2-108.35,14.44-110.93c.23-2.37,2,98.93,2,98.93s8.8,5,15.49-1.81l7.9-120Z"/><path class="cls-30" d="M249.92,185.76A69.58,69.58,0,0,0,232.26,196l5.16,83.48s10.8,7.9,32.87,2.12c18-4.7,22.71-12.27,22.71-12.27s1.64-41-.05-58.37a77.28,77.28,0,0,0-8.73-29.26c-3.92-1.19-12.58-.69-12.58-.69Z"/><path class="cls-28" d="M273.16,134.89c-3.84-1.38-7.06-1.37-11.26-.93-7.88.84-14.52,4.67-15.84,13.13-1,6.37,1.38,12.88,3.9,18.62,3.34,7.61,5.66,4.84,5.66,4.84L275,162.76c1.78-.72,4.47-1.25,5.95-2.55,2.36-2.07,1.59-5.61,2-8.38.57-3.71,1.15-6.85-.9-10.3a15.43,15.43,0,0,0-7.22-6C274.24,135.3,273.69,135.08,273.16,134.89Z"/><path class="cls-29" d="M253.55,181.72l-.5-16.71s-4.2-.32-3.48-4.92,5-1.58,5.79-.23c0,0,1-15.86,9.37-17.38s16.54.28,16.76,4.37.49,18.39,0,23.7-4.65,7.49-12.32,7.28l.52,8.6s-3.85,2.82-14.6.2Z"/><path class="cls-30" d="M269.28,179.6a5.81,5.81,0,0,1,2,.3c.57.32,3.65,3.4,3.72,6.79a24.26,24.26,0,0,1-1.3,7.26l-7-6.27-4.38,8.45a17.76,17.76,0,0,1-6.48-3.35,24.3,24.3,0,0,1-6-7c1.2-3.06,2-4.88,2-4.88.28-.7,1.61-1,1.61-1s7.41,6.72,13.23,7C266.78,186.91,268.85,185.94,269.28,179.6Z"/><path class="cls-29" d="M237.37,285.19s.82,3.09,1.07,3.66,3.74,4,4.07,5.29a3.59,3.59,0,0,1-.88,2.69,18.56,18.56,0,0,1,.39,3.58c-.16.65-2.92.82-3.18,1s-1.76,1.66-3,1.41-4.61-.58-5.09-.9-2.8-10-2.89-17.74c0-2.9,1-60.82,1-60.82.8.2,12.63,4.73,12.63,4.73Z"/><path class="cls-30" d="M242.17,232.32c.16-7.34.45-15.31.35-17.24-.32-6.57-.31-25-10.26-19.07-4,2.41-4.93,20.31-5.76,32.38C231,231.49,238.08,232.32,242.17,232.32Z"/><path class="cls-28" d="M282,149a5.93,5.93,0,0,0-.45-5.86,11.1,11.1,0,0,0-4.71-3.85c-4.6-2.23-17.46-4.65-17.82,3.33-.18,4,3.26,10.6,8,9.77,2-.36,3.24-2.27,5.49-1.63,1.12.32,4.17,3.18,4.3.12A4.18,4.18,0,0,0,282,149Z"/><path class="cls-28" d="M252.68,156.6a12.21,12.21,0,0,1,4.29,8l1.6,0c-.08-2.12.08-4,0-6.12a14.6,14.6,0,0,0,3.4-12.53c-.38-1.8-1.46-3.79-3.29-4s-3.26,1.63-4,3.31A21.08,21.08,0,0,0,252.68,156.6Z"/><path class="cls-31" d="M151.1,292.08V282.8q2.78,1.5,5.69,2.91V295q-2.91-1.42-5.69-2.91Zm-18.27-11.59V263.4q2.32,1.74,4.77,3.42v17.09q-2.44-1.68-4.77-3.42Zm8.71,6V266.35c1.7,1.08,3.46,2.14,5.25,3.18v20.15c-1.79-1-3.55-2.09-5.25-3.18Zm-23.35-19.24V244.89c1.18,1.31,2.42,2.59,3.71,3.86v22.36q-1.94-1.91-3.71-3.85Zm6.84,6.8V249.84q2.06,1.84,4.26,3.65v24.22q-2.2-1.79-4.26-3.65Zm-17.45-21.43V226.37c.79,1.42,1.63,2.83,2.54,4.22v26.26c-.91-1.39-1.75-2.8-2.54-4.22Zm4.77,7.47V225.93q1.49,2.06,3.14,4v34.17q-1.65-2-3.14-4Zm-8.42-15.22V206.29c.58,1.47,1.21,2.93,1.91,4.38v38.59c-.7-1.45-1.33-2.91-1.91-4.38Zm64.58,8.56c-36.72-14.79-62.08-38.15-67.4-64.92V243.4c5.32,26.77,30.68,50.13,67.4,64.92V253.44Z"/><path class="cls-32" d="M276.17,314.41V302q9.46-.52,18.61-1.66v12.38q-9.13,1.14-18.61,1.66Zm-29.69,0V291.9q5.67.28,11.46.35,4,0,7.87,0v22.56q-3.92.08-7.87,0c-3.86,0-7.68-.15-11.46-.35Zm-28.62-3V277q9,1.42,18.36,2.25v34.49q-9.37-.81-18.36-2.25Zm86.7-.14V274.93q8.91-1.46,17.39-3.46V307.9q-8.47,2-17.39,3.46Zm32-52.12c-23.39,7.2-50.22,11.16-78.65,10.88a268,268,0,0,1-56.13-6.38v54.88A268,268,0,0,0,257.94,325c28.43.28,55.26-3.68,78.65-10.88V259.24Z"/><path class="cls-33" d="M376,274.93V264.31c25.61-15.12,42.29-35.29,45-57.72v10.63c-2.72,22.43-19.4,42.59-45,57.71Zm45.38-40.46V179.58c-.82,26.85-21.56,50.81-54,67.33v54.88c32.45-16.52,53.19-40.48,54-67.32Z"/><path class="cls-27" d="M421,206.59c-2.72,22.43-19.4,42.6-45,57.72v10.62c25.61-15.12,42.29-35.28,45-57.71V206.59Z"/><path class="cls-25" d="M236.22,279.26q-9.37-.83-18.36-2.25V311.5q9,1.42,18.36,2.25V279.26Z"/><path class="cls-25" d="M294.78,300.37q-9.13,1.14-18.61,1.66v12.38q9.46-.53,18.61-1.66V300.37Z"/><path class="cls-25" d="M322,271.47q-8.47,2-17.39,3.46v36.43q8.91-1.46,17.39-3.46V271.47Z"/><path class="cls-27" d="M265.81,292.22q-3.92.07-7.87,0-5.79-.06-11.46-.35v22.56c3.78.2,7.6.31,11.46.35q4,0,7.87,0V292.22Z"/><path class="cls-25" d="M105.84,210.67c-.7-1.45-1.33-2.91-1.91-4.38v38.59c.58,1.47,1.21,2.93,1.91,4.38V210.67Z"/><path class="cls-25" d="M110.12,230.59c-.91-1.39-1.75-2.8-2.54-4.22v26.26c.79,1.42,1.63,2.83,2.54,4.22V230.59Z"/><path class="cls-27" d="M115.49,230q-1.65-2-3.14-4V260.1q1.49,2.06,3.14,4V230Z"/><path class="cls-25" d="M121.9,248.75c-1.29-1.27-2.53-2.55-3.71-3.86v22.37q1.77,2,3.71,3.85V248.75Z"/><path class="cls-27" d="M129.29,253.49q-2.2-1.8-4.26-3.65v24.22q2.06,1.86,4.26,3.65V253.49Z"/><path class="cls-27" d="M137.6,266.82q-2.44-1.68-4.77-3.42v17.09q2.32,1.74,4.77,3.42V266.82Z"/><path class="cls-27" d="M146.79,269.53c-1.79-1-3.55-2.1-5.25-3.18V286.5c1.7,1.09,3.46,2.14,5.25,3.18V269.53Z"/><path class="cls-27" d="M156.79,285.71q-2.91-1.41-5.69-2.91v9.28q2.78,1.49,5.69,2.91v-9.28Z"/></g></g></g></svg>