<svg xmlns="http://www.w3.org/2000/svg" xmlns:xlink="http://www.w3.org/1999/xlink" viewBox="0 0 509.15 570.68"><defs><style>.cls-1{fill:none;}.cls-2{fill:#00b3f4;}.cls-3{fill:#0a2030;}.cls-4{isolation:isolate;}.cls-5{clip-path:url(#clip-path);}.cls-6{fill:#16284c;}.cls-7{fill:#0b3391;}.cls-8{fill:url(#Áåçûìÿííûé_ãðàäèåíò_4);}.cls-10,.cls-12,.cls-19,.cls-29,.cls-47,.cls-51,.cls-52,.cls-75,.cls-81,.cls-82,.cls-83,.cls-89,.cls-9,.cls-90{opacity:0.7;}.cls-10,.cls-12,.cls-17,.cls-19,.cls-29,.cls-47,.cls-51,.cls-75,.cls-81,.cls-82,.cls-83,.cls-89,.cls-9,.cls-90{mix-blend-mode:lighten;}.cls-9{fill:url(#Áåçûìÿííûé_ãðàäèåíò_2);}.cls-10{fill:url(#Áåçûìÿííûé_ãðàäèåíò_3);}.cls-11{fill:url(#Áåçûìÿííûé_ãðàäèåíò_4-2);}.cls-12{fill:url(#Áåçûìÿííûé_ãðàäèåíò_2-2);}.cls-13,.cls-46,.cls-48,.cls-49{fill:#42e8e0;}.cls-13,.cls-74{opacity:0.3;}.cls-14,.cls-15,.cls-16,.cls-37{fill:#5cfff3;}.cls-14,.cls-49{opacity:0.2;}.cls-15{opacity:0.15;}.cls-16{opacity:0.1;}.cls-17{fill:url(#Áåçûìÿííûé_ãðàäèåíò_3-2);}.cls-18{fill:#1a9bdb;opacity:0.4;}.cls-18,.cls-41{mix-blend-mode:multiply;}.cls-19{fill:url(#Áåçûìÿííûé_ãðàäèåíò_3-3);}.cls-20{fill:#162a56;}.cls-21{fill:url(#linear-gradient);}.cls-22{fill:#2859cb;}.cls-23{fill:#adc8ff;}.cls-24{fill:#193164;}.cls-25{fill:url(#Áåçûìÿííûé_ãðàäèåíò_28);}.cls-26{fill:#91afff;}.cls-27{fill:url(#Áåçûìÿííûé_ãðàäèåíò_28-2);}.cls-28{fill:url(#Áåçûìÿííûé_ãðàäèåíò_29);}.cls-30{fill:url(#linear-gradient-2);}.cls-31{opacity:0.03;}.cls-32{clip-path:url(#clip-path-2);}.cls-33{fill:url(#Áåçûìÿííûé_ãðàäèåíò_28-3);}.cls-34{fill:url(#Áåçûìÿííûé_ãðàäèåíò_28-4);}.cls-35{fill:#f0a150;}.cls-36{fill:#fdf7fb;}.cls-37{opacity:0.5;}.cls-38{mix-blend-mode:color-dodge;fill:url(#radial-gradient);}.cls-39{fill:#fff;}.cls-40{fill:#e6e7e8;}.cls-42{fill:url(#radial-gradient-2);}.cls-43{fill:#102465;}.cls-44{fill:#ffc6a0;}.cls-45{fill:#103450;}.cls-47{fill:url(#linear-gradient-3);}.cls-48,.cls-50{opacity:0.9;}.cls-51{fill:url(#linear-gradient-4);}.cls-53{opacity:0;}.cls-54{opacity:0.01;}.cls-55{opacity:0.03;}.cls-56{opacity:0.04;}.cls-57{opacity:0.06;}.cls-58{opacity:0.07;}.cls-59{opacity:0.09;}.cls-60{opacity:0.1;}.cls-61{opacity:0.11;}.cls-62{opacity:0.13;}.cls-63{opacity:0.14;}.cls-64{opacity:0.16;}.cls-65{opacity:0.17;}.cls-66{opacity:0.19;}.cls-67{opacity:0.2;}.cls-68{opacity:0.21;}.cls-69{opacity:0.23;}.cls-70{opacity:0.24;}.cls-71{opacity:0.26;}.cls-72{opacity:0.27;}.cls-73{opacity:0.29;}.cls-75{fill:url(#linear-gradient-5);}.cls-76{fill:url(#linear-gradient-6);}.cls-77{clip-path:url(#clip-path-3);}.cls-78{fill:url(#linear-gradient-7);}.cls-79{clip-path:url(#clip-path-4);}.cls-80{fill:url(#linear-gradient-8);}.cls-81{fill:url(#linear-gradient-9);}.cls-82{fill:url(#linear-gradient-10);}.cls-83{fill:url(#linear-gradient-11);}.cls-84{fill:url(#linear-gradient-12);}.cls-85{clip-path:url(#clip-path-5);}.cls-86{fill:url(#linear-gradient-13);}.cls-87{clip-path:url(#clip-path-6);}.cls-88{fill:url(#linear-gradient-14);}.cls-89{fill:url(#linear-gradient-15);}.cls-90{fill:url(#linear-gradient-16);}</style><clipPath id="clip-path"><rect id="Rectangle_14" data-name="Rectangle 14" class="cls-1" width="509.15" height="570.68" rx="15"/></clipPath><linearGradient id="Áåçûìÿííûé_ãðàäèåíò_4" x1="161.6" y1="881.04" x2="557.24" y2="881.04" gradientUnits="userSpaceOnUse"><stop offset="0" stop-color="#11147c"/><stop offset="1" stop-color="#180d5b"/></linearGradient><linearGradient id="Áåçûìÿííûé_ãðàäèåíò_2" x1="402.82" y1="1044.52" x2="-216.51" y2="692.46" gradientUnits="userSpaceOnUse"><stop offset="0" stop-color="#180d5b"/><stop offset="0.14" stop-color="#141363"/><stop offset="0.28" stop-color="#0d1c72"/><stop offset="0.37" stop-color="#112d7b"/><stop offset="0.54" stop-color="#1d5a93"/><stop offset="0.78" stop-color="#2fa0b9"/><stop offset="1" stop-color="#42e8e0"/></linearGradient><linearGradient id="Áåçûìÿííûé_ãðàäèåíò_3" x1="438.12" y1="593.46" x2="-26.06" y2="291.96" gradientUnits="userSpaceOnUse"><stop offset="0" stop-color="#180d5b"/><stop offset="0.09" stop-color="#1a1660"/><stop offset="0.25" stop-color="#1e2d6e"/><stop offset="0.44" stop-color="#255385"/><stop offset="0.66" stop-color="#2f87a5"/><stop offset="0.9" stop-color="#3ccace"/><stop offset="1" stop-color="#42e8e0"/></linearGradient><linearGradient id="Áåçûìÿííûé_ãðàäèåíò_4-2" x1="161.6" y1="576.48" x2="557.24" y2="576.48" xlink:href="#Áåçûìÿííûé_ãðàäèåíò_4"/><linearGradient id="Áåçûìÿííûé_ãðàäèåíò_2-2" x1="236.45" y1="644.83" x2="-87.83" y2="462" xlink:href="#Áåçûìÿííûé_ãðàäèåíò_2"/><linearGradient id="Áåçûìÿííûé_ãðàäèåíò_3-2" x1="345.83" y1="494.43" x2="-27.35" y2="410.16" xlink:href="#Áåçûìÿííûé_ãðàäèåíò_3"/><linearGradient id="Áåçûìÿííûé_ãðàäèåíò_3-3" x1="1955.87" y1="470.85" x2="2269.12" y2="470.85" gradientTransform="matrix(-1, 0, 0, 1, 2248.41, 0)" xlink:href="#Áåçûìÿííûé_ãðàäèåíò_3"/><linearGradient id="linear-gradient" x1="1955.87" y1="470.85" x2="2269.12" y2="470.85" gradientTransform="matrix(-1, 0, 0, 1, 2248.41, 0)" gradientUnits="userSpaceOnUse"><stop offset="0" stop-color="#cdeffb"/><stop offset="1" stop-color="#89daf4"/></linearGradient><linearGradient id="Áåçûìÿííûé_ãðàäèåíò_28" x1="2005.85" y1="491.94" x2="2086.03" y2="491.94" gradientTransform="matrix(-1, 0, 0, 1, 2248.41, 0)" gradientUnits="userSpaceOnUse"><stop offset="0" stop-color="#c0d6ff"/><stop offset="0.3" stop-color="#c5dbff"/><stop offset="0.65" stop-color="#d3e9ff"/><stop offset="1" stop-color="#e9ffff"/></linearGradient><linearGradient id="Áåçûìÿííûé_ãðàäèåíò_28-2" x1="1816.78" y1="362.89" x2="2043.23" y2="362.89" xlink:href="#Áåçûìÿííûé_ãðàäèåíò_28"/><linearGradient id="Áåçûìÿííûé_ãðàäèåíò_29" x1="1816.78" y1="422.48" x2="1865.68" y2="422.48" gradientTransform="matrix(-1, 0, 0, 1, 2248.41, 0)" gradientUnits="userSpaceOnUse"><stop offset="0" stop-color="#5778ff"/><stop offset="0.18" stop-color="#5c7dff"/><stop offset="0.39" stop-color="#6a8aff"/><stop offset="0.61" stop-color="#82a0ff"/><stop offset="0.85" stop-color="#a3beff"/><stop offset="1" stop-color="#bcd5ff"/></linearGradient><linearGradient id="linear-gradient-2" x1="4921.67" y1="363.82" x2="5134.52" y2="363.82" gradientTransform="matrix(-1, 0, 0, 1, 5343.55, 0)" gradientUnits="userSpaceOnUse"><stop offset="0" stop-color="#180d5b"/><stop offset="0.11" stop-color="#1a1560"/><stop offset="0.27" stop-color="#1e2d6e"/><stop offset="0.48" stop-color="#255285"/><stop offset="0.53" stop-color="#275c8b"/><stop offset="0.61" stop-color="#28608d"/><stop offset="0.69" stop-color="#2a6c94"/><stop offset="0.77" stop-color="#2e7fa0"/><stop offset="0.85" stop-color="#339ab1"/><stop offset="0.92" stop-color="#3abdc6"/><stop offset="1" stop-color="#42e8e0"/></linearGradient><clipPath id="clip-path-2"><polygon id="SVGID" class="cls-1" points="228.36 243.72 421.88 352.07 390.04 482.53 209.03 376.94 228.36 243.72"/></clipPath><linearGradient id="Áåçûìÿííûé_ãðàäèåíò_28-3" x1="1835.95" y1="401.38" x2="2150.39" y2="401.38" xlink:href="#Áåçûìÿííûé_ãðàäèåíò_28"/><linearGradient id="Áåçûìÿííûé_ãðàäèåíò_28-4" x1="1820.88" y1="378.23" x2="1899.39" y2="378.23" xlink:href="#Áåçûìÿííûé_ãðàäèåíò_28"/><radialGradient id="radial-gradient" cx="-10477.56" cy="773.02" r="0.24" gradientTransform="matrix(0.94, 0.14, -0.31, 0.94, 10479.65, 1217.44)" gradientUnits="userSpaceOnUse"><stop offset="0" stop-color="#fff"/><stop offset="0.07" stop-color="#d8d8d8"/><stop offset="0.16" stop-color="#a6a6a6"/><stop offset="0.26" stop-color="#797979"/><stop offset="0.37" stop-color="#545454"/><stop offset="0.47" stop-color="#353535"/><stop offset="0.59" stop-color="#1e1e1e"/><stop offset="0.7" stop-color="#0d0d0d"/><stop offset="0.84" stop-color="#030303"/><stop offset="1"/></radialGradient><radialGradient id="radial-gradient-2" cx="-10039.84" cy="343.08" r="60.55" gradientTransform="matrix(0.95, 0, -0.18, 0.98, 9980.58, 65.59)" gradientUnits="userSpaceOnUse"><stop offset="0.38" stop-color="#fff"/><stop offset="0.47" stop-color="#f4f2f9"/><stop offset="0.63" stop-color="#d8d0e8"/><stop offset="0.85" stop-color="#a9c"/><stop offset="1" stop-color="#8770b8"/></radialGradient><linearGradient id="linear-gradient-3" x1="42.48" y1="492.36" x2="42.48" y2="337.08" gradientUnits="userSpaceOnUse"><stop offset="0" stop-color="#42e8e0"/><stop offset="0.01" stop-color="#41e5dd"/><stop offset="0.28" stop-color="#32a2aa"/><stop offset="0.52" stop-color="#266e82"/><stop offset="0.73" stop-color="#1d4864"/><stop offset="0.9" stop-color="#183153"/><stop offset="1" stop-color="#16284c"/></linearGradient><linearGradient id="linear-gradient-4" x1="465.53" y1="487.51" x2="465.53" y2="332.23" xlink:href="#linear-gradient-3"/><linearGradient id="linear-gradient-5" x1="212.16" y1="143.49" x2="452.78" y2="143.49" gradientUnits="userSpaceOnUse"><stop offset="0" stop-color="#42e8e0"/><stop offset="0.1" stop-color="#3ccace"/><stop offset="0.34" stop-color="#2f87a5"/><stop offset="0.56" stop-color="#255385"/><stop offset="0.75" stop-color="#1e2d6e"/><stop offset="0.91" stop-color="#1a1660"/><stop offset="1" stop-color="#180d5b"/></linearGradient><linearGradient id="linear-gradient-6" x1="214.34" y1="62.68" x2="287.79" y2="62.68" xlink:href="#linear-gradient-5"/><clipPath id="clip-path-3"><path class="cls-2" d="M239.57,89.39l53.32-31a2,2,0,0,0,.91-1.4c1-4.66,3.31-8,6.5-9.88L247,78.12c-3.19,1.85-5.48,5.22-6.5,9.87A2,2,0,0,1,239.57,89.39Z"/></clipPath><linearGradient id="linear-gradient-7" x1="242.09" y1="57.14" x2="325.49" y2="57.14" xlink:href="#linear-gradient-5"/><clipPath id="clip-path-4"><path class="cls-3" d="M277.92,89.3l53.32-31a2.45,2.45,0,0,0,1-2.3V54.89c0-9.91,2.67-17.57,7.17-22.61a20.13,20.13,0,0,1,4.95-4.06L291,59.2a20.35,20.35,0,0,0-5,4.06c-4.5,5-7.14,12.7-7.17,22.61V87A2.45,2.45,0,0,1,277.92,89.3Z"/></clipPath><linearGradient id="linear-gradient-8" x1="205.26" y1="143.23" x2="418.33" y2="143.23" gradientUnits="userSpaceOnUse"><stop offset="0.73" stop-color="#42e8e0"/><stop offset="0.89" stop-color="#42e8e0"/></linearGradient><linearGradient id="linear-gradient-9" x1="352.38" y1="165.37" x2="476.99" y2="172.88" xlink:href="#linear-gradient-5"/><linearGradient id="linear-gradient-10" x1="288.49" y1="22.51" x2="427.68" y2="115.74" xlink:href="#linear-gradient-5"/><linearGradient id="linear-gradient-11" x1="56.58" y1="166.61" x2="225.12" y2="166.61" xlink:href="#linear-gradient-5"/><linearGradient id="linear-gradient-12" x1="58.1" y1="110" x2="109.55" y2="110" xlink:href="#linear-gradient-5"/><clipPath id="clip-path-5"><path class="cls-2" d="M75.78,128.71,113.13,107a1.45,1.45,0,0,0,.64-1,10.12,10.12,0,0,1,4.54-6.92L81,120.82a10.09,10.09,0,0,0-4.55,6.91A1.42,1.42,0,0,1,75.78,128.71Z"/></clipPath><linearGradient id="linear-gradient-13" x1="77.54" y1="106.12" x2="135.96" y2="106.12" xlink:href="#linear-gradient-5"/><clipPath id="clip-path-6"><path class="cls-3" d="M102.64,128.65,140,106.94a1.72,1.72,0,0,0,.7-1.61v-.79c0-6.94,1.87-12.3,5-15.83a14.45,14.45,0,0,1,3.47-2.85l-37.35,21.71a14.18,14.18,0,0,0-3.47,2.84c-3.15,3.53-5,8.89-5,15.84V127A1.73,1.73,0,0,1,102.64,128.65Z"/></clipPath><linearGradient id="linear-gradient-14" x1="51.74" y1="166.42" x2="200.99" y2="166.42" xlink:href="#linear-gradient-8"/><linearGradient id="linear-gradient-15" x1="154.8" y1="181.93" x2="242.08" y2="187.19" xlink:href="#linear-gradient-5"/><linearGradient id="linear-gradient-16" x1="110.04" y1="81.86" x2="207.54" y2="147.17" xlink:href="#linear-gradient-5"/></defs><g class="cls-4"><g id="Content"><g class="cls-5"><rect id="Rectangle_14-2" data-name="Rectangle 14" class="cls-6" width="509.15" height="570.68" rx="15"/><polygon class="cls-7" points="253.6 1232.81 -23.16 1073.02 253.59 456.34 530.35 1073.03 253.6 1232.81"/><polygon class="cls-7" points="253.6 689.04 -23.16 529.26 253.59 410.38 530.35 529.26 253.6 689.04"/><polygon class="cls-8" points="530.35 529.26 530.35 1073.03 253.6 1232.81 253.6 689.04 530.35 529.26"/><polygon class="cls-7" points="-23.16 529.26 -23.16 1073.02 253.6 1232.81 253.6 689.04 -23.16 529.26"/><polygon class="cls-9" points="-23.16 529.26 -23.16 1073.02 253.6 1232.81 253.6 689.04 -23.16 529.26"/><polygon class="cls-7" points="253.6 679.35 -23.16 519.57 253.59 359.79 530.35 519.57 253.6 679.35"/><polygon class="cls-7" points="253.6 633.39 -23.16 473.6 253.59 313.82 530.35 473.61 253.6 633.39"/><polygon class="cls-10" points="253.6 633.39 -23.16 473.6 253.59 313.82 530.35 473.61 253.6 633.39"/><polygon class="cls-11" points="530.35 473.61 530.35 519.57 253.6 679.35 253.6 633.39 530.35 473.61"/><polygon class="cls-7" points="-23.16 473.6 -23.16 519.57 253.6 679.35 253.6 633.39 -23.16 473.6"/><polygon class="cls-12" points="-23.16 473.6 -23.16 519.57 253.6 679.35 253.6 633.39 -23.16 473.6"/><polygon class="cls-13" points="253.6 679.35 253.6 689.04 -23.16 529.26 -23.16 519.57 253.6 679.35"/><polygon class="cls-14" points="-23.16 519.57 -23.16 529.26 253.6 689.04 530.35 529.26 530.35 519.57 253.6 679.35 -23.16 519.57"/><polygon class="cls-15" points="-23.16 540.23 -23.16 549.92 253.6 709.7 530.35 549.92 530.35 540.23 253.6 700.01 -23.16 540.23"/><polygon class="cls-16" points="-23.16 560.88 -23.16 570.57 253.6 730.36 530.35 570.58 530.35 560.89 253.6 720.67 -23.16 560.88"/><polygon class="cls-17" points="-16.62 473.6 256.86 315.71 253.59 313.82 -23.16 473.6 253.6 633.39 256.87 631.5 -16.62 473.6"/><path class="cls-18" d="M82.11,459.09l10.47,5.47,105-60.62a7.62,7.62,0,0,1,6.86.28L385.56,508.79c1.73-1,9.64-4.77,9.64-4.77l-3.84,10h0a2.27,2.27,0,0,1-1.07,1.19L279.68,579a7.65,7.65,0,0,1-6.86-.29l-185.33-107a3.3,3.3,0,0,1-1.56-1.66h0Z"/><path class="cls-19" d="M86.27,450.62l190,109.67a7.82,7.82,0,0,0,7,.29l113.34-65.44c1.8-1,1.58-2.86-.5-4.06L206.14,381.42a7.8,7.8,0,0,0-7-.29L85.77,446.57C84,447.61,84.2,449.42,86.27,450.62Z"/><path class="cls-20" d="M84.66,448.9l10.47,5.47,105-60.63A7.6,7.6,0,0,1,207,394L388.11,498.59c1.73-1,9.63-4.77,9.63-4.77l-3.83,10h0a2.27,2.27,0,0,1-1.07,1.19l-110.6,63.85a7.6,7.6,0,0,1-6.85-.28L90,461.55a3.3,3.3,0,0,1-1.55-1.65h0Z"/><path class="cls-21" d="M86.27,450.62l190,109.67a7.82,7.82,0,0,0,7,.29l113.34-65.44c1.8-1,1.58-2.86-.5-4.06L206.14,381.42a7.8,7.8,0,0,0-7-.29L85.77,446.57C84,447.61,84.2,449.42,86.27,450.62Z"/><path class="cls-22" d="M338,525.86v-2.09c0-.19-.12-.29-.27-.2l-7.35,4.24a.67.67,0,0,0-.26.51v2.09c0,.19.12.29.26.2l7.35-4.24A.65.65,0,0,0,338,525.86Z"/><path class="cls-22" d="M327,532.2v-2.08c0-.2-.12-.29-.27-.21l-7.34,4.24a.66.66,0,0,0-.27.52v2.08c0,.2.12.29.27.2l7.34-4.24A.62.62,0,0,0,327,532.2Z"/><path class="cls-23" d="M367,489,209.2,397.88a3.39,3.39,0,0,0-3.4,0L149.59,430.4a1.21,1.21,0,0,0,0,2.1l157.77,91.09a3.44,3.44,0,0,0,3.4,0L367,491.11A1.21,1.21,0,0,0,367,489Z"/><path class="cls-24" d="M203.22,405.72c-.41-.24-.41-.63,0-.86l6.79-3.93a1.63,1.63,0,0,1,1.49,0l6.84,3.93a.46.46,0,0,1,0,.86l-6.8,3.93a1.69,1.69,0,0,1-1.49,0Zm16.66,9.57a1.63,1.63,0,0,0,1.49,0l6.79-3.93a.45.45,0,0,0,0-.86l-6.84-3.93a1.7,1.7,0,0,0-1.49,0L213,410.5a.45.45,0,0,0,0,.86Zm9.83,5.65a1.63,1.63,0,0,0,1.49,0L238,417a.45.45,0,0,0,0-.86l-6.82-3.92a1.66,1.66,0,0,0-1.49,0l-6.79,3.93c-.41.24-.42.62,0,.86Zm-39.18,0a1.63,1.63,0,0,0,1.49,0l6.79-3.93a.45.45,0,0,0,0-.86L192,412.22a1.7,1.7,0,0,0-1.49,0l-6.79,3.93a.45.45,0,0,0,0,.86Zm27.28,3.57,6.79-3.93c.41-.24.41-.63,0-.87l-6.82-3.92a1.6,1.6,0,0,0-1.49,0l-6.79,3.93c-.41.23-.42.61,0,.86l6.83,3.92A1.68,1.68,0,0,0,217.81,424.51Zm-24.3-2.71c-.4.23-.4.62,0,.86l6.84,3.93a1.69,1.69,0,0,0,1.49,0l6.79-3.93a.46.46,0,0,0,0-.86l-6.83-3.93a1.63,1.63,0,0,0-1.49,0Zm55.86,10.44a1.63,1.63,0,0,0,1.49,0l6.79-3.93a.45.45,0,0,0,0-.86l-6.84-3.92a1.63,1.63,0,0,0-1.49,0l-6.79,3.92a.46.46,0,0,0,0,.86Zm-11.91,3.56,6.79-3.93a.45.45,0,0,0,0-.86l-6.84-3.93a1.7,1.7,0,0,0-1.49,0L229.13,431a.45.45,0,0,0,0,.86L236,435.8A1.63,1.63,0,0,0,237.46,435.8Zm21.74,2.09a1.63,1.63,0,0,0,1.49,0l6.79-3.93c.41-.23.4-.62,0-.86l-6.84-3.93a1.69,1.69,0,0,0-1.49,0l-6.79,3.93a.45.45,0,0,0,0,.86ZM228.3,434a.45.45,0,0,0,0-.86l-6.84-3.93a1.7,1.7,0,0,0-1.49,0l-6.79,3.93a.46.46,0,0,0,0,.86l6.84,3.93a1.63,1.63,0,0,0,1.49,0Zm18.94-1.23a1.63,1.63,0,0,0-1.49,0L239,436.66a.45.45,0,0,0,0,.86l6.84,3.93a1.7,1.7,0,0,0,1.49,0l6.79-3.93a.46.46,0,0,0,0-.86ZM269,443.54a1.69,1.69,0,0,0,1.49,0l6.8-3.93a.46.46,0,0,0,0-.86l-6.84-3.93a1.63,1.63,0,0,0-1.49,0l-6.79,3.93c-.4.23-.4.62,0,.86Zm-30.89-3.93a.46.46,0,0,0,0-.86l-6.84-3.93a1.63,1.63,0,0,0-1.49,0L223,438.75a.45.45,0,0,0,0,.86l6.84,3.93a1.7,1.7,0,0,0,1.49,0Zm18.95-1.23a1.66,1.66,0,0,0-1.49,0l-6.79,3.93c-.41.24-.42.62,0,.86l6.82,3.92a1.6,1.6,0,0,0,1.49,0l6.8-3.92c.4-.24.42-.62,0-.86Zm-24.25,6c-.4.23-.4.62,0,.86l6.83,3.93a1.69,1.69,0,0,0,1.49,0l6.8-3.93a.46.46,0,0,0,0-.86l-6.84-3.93a1.63,1.63,0,0,0-1.49,0Zm34.08-.37a1.66,1.66,0,0,0-1.49,0l-6.8,3.93c-.4.24-.42.62,0,.86l6.82,3.92a1.6,1.6,0,0,0,1.49,0l6.79-3.93c.41-.23.42-.61,0-.86Zm-39,9.64a1.6,1.6,0,0,0,1.49,0l6.77-3.92c.42-.24.41-.62,0-.86L229.32,445a1.66,1.66,0,0,0-1.49,0l-6.78,3.93c-.42.24-.4.62,0,.85Zm60.78,1.16a1.62,1.62,0,0,0,1.5,0l6.79-3.93c.41-.23.41-.62,0-.87l-6.82-3.92a1.7,1.7,0,0,0-1.49,0l-6.79,3.93a.45.45,0,0,0,0,.86ZM246,455.4c.42-.24.4-.62,0-.86l-6.84-3.93a1.66,1.66,0,0,0-1.49,0l-6.78,3.92c-.42.25-.4.63,0,.86l6.84,3.93a1.63,1.63,0,0,0,1.49,0Zm52.53,5.09a1.69,1.69,0,0,0,1.49,0l6.79-3.93a.46.46,0,0,0,0-.86L300,451.77a1.63,1.63,0,0,0-1.49,0l-6.8,3.93c-.4.23-.4.62,0,.86Zm-46-4.8a.46.46,0,0,0,0,.87l6.83,3.92a1.66,1.66,0,0,0,1.49,0l6.79-3.93a.45.45,0,0,0,0-.86l-6.82-3.92a1.68,1.68,0,0,0-1.5,0Zm34.08-.36a1.63,1.63,0,0,0-1.49,0l-6.8,3.93c-.4.23-.4.62,0,.86l6.84,3.92a1.63,1.63,0,0,0,1.49,0l6.79-3.92a.45.45,0,0,0,0-.86Zm-24.24,6c-.4.23-.4.62,0,.86l6.82,3.92a1.71,1.71,0,0,0,1.51,0l6.79-3.93a.46.46,0,0,0,0-.87l-6.82-3.92a1.63,1.63,0,0,0-1.49,0Zm-29.54,6.41a1.68,1.68,0,0,0,1.5,0l6.78-3.92c.42-.25.41-.63,0-.86L234.22,459a1.6,1.6,0,0,0-1.49,0L226,463a.46.46,0,0,0,0,.87Zm63.6-6.79a1.7,1.7,0,0,0-1.49,0l-6.79,3.93a.45.45,0,0,0,0,.86l6.83,3.93a1.63,1.63,0,0,0,1.49,0l6.8-3.93c.4-.23.4-.62,0-.86Zm21.79,10.81a1.63,1.63,0,0,0,1.49,0l6.79-3.93c.41-.23.4-.62,0-.86l-6.84-3.93a1.69,1.69,0,0,0-1.49,0L311.33,467a.45.45,0,0,0,0,.86Zm-46-4.79a.46.46,0,0,0,0,.86l6.84,3.93a1.63,1.63,0,0,0,1.49,0l6.79-3.93a.45.45,0,0,0,0-.86l-6.84-3.93a1.7,1.7,0,0,0-1.49,0Zm34.11,8.35,6.79-3.93a.45.45,0,0,0,0-.86l-6.83-3.92a1.68,1.68,0,0,0-1.5,0l-6.79,3.93c-.41.24-.41.62,0,.87l6.82,3.92A1.7,1.7,0,0,0,306.26,475.34ZM328,477.43a1.66,1.66,0,0,0,1.49,0l6.8-3.93a.45.45,0,0,0,0-.86l-6.82-3.92a1.71,1.71,0,0,0-1.51,0l-6.79,3.93a.46.46,0,0,0,0,.87Zm-46-4.79a.45.45,0,0,0,0,.86l6.84,3.93a1.7,1.7,0,0,0,1.49,0l6.79-3.93c.41-.23.4-.62,0-.86l-6.84-3.93a1.69,1.69,0,0,0-1.49,0Zm-29.55,6.41a1.64,1.64,0,0,0,1.51,0l6.78-3.92c.42-.24.4-.62,0-.86l-6.84-3.93a1.66,1.66,0,0,0-1.49,0l-6.78,3.92c-.42.25-.41.64,0,.87Zm63.62-6.77a1.6,1.6,0,0,0-1.49,0l-6.79,3.93c-.41.23-.42.61,0,.86L314.6,481a1.64,1.64,0,0,0,1.48,0l6.8-3.93c.4-.24.42-.62,0-.86Zm-9.12,6.87a.46.46,0,0,0,0-.86l-6.84-3.93a1.63,1.63,0,0,0-1.49,0l-6.79,3.93c-.4.23-.4.62,0,.86l6.83,3.93a1.69,1.69,0,0,0,1.49,0Zm-5.3,4.79c-.41.23-.41.62,0,.86l6.82,3.92a1.6,1.6,0,0,0,1.49,0l6.79-3.93c.41-.23.42-.61,0-.85L309.92,480a1.65,1.65,0,0,0-1.5,0Zm-29.54,6.41a1.67,1.67,0,0,0,1.51,0l6.78-3.93c.42-.24.41-.62,0-.86l-6.82-3.92a1.57,1.57,0,0,0-1.49,0l-6.78,3.92c-.42.24-.43.62,0,.86Zm77-10.34a1.7,1.7,0,0,0-1.49,0l-6.79,3.93a.45.45,0,0,0,0,.86l13,7.49a1.7,1.7,0,0,0,1.49,0l6.79-3.93a.45.45,0,0,0,0-.86Zm-22.51,10.44c.41-.23.41-.62,0-.87l-6.82-3.92a1.7,1.7,0,0,0-1.49,0l-6.79,3.93a.45.45,0,0,0,0,.86l6.83,3.92a1.65,1.65,0,0,0,1.5,0Zm18.94-1.23a1.63,1.63,0,0,0-1.49,0l-6.8,3.93c-.4.23-.4.62,0,.86l6.84,3.93a1.7,1.7,0,0,0,1.49,0l6.79-3.93a.45.45,0,0,0,0-.86Zm-30.74,5.72c.42-.24.4-.62,0-.86L308,490.16a1.67,1.67,0,0,0-1.51,0l-6.77,3.92c-.42.25-.41.63,0,.87l6.83,3.92a1.63,1.63,0,0,0,1.49,0Zm-23,6.71a1.68,1.68,0,0,0,1.5,0l6.78-3.92a.45.45,0,0,0,0-.86l-6.84-3.93a1.63,1.63,0,0,0-1.49,0l-6.78,3.92a.46.46,0,0,0,0,.87Zm37.83-10.34a1.63,1.63,0,0,0-1.49,0l-6.8,3.93c-.4.23-.4.62,0,.86l13,7.48a1.63,1.63,0,0,0,1.49,0l6.8-3.93a.45.45,0,0,0,0-.85ZM303,498.58a1.6,1.6,0,0,0-1.49,0l-6.78,3.92a.46.46,0,0,0,0,.87l20.05,11.52a1.68,1.68,0,0,0,1.5,0l6.78-3.92c.42-.25.4-.63,0-.86Zm-96.54-79.73a1.63,1.63,0,0,0,1.49,0l6.79-3.93a.45.45,0,0,0,0-.86l-13-7.49a1.7,1.7,0,0,0-1.49,0l-6.79,3.93a.46.46,0,0,0,0,.86Zm33.07,7.75a1.69,1.69,0,0,0,1.49,0l6.79-3.93a.46.46,0,0,0,0-.86L241,417.88a1.63,1.63,0,0,0-1.49,0l-6.8,3.93c-.4.23-.4.62,0,.86Zm-11.91,3.55,6.79-3.93c.41-.23.4-.62,0-.86l-6.83-3.93a1.69,1.69,0,0,0-1.49,0l-6.8,3.93a.46.46,0,0,0,0,.86l6.84,3.93A1.63,1.63,0,0,0,227.64,430.15Zm-39.06.93a1.66,1.66,0,0,0,1.49,0l6.78-3.92c.42-.25.4-.63,0-.86l-14.65-8.42a1.6,1.6,0,0,0-1.49,0l-6.77,3.92c-.43.24-.41.62,0,.86Zm29.88-2.77c.41-.24.42-.62,0-.86l-6.82-3.92a1.6,1.6,0,0,0-1.49,0l-6.8,3.92a.45.45,0,0,0,0,.86l6.82,3.93a1.66,1.66,0,0,0,1.49,0Zm-20.06,8.41a1.6,1.6,0,0,0,1.49,0l6.78-3.92c.42-.24.41-.62,0-.86L199.83,428a1.66,1.66,0,0,0-1.49,0l-6.78,3.93c-.42.24-.4.62,0,.85Zm-26-13.19a1.6,1.6,0,0,0-1.49,0l-6.75,3.9c-.41.24-.4.62,0,.86l19.48,11.2a1.7,1.7,0,0,0,1.49,0l6.75-3.91c.42-.24.4-.62,0-.86Zm35.8,18.84a1.63,1.63,0,0,0,1.49,0l6.78-3.92c.42-.24.42-.62,0-.86l-6.82-3.92a1.63,1.63,0,0,0-1.49,0l-6.78,3.92c-.42.24-.42.62,0,.86Zm-14.73,2.76a1.63,1.63,0,0,0,1.49,0l6.76-3.9c.42-.24.4-.62,0-.86l-6.84-3.93a1.66,1.66,0,0,0-1.49,0l-6.75,3.91a.45.45,0,0,0,0,.85ZM218.06,448a1.65,1.65,0,0,0,1.5,0l6.78-3.92c.42-.25.4-.63,0-.87l-6.82-3.92a1.6,1.6,0,0,0-1.49,0l-6.78,3.92c-.42.24-.41.62,0,.86Zm60.79,1.17a1.66,1.66,0,0,0,1.49,0l6.79-3.93c.41-.24.42-.62,0-.86l-6.83-3.92a1.62,1.62,0,0,0-1.5,0L272,444.4c-.41.23-.41.62,0,.86Zm-67.28-2.31c.42-.25.41-.63,0-.86l-6.84-3.93a1.6,1.6,0,0,0-1.49,0l-6.75,3.9a.45.45,0,0,0,0,.86l.2.16,6.6,3.8a1.68,1.68,0,0,0,1.5,0ZM242.66,450a.45.45,0,0,0,0,.86l6.84,3.93a1.63,1.63,0,0,0,1.49,0l6.79-3.93a.45.45,0,0,0,0-.86l-6.84-3.93a1.7,1.7,0,0,0-1.49,0Zm-21.26,2.48c.42-.24.42-.61,0-.86l-6.82-3.92a1.62,1.62,0,0,0-1.5,0l-6.78,3.92a.46.46,0,0,0,0,.87l6.82,3.92a1.64,1.64,0,0,0,1.51,0Zm1.54,9.58a1.69,1.69,0,0,0,1.52,0l6.78-3.92c.42-.24.4-.62,0-.87l-6.83-3.92a1.61,1.61,0,0,0-1.48,0l-6.78,3.92c-.42.25-.44.63,0,.87Zm32.88-1.05c.42-.25.4-.63,0-.86L249,456.26a1.63,1.63,0,0,0-1.49,0l-6.77,3.92c-.42.24-.41.62,0,.86l6.84,3.93a1.66,1.66,0,0,0,1.49,0Zm52.52,5.09a1.69,1.69,0,0,0,1.49,0l6.79-3.93a.45.45,0,0,0,0-.86l-6.84-3.93a1.63,1.63,0,0,0-1.49,0l-6.79,3.93c-.41.23-.4.62,0,.86Zm-42.7.55c.42-.24.41-.62,0-.85l-6.83-3.93a1.62,1.62,0,0,0-1.5,0l-6.78,3.92c-.42.24-.4.62,0,.86l6.82,3.93a1.66,1.66,0,0,0,1.49,0Zm-23,6.71a1.65,1.65,0,0,0,1.5,0l6.78-3.93c.42-.24.4-.62,0-.86l-6.83-3.92a1.6,1.6,0,0,0-1.49,0l-6.78,3.92c-.42.24-.42.63,0,.86Zm32.87-1c.42-.24.41-.62,0-.87l-6.82-3.92a1.63,1.63,0,0,0-1.49,0l-6.78,3.92c-.42.25-.42.62,0,.86l6.82,3.92a1.62,1.62,0,0,0,1.5,0Zm9.83,5.65c.42-.25.4-.63,0-.86l-6.83-3.93a1.63,1.63,0,0,0-1.49,0l-6.78,3.92c-.42.24-.41.62,0,.86l6.84,3.93a1.66,1.66,0,0,0,1.49,0Zm52.51,5.08a1.68,1.68,0,0,0,1.5,0l6.8-3.93a.46.46,0,0,0,0-.87l-6.83-3.92a1.61,1.61,0,0,0-1.48,0L331,478.3c-.4.23-.4.62,0,.86Zm-75.56,1.62a1.65,1.65,0,0,0,1.5,0l6.78-3.92c.42-.24.42-.62,0-.86L263.71,476a1.62,1.62,0,0,0-1.5,0l-6.78,3.92c-.42.24-.42.63,0,.88Zm63.66,1.94,6.8-3.93c.4-.23.4-.62,0-.86l-6.82-3.93a1.69,1.69,0,0,0-1.49,0l-6.8,3.93a.46.46,0,0,0,0,.86l6.82,3.92A1.62,1.62,0,0,0,325.92,486.64Zm-30.79-3c.42-.24.41-.62,0-.85l-6.84-3.93a1.6,1.6,0,0,0-1.49,0L280,482.78c-.42.24-.4.62,0,.86l6.84,3.93a1.66,1.66,0,0,0,1.49,0Zm47.41,4.72a.45.45,0,0,0,0-.86l-6.84-3.93a1.7,1.7,0,0,0-1.49,0l-6.79,3.93a.45.45,0,0,0,0,.86l6.84,3.93a1.7,1.7,0,0,0,1.49,0Zm-45.85,4.85a1.6,1.6,0,0,0,1.49,0l6.78-3.92c.42-.24.4-.62,0-.86l-6.84-3.93a1.66,1.66,0,0,0-1.49,0l-6.78,3.93c-.42.24-.4.62,0,.85Zm-6.48-1.14c.42-.24.4-.62,0-.86l-6.83-3.93a1.66,1.66,0,0,0-1.49,0l-6.78,3.92c-.42.25-.42.64,0,.87l6.84,3.93a1.62,1.62,0,0,0,1.5,0Zm27.57,3.74a1.57,1.57,0,0,0-1.49,0l-6.77,3.92c-.42.24-.42.61,0,.86l15,8.64a1.63,1.63,0,0,0,1.49,0l6.78-3.92c.42-.24.41-.62,0-.86ZM170.4,438.39a1.8,1.8,0,0,0-1.6,0l-2.18,1.26c-.44.26-.43.67,0,.93l8.76,5a1.77,1.77,0,0,0,1.6,0l2.18-1.27c.44-.25.45-.66,0-.92Zm35.9,15.86a1.63,1.63,0,0,0-1.49,0L198,458.18a.45.45,0,0,0,0,.86l8.83,5.07a1.63,1.63,0,0,0,1.49,0l6.79-3.93a.45.45,0,0,0,0-.86Zm11.83,6.8a1.63,1.63,0,0,0-1.49,0L209.85,465a.45.45,0,0,0,0,.86l53.85,31a1.67,1.67,0,0,0,1.51,0l6.79-3.92c.41-.24.4-.63,0-.87ZM275,493.72a1.67,1.67,0,0,0-1.48,0l-6.8,3.93a.46.46,0,0,0,0,.86l8.82,5.07a1.6,1.6,0,0,0,1.49,0l6.79-3.93c.41-.23.42-.61,0-.85Zm21.66,12.45a1.63,1.63,0,0,0-1.49,0l-6.79,3.93a.45.45,0,0,0,0,.86l6.84,3.93a1.7,1.7,0,0,0,1.49,0l6.79-3.93a.46.46,0,0,0,0-.86ZM173.92,435.72a1.63,1.63,0,0,0-1.49,0l-2,1.17a.45.45,0,0,0,0,.86l8.17,4.69a1.62,1.62,0,0,0,1.5,0l2-1.17a.45.45,0,0,0,0-.86Zm6.63,9.12a1.69,1.69,0,0,0-1.49,0L177,446a.46.46,0,0,0,0,.87l8.16,4.69a1.67,1.67,0,0,0,1.51,0l2-1.17c.41-.23.42-.61,0-.86Zm-22.25-13.4a1.74,1.74,0,0,0-1.6,0l-2.17,1.25a.49.49,0,0,0,0,.93l8.76,5a1.78,1.78,0,0,0,1.62,0l2.16-1.25c.44-.25.45-.66,0-.92Zm38.23,17.19a1.65,1.65,0,0,0-1.5,0l-6.79,3.93c-.41.23-.41.62,0,.86l6.77,3.89a1.6,1.6,0,0,0,1.49,0l6.79-3.93c.41-.23.42-.61,0-.86Zm90.28,51.89a1.7,1.7,0,0,0-1.49,0l-6.79,3.93a.45.45,0,0,0,0,.86l6.82,3.92a1.65,1.65,0,0,0,1.5,0l6.79-3.93c.41-.23.41-.62,0-.87Zm19.65,11.3a1.61,1.61,0,0,0-1.48,0l-6.8,3.93c-.4.23-.4.62,0,.86l6.83,3.92a1.63,1.63,0,0,0,1.49,0l6.8-3.93a.45.45,0,0,0,0-.85Zm-29.95-62.11a1.7,1.7,0,0,0-1.49,0l-6.79,3.93a.45.45,0,0,0,0,.86l6.84,3.93a1.63,1.63,0,0,0,1.49,0l6.79-3.93a.45.45,0,0,0,0-.86Z"/><path class="cls-25" d="M206.19,514.37,163.63,489.8c-1.67-1-1.67-2.52,0-3.48l29.1-16.81a6.65,6.65,0,0,1,6,0l42.57,24.58c1.66,1,1.66,2.51,0,3.47l-29.11,16.81A6.65,6.65,0,0,1,206.19,514.37Z"/><path class="cls-26" d="M367,491.16l-.56.33L209.2,400.68a3.39,3.39,0,0,0-3.4,0l-55.65,32.19-.56-.32a1.21,1.21,0,0,1,0-2.1l56.21-32.52a3.39,3.39,0,0,1,3.4,0L367,489.06A1.21,1.21,0,0,1,367,491.16Z"/><path class="cls-26" d="M241.32,495.11l-42.57-24.58a6.65,6.65,0,0,0-6,0l-29.1,16.81a2.58,2.58,0,0,0-1,1c-.44-.84-.1-1.78,1-2.45l29.1-16.8a6.65,6.65,0,0,1,6,0l42.57,24.57c1.15.67,1.48,1.61,1,2.45A2.61,2.61,0,0,0,241.32,495.11Z"/><path class="cls-27" d="M205.21,375.5l20.51-140.39-1.89-.81,2.84-1.67v0a2,2,0,0,1,2.19.15l200.3,113.75a5.48,5.48,0,0,1,2.44,4.89L398.51,490.28a1.83,1.83,0,0,1-1,1.47h0l-2.78,1.64-.48-2.65.16,0L207.65,380.39A5.48,5.48,0,0,1,205.21,375.5Z"/><path class="cls-28" d="M427.93,352.93l3.24-1.37a4.2,4.2,0,0,1,.42,2.34L396.91,490.34a1.77,1.77,0,0,1-1,1.44h0L393,493.4l-.5-2.62.16.05-9.9-5.49Z"/><path class="cls-6" d="M204.71,382.12l187.9,111.07c1.45.86,2.7.36,2.95-1.18l33.08-138.84a5.49,5.49,0,0,0-2.44-4.89L225.9,234.53c-1.45-.85-2.69-.36-3,1.18L202.27,377.24A5.45,5.45,0,0,0,204.71,382.12Z"/><g class="cls-29"><polygon class="cls-30" points="228.36 243.72 421.88 353.46 390.04 483.93 209.03 376.94 228.36 243.72"/></g><g class="cls-31"><g class="cls-32"><path class="cls-33" d="M205.37,381l186,109.93a7.48,7.48,0,0,0,6.88.3l111-65.61c1.76-1,1.54-2.86,8.89,1l-186-109.94c-11.41-6.3-14.49-6.43-16.26-5.39l-111,65.6C203.11,378,203.33,379.79,205.37,381Z"/><path class="cls-34" d="M391.91,400.71l-41.67-24.64c-1.63-1-1.63-2.52,0-3.48l28.5-16.85a6.4,6.4,0,0,1,5.9,0l41.67,24.64c1.63,1,1.63,2.52,0,3.48l-28.5,16.85A6.4,6.4,0,0,1,391.91,400.71Z"/><path class="cls-26" d="M426.31,381.8l-41.67-24.63a6.4,6.4,0,0,0-5.9,0L350.24,374a2.63,2.63,0,0,0-1,1c-.44-.84-.11-1.79,1-2.45l28.5-16.85a6.4,6.4,0,0,1,5.9,0l41.67,24.64c1.13.66,1.46,1.61,1,2.45A2.66,2.66,0,0,0,426.31,381.8Z"/><path class="cls-24" d="M401,455.44a1.61,1.61,0,0,0-1.48,0l-6.76,4a.47.47,0,0,0,0,.88l6.81,4a1.61,1.61,0,0,0,1.48,0l6.76-4a.47.47,0,0,0,0-.88Zm-27.16-3.64-6.76,4c-.4.24-.4.63,0,.88l6.79,4a1.6,1.6,0,0,0,1.49,0l6.76-4c.4-.24.42-.62,0-.87l-6.79-4A1.62,1.62,0,0,0,373.88,451.8Zm24.19,2.76a.46.46,0,0,0,0-.87l-6.81-4a1.61,1.61,0,0,0-1.48,0l-6.76,4a.47.47,0,0,0,0,.88l6.81,4a1.61,1.61,0,0,0,1.48,0Zm-43.75-14.32-6.76,4a.47.47,0,0,0,0,.88l6.81,4a1.61,1.61,0,0,0,1.48,0l6.77-4a.47.47,0,0,0,0-.88l-6.81-4A1.61,1.61,0,0,0,354.32,440.24Zm9.12,1.89a.46.46,0,0,0,0,.87l6.81,4a1.61,1.61,0,0,0,1.48,0l6.76-4a.46.46,0,0,0,0-.87l-6.81-4a1.61,1.61,0,0,0-1.48,0Zm-18.85,1.26a1.61,1.61,0,0,0,1.48,0l6.76-4a.47.47,0,0,0,0-.88l-6.81-4a1.61,1.61,0,0,0-1.48,0l-6.76,4a.47.47,0,0,0,0,.88Zm9.07-7a.47.47,0,0,0,0,.88l6.81,4a1.61,1.61,0,0,0,1.48,0l6.76-4a.47.47,0,0,0,0-.88l-6.81-4a1.61,1.61,0,0,0-1.48,0Zm-18.87,1.25a1.58,1.58,0,0,0,1.48,0l6.77-4a.47.47,0,0,0,0-.88l-6.79-4a1.58,1.58,0,0,0-1.48,0l-6.77,4a.47.47,0,0,0,0,.88Zm24.14-6.15a.47.47,0,0,0,0-.88l-6.81-4a1.61,1.61,0,0,0-1.48,0l-6.77,4a.47.47,0,0,0,0,.88l6.81,4a1.61,1.61,0,0,0,1.48,0Zm-33.92.37a1.58,1.58,0,0,0,1.48,0l6.76-4a.46.46,0,0,0,0-.87l-6.79-4a1.6,1.6,0,0,0-1.49,0l-6.76,4a.47.47,0,0,0,0,.88ZM363.84,422a1.58,1.58,0,0,0-1.48,0l-6.75,4c-.42.25-.4.64,0,.88l6.8,4a1.6,1.6,0,0,0,1.49,0l6.75-4a.47.47,0,0,0,0-.88Zm-48.61,4.09a1.61,1.61,0,0,0,1.48,0l6.76-4a.47.47,0,0,0,0-.88l-6.81-4a1.61,1.61,0,0,0-1.48,0l-6.76,4a.47.47,0,0,0,0,.88Zm30.6-5.85c-.42.25-.4.63,0,.87l6.8,4a1.6,1.6,0,0,0,1.49,0l6.74-4c.42-.25.41-.63,0-.88l-6.81-4a1.55,1.55,0,0,0-1.48,0Zm-6.46-.3a.48.48,0,0,0,0-.89l-6.8-4a1.58,1.58,0,0,0-1.48,0l-6.76,4a.47.47,0,0,0,0,.88l6.8,4a1.6,1.6,0,0,0,1.49,0Zm-33.92.37a1.61,1.61,0,0,0,1.48,0l6.76-4a.47.47,0,0,0,0-.88l-6.81-4a1.61,1.61,0,0,0-1.48,0l-6.77,4a.47.47,0,0,0,0,.88Zm24.12-6.16a.47.47,0,0,0,0-.88l-6.8-4a1.63,1.63,0,0,0-1.49,0l-6.77,4c-.4.24-.4.63,0,.88l6.79,4a1.63,1.63,0,0,0,1.49,0ZM359,407.56a1.62,1.62,0,0,0-1.5,0l-6.74,4a.47.47,0,0,0,0,.88l6.81,4a1.61,1.61,0,0,0,1.48,0l6.75-4a.47.47,0,0,0,0-.88Zm-63.32,6.93a1.57,1.57,0,0,0,1.49,0l6.76-4a.47.47,0,0,0,0-.88l-6.8-4a1.63,1.63,0,0,0-1.49,0l-6.76,4a.47.47,0,0,0,0,.88Zm24.13-6.15a.47.47,0,0,0,0-.88l-6.8-4a1.63,1.63,0,0,0-1.49,0l-6.76,4a.47.47,0,0,0,0,.88l6.8,4a1.63,1.63,0,0,0,1.49,0Zm-34-8.54-6.76,4a.47.47,0,0,0,0,.88l6.8,4a1.6,1.6,0,0,0,1.49,0l6.77-4a.48.48,0,0,0,0-.89l-6.8-4A1.61,1.61,0,0,0,285.83,399.8ZM310,402.56a.47.47,0,0,0,0-.88l-6.81-4a1.61,1.61,0,0,0-1.48,0l-6.76,4a.47.47,0,0,0,0,.88l6.81,4a1.61,1.61,0,0,0,1.48,0ZM339.42,396a1.62,1.62,0,0,0-1.5,0l-6.75,4c-.42.25-.4.64,0,.88l6.8,4a1.6,1.6,0,0,0,1.49,0l6.74-4a.47.47,0,0,0,0-.89Zm-63.34,6.93a1.6,1.6,0,0,0,1.49,0l6.76-4c.4-.24.42-.63,0-.87l-6.8-4a1.61,1.61,0,0,0-1.48,0l-6.76,4a.47.47,0,0,0,0,.88Zm9.09-7a.46.46,0,0,0,0,.87l6.81,4a1.61,1.61,0,0,0,1.48,0l6.76-4a.46.46,0,0,0,0-.87l-6.81-4a1.61,1.61,0,0,0-1.48,0Zm5.27-4.9c.41-.24.4-.64,0-.89l-6.79-4a1.58,1.58,0,0,0-1.48,0l-6.76,4a.47.47,0,0,0,0,.88l6.79,4a1.62,1.62,0,0,0,1.5,0Zm29.41-6.56a1.61,1.61,0,0,0-1.51,0l-6.75,4c-.42.25-.4.64,0,.89l6.79,4a1.57,1.57,0,0,0,1.49,0l6.75-4c.41-.25.43-.64,0-.89Zm-54.26-.11c-.41.24-.4.64,0,.89l6.79,4a1.61,1.61,0,0,0,1.48,0l6.77-4a.47.47,0,0,0,0-.88l-6.79-4a1.59,1.59,0,0,0-1.5,0Zm-18.85,1.26a1.61,1.61,0,0,0,1.48,0l6.76-4a.46.46,0,0,0,0-.87l-6.81-4a1.61,1.61,0,0,0-1.48,0l-6.76,4a.46.46,0,0,0,0,.87Zm30.6-5.85c-.42.25-.4.64,0,.88l6.79,4a1.59,1.59,0,0,0,1.5,0l6.75-4c.41-.25.4-.64,0-.89l-6.8-4a1.58,1.58,0,0,0-1.48,0Zm22.93-6.86a1.6,1.6,0,0,0-1.49,0l-6.75,4a.47.47,0,0,0,0,.88l6.81,4a1.58,1.58,0,0,0,1.48,0l6.75-4a.47.47,0,0,0,0-.89Zm-37.65,10.58a1.61,1.61,0,0,0,1.48,0l6.76-4a.47.47,0,0,0,0-.88l-13-7.66a1.61,1.61,0,0,0-1.48,0l-6.76,4a.47.47,0,0,0,0,.88ZM289.06,376a1.58,1.58,0,0,0,1.48,0l6.75-4a.47.47,0,0,0,0-.89l-20-11.78a1.6,1.6,0,0,0-1.49,0l-6.75,4a.47.47,0,0,0,0,.88Zm96.1,81.55a1.58,1.58,0,0,0-1.48,0l-6.76,4a.47.47,0,0,0,0,.88l13,7.66a1.61,1.61,0,0,0,1.48,0l6.77-4a.47.47,0,0,0,0-.88ZM364.1,446l-6.76,4a.47.47,0,0,0,0,.88l6.81,4a1.61,1.61,0,0,0,1.48,0l6.77-4a.47.47,0,0,0,0-.88l-6.8-4A1.63,1.63,0,0,0,364.1,446Zm38.89-.94a1.6,1.6,0,0,0-1.49,0l-6.74,4c-.42.25-.41.63,0,.88l14.58,8.61a1.61,1.61,0,0,0,1.48,0l6.75-4a.46.46,0,0,0,0-.87Zm-29.76,2.83a.47.47,0,0,0,0,.88l6.79,4a1.58,1.58,0,0,0,1.48,0l6.77-4a.47.47,0,0,0,0-.88l-6.79-4a1.58,1.58,0,0,0-1.48,0Zm20-8.61a1.58,1.58,0,0,0-1.48,0l-6.75,4a.47.47,0,0,0,0,.88l6.8,4a1.6,1.6,0,0,0,1.49,0l6.75-4a.47.47,0,0,0,0-.88Zm25.86,13.5a1.58,1.58,0,0,0,1.48,0l6.72-4a.46.46,0,0,0,0-.87l-19.4-11.46a1.61,1.61,0,0,0-1.48,0l-6.72,4a.47.47,0,0,0,0,.88Zm-35.64-19.28a1.55,1.55,0,0,0-1.48,0l-6.75,4c-.42.25-.42.63,0,.88l6.79,4a1.55,1.55,0,0,0,1.48,0l6.75-4c.42-.25.42-.63,0-.88Zm14.66-2.82a1.61,1.61,0,0,0-1.48,0l-6.72,4a.47.47,0,0,0,0,.88l6.81,4a1.58,1.58,0,0,0,1.48,0l6.72-4a.46.46,0,0,0,0-.87Zm-24.44-2.95a1.59,1.59,0,0,0-1.5,0l-6.75,4c-.41.25-.4.64,0,.89l6.8,4a1.58,1.58,0,0,0,1.48,0l6.75-4c.42-.25.4-.64,0-.88Zm6.46,1.16a.47.47,0,0,0,0,.88l6.81,4a1.58,1.58,0,0,0,1.48,0l6.72-4a.47.47,0,0,0,0-.88l-.2-.17-6.57-3.87a1.59,1.59,0,0,0-1.5,0Zm-31-3.24a.46.46,0,0,0,0-.87l-6.8-4a1.63,1.63,0,0,0-1.49,0l-6.76,4a.46.46,0,0,0,0,.87l6.8,4a1.63,1.63,0,0,0,1.49,0Zm21.16-2.53c-.41.25-.41.63,0,.88l6.79,4a1.62,1.62,0,0,0,1.5,0l6.75-4a.48.48,0,0,0,0-.9l-6.79-4a1.59,1.59,0,0,0-1.5,0Zm-1.53-9.8a1.61,1.61,0,0,0-1.51,0l-6.75,4c-.42.25-.4.64,0,.89l6.79,4a1.55,1.55,0,0,0,1.48,0l6.75-4c.42-.25.43-.64,0-.89Zm-32.73,1.08a.47.47,0,0,0,0,.88l6.81,4a1.58,1.58,0,0,0,1.48,0l6.75-4a.47.47,0,0,0,0-.88l-6.81-4a1.58,1.58,0,0,0-1.48,0Zm-9.78-5.78a.47.47,0,0,0,0,.88l6.79,4a1.59,1.59,0,0,0,1.5,0l6.75-4c.42-.25.4-.64,0-.89l-6.79-4a1.58,1.58,0,0,0-1.48,0Zm22.93-6.86a1.62,1.62,0,0,0-1.5,0l-6.75,4c-.42.25-.4.64,0,.88l6.81,4a1.58,1.58,0,0,0,1.48,0l6.75-4a.48.48,0,0,0,0-.89Zm-32.73,1.08c-.42.25-.4.64,0,.89l6.79,4a1.55,1.55,0,0,0,1.48,0l6.75-4c.42-.25.42-.63,0-.88l-6.79-4a1.59,1.59,0,0,0-1.5,0Zm-9.78-5.78a.47.47,0,0,0,0,.88l6.81,4a1.58,1.58,0,0,0,1.48,0l6.75-4a.47.47,0,0,0,0-.88l-6.81-4a1.58,1.58,0,0,0-1.48,0Zm-76.11-9.37a.47.47,0,0,1,0-.88l6.73-4a1.61,1.61,0,0,1,1.48,0l6.78,4a.47.47,0,0,1,0,.88l-6.73,4a1.61,1.61,0,0,1-1.48,0Zm16.51,9.75a1.61,1.61,0,0,0,1.48,0l6.73-4a.46.46,0,0,0,0-.87l-6.78-4a1.61,1.61,0,0,0-1.48,0l-6.73,4a.46.46,0,0,0,0,.87Zm9.74,5.75a1.58,1.58,0,0,0,1.48,0l6.73-4a.46.46,0,0,0,0-.87l-6.76-4a1.61,1.61,0,0,0-1.48,0l-6.73,4c-.41.23-.42.62,0,.87Zm19.5,11.52a1.65,1.65,0,0,0,1.47,0l6.74-4a.46.46,0,0,0,0-.87l-6.77-4a1.61,1.61,0,0,0-1.48,0l-6.73,4a.46.46,0,0,0,0,.87Zm9.74,5.75a1.59,1.59,0,0,0,1.47,0l6.74-4a.46.46,0,0,0,0-.87l-6.77-4a1.61,1.61,0,0,0-1.48,0l-6.73,4a.46.46,0,0,0,0,.87Zm9.74,5.75a1.59,1.59,0,0,0,1.47,0l6.74-4a.47.47,0,0,0,0-.88l-6.77-4a1.61,1.61,0,0,0-1.48,0l-6.73,4a.47.47,0,0,0,0,.88Zm19.48,11.5a1.6,1.6,0,0,0,1.49,0l6.73-4a.48.48,0,0,0,0-.89l-6.76-4a1.61,1.61,0,0,0-1.48,0l-6.73,4a.47.47,0,0,0,0,.88Zm9.75,5.76a1.61,1.61,0,0,0,1.48,0l6.73-4a.47.47,0,0,0,0-.88l-6.78-4a1.61,1.61,0,0,0-1.48,0l-6.73,4a.47.47,0,0,0,0,.88ZM344.52,455a1.61,1.61,0,0,0,1.48,0l6.73-4a.47.47,0,0,0,0-.87l-6.78-4a1.61,1.61,0,0,0-1.48,0l-6.73,4a.47.47,0,0,0,0,.87Zm9.74,5.76a1.61,1.61,0,0,0,1.48,0l6.73-4a.46.46,0,0,0,0-.87l-6.77-4a1.6,1.6,0,0,0-1.49,0l-6.73,4a.47.47,0,0,0,0,.88Zm20.92,2.63a1.59,1.59,0,0,0-1.47,0l-6.74,4a.47.47,0,0,0,0,.88l12.91,7.62a1.61,1.61,0,0,0,1.48,0l6.73-4a.47.47,0,0,0,0-.88ZM266.59,409a1.59,1.59,0,0,0,1.47,0l6.74-4a.46.46,0,0,0,0-.87l-6.77-4a1.67,1.67,0,0,0-1.48,0l-6.73,4a.46.46,0,0,0,0,.87Zm39,23a1.56,1.56,0,0,0,1.47,0l6.74-4a.47.47,0,0,0,0-.88l-6.76-4a1.6,1.6,0,0,0-1.49,0l-6.73,4c-.41.24-.4.64,0,.89Zm29.23,17.26a1.61,1.61,0,0,0,1.48,0l6.73-4a.47.47,0,0,0,0-.87l-6.78-4a1.61,1.61,0,0,0-1.48,0l-6.73,4a.47.47,0,0,0,0,.87ZM364,466.5a1.6,1.6,0,0,0,1.49,0l6.74-4c.4-.24.4-.63,0-.88l-6.77-4a1.59,1.59,0,0,0-1.47,0l-6.74,4a.46.46,0,0,0,0,.87Zm-34.37-76.27a1.57,1.57,0,0,0-1.49,0l-6.75,4c-.42.25-.42.63,0,.88l6.8,4a1.6,1.6,0,0,0,1.49,0l6.75-4a.47.47,0,0,0,0-.89Zm-63.38-2-6.76,4a.48.48,0,0,0,0,.89l6.79,4a1.63,1.63,0,0,0,1.49,0l6.76-4a.47.47,0,0,0,0-.88l-6.79-4A1.62,1.62,0,0,0,266.25,388.24Zm30.66,3.07a.46.46,0,0,0,0,.87l6.81,4a1.58,1.58,0,0,0,1.48,0l6.75-4c.42-.25.4-.64,0-.88l-6.8-4a1.63,1.63,0,0,0-1.49,0Zm-47.2-4.83a.47.47,0,0,0,0,.88l6.81,4a1.61,1.61,0,0,0,1.48,0l6.77-4a.47.47,0,0,0,0-.88l-6.81-4a1.61,1.61,0,0,0-1.48,0Zm45.65-5a1.6,1.6,0,0,0-1.49,0l-6.75,4a.47.47,0,0,0,0,.88l6.81,4a1.58,1.58,0,0,0,1.48,0l6.75-4c.42-.25.4-.64,0-.88Zm6.45,1.17c-.42.25-.4.64,0,.88l6.8,4a1.57,1.57,0,0,0,1.49,0l6.74-4a.47.47,0,0,0,0-.88l-6.8-4a1.62,1.62,0,0,0-1.5,0Zm-27.45-3.82a1.55,1.55,0,0,0,1.48,0l6.75-4c.42-.25.42-.63,0-.88l-15-8.85a1.61,1.61,0,0,0-1.48,0l-6.75,4c-.42.24-.4.63,0,.87ZM295,363a1.8,1.8,0,0,0-1.6,0l-2.18,1.29a.51.51,0,0,0,0,.95l8.76,5.14a1.71,1.71,0,0,0,1.6,0l2.18-1.29c.44-.25.45-.67,0-.94Zm35.88,16.21a1.63,1.63,0,0,0-1.49,0l-6.79,4a.47.47,0,0,0,0,.88l8.83,5.18a1.58,1.58,0,0,0,1.48,0l6.79-4c.41-.24.42-.62,0-.87Zm11.82,6.94a1.63,1.63,0,0,0-1.49,0l-6.79,4a.47.47,0,0,0,0,.88l53.82,31.62a1.64,1.64,0,0,0,1.51,0l6.79-4a.48.48,0,0,0,0-.89Zm56.83,33.38a1.63,1.63,0,0,0-1.49,0l-6.79,4a.47.47,0,0,0,0,.88l8.82,5.18a1.6,1.6,0,0,0,1.49,0l6.79-4a.46.46,0,0,0,0-.87Zm21.64,12.72a1.63,1.63,0,0,0-1.49,0l-6.79,4a.47.47,0,0,0,0,.88l6.83,4a1.63,1.63,0,0,0,1.49,0l6.79-4a.47.47,0,0,0,0-.88Zm-122.66-72a1.63,1.63,0,0,0-1.49,0l-2,1.2a.47.47,0,0,0,0,.88l8.16,4.79a1.62,1.62,0,0,0,1.5,0l2-1.2c.4-.24.41-.62,0-.87Zm6.62,9.32a1.61,1.61,0,0,0-1.48,0l-2,1.2a.47.47,0,0,0,0,.88l8.16,4.79a1.62,1.62,0,0,0,1.5,0l2-1.2c.4-.24.42-.63,0-.87Zm-22.23-13.69a1.74,1.74,0,0,0-1.6,0l-2.16,1.28c-.45.27-.45.69,0,1l8.76,5.15a1.73,1.73,0,0,0,1.61,0l2.17-1.28a.5.5,0,0,0,0-.94Zm38.21,17.57a1.62,1.62,0,0,0-1.5,0l-6.79,4c-.41.24-.4.63,0,.88l6.76,4a1.6,1.6,0,0,0,1.49,0l6.79-4a.47.47,0,0,0,0-.88Zm90.24,53a1.63,1.63,0,0,0-1.49,0l-6.79,4a.47.47,0,0,0,0,.88l6.82,4a1.62,1.62,0,0,0,1.5,0l6.79-4c.41-.24.4-.64,0-.88ZM431,438.05a1.61,1.61,0,0,0-1.48,0l-6.79,4a.47.47,0,0,0,0,.88l6.84,4a1.61,1.61,0,0,0,1.48,0l6.79-4a.47.47,0,0,0,0-.88Z"/></g></g><g class="cls-4"><path class="cls-35" d="M231.62,364.37c-2.53-1.45-4-5.22-3.24-8.42s3.39-4.61,5.93-3.15,4,5.25,3.24,8.44-3.4,4.59-5.93,3.13"/><path class="cls-36" d="M286.94,394.53l-45.4-26.16a1.74,1.74,0,0,1-.69-1.81l0-.19c.16-.68.73-1,1.27-.68l45.4,26.17a1.73,1.73,0,0,1,.7,1.8l-.05.2c-.16.68-.72,1-1.27.67"/><path class="cls-36" d="M254.33,368.17l-11.24-6.47a1.74,1.74,0,0,1-.69-1.81l0-.18c.16-.69.73-1,1.27-.69L255,365.5a1.74,1.74,0,0,1,.69,1.82l0,.18c-.16.68-.73,1-1.27.67"/><path class="cls-36" d="M288.42,387.82l-29.91-17.24a1.87,1.87,0,0,1-.75-1.95.92.92,0,0,1,1.37-.72L289,385.15a1.86,1.86,0,0,1,.74,1.94c-.17.74-.78,1.07-1.36.73"/><path class="cls-36" d="M250.76,358.57l-6-3.49a1.86,1.86,0,0,1-.75-1.94c.18-.75.78-1.07,1.37-.73l6,3.49a1.85,1.85,0,0,1,.74,1.94c-.17.73-.78,1.06-1.36.73"/><path class="cls-35" d="M237.71,338.14c-2.53-1.46-4-5.23-3.24-8.42s3.39-4.6,5.92-3.14,4,5.23,3.25,8.43-3.4,4.59-5.93,3.13"/><path class="cls-36" d="M293,368.3l-45.4-26.17a1.72,1.72,0,0,1-.69-1.8l0-.2c.16-.68.73-1,1.27-.67l45.4,26.16a1.73,1.73,0,0,1,.69,1.81l0,.19c-.16.69-.72,1-1.27.68"/><path class="cls-36" d="M260.41,341.94l-11.23-6.48a1.72,1.72,0,0,1-.7-1.8l.05-.19c.16-.69.73-1,1.26-.67L261,339.28a1.72,1.72,0,0,1,.7,1.8l-.05.19c-.16.69-.73,1-1.27.67"/><path class="cls-36" d="M294.51,361.59l-29.92-17.24a1.89,1.89,0,0,1-.75-1.94c.17-.74.79-1.06,1.37-.72l29.91,17.24a1.84,1.84,0,0,1,.74,1.94.9.9,0,0,1-1.35.72"/><path class="cls-36" d="M256.85,332.33l-6.05-3.48a1.87,1.87,0,0,1-.75-2c.17-.74.78-1.06,1.37-.72l6.05,3.48a1.85,1.85,0,0,1,.74,1.94c-.17.73-.78,1.07-1.36.73"/><path class="cls-35" d="M243.8,311.9c-2.54-1.45-4-5.22-3.25-8.42s3.4-4.59,5.93-3.13,4,5.23,3.25,8.42-3.4,4.59-5.93,3.13"/><path class="cls-36" d="M299.12,342.06l-45.4-26.16a1.75,1.75,0,0,1-.7-1.81l0-.19c.16-.68.73-1,1.27-.68l45.4,26.17a1.71,1.71,0,0,1,.69,1.8l-.05.2c-.15.68-.71,1-1.26.67"/><path class="cls-36" d="M266.5,315.72l-11.24-6.48a1.74,1.74,0,0,1-.69-1.82l0-.18c.16-.69.73-1,1.27-.67L267.12,313a1.72,1.72,0,0,1,.69,1.81l0,.18c-.16.69-.73,1-1.27.69"/><path class="cls-36" d="M300.59,335.36l-29.91-17.23a1.89,1.89,0,0,1-.75-1.95.92.92,0,0,1,1.37-.73l29.91,17.24a1.86,1.86,0,0,1,.74,1.94c-.17.73-.78,1.07-1.36.73"/><path class="cls-36" d="M262.93,306.1l-6-3.49a1.84,1.84,0,0,1-.75-1.94c.17-.74.78-1.07,1.37-.73l6,3.49a1.84,1.84,0,0,1,.74,1.94c-.17.74-.78,1.06-1.36.73"/></g><ellipse class="cls-37" cx="356.98" cy="394.88" rx="26.9" ry="41.88" transform="translate(-53.92 56.46) rotate(-8.41)"/><path class="cls-38" d="M364.26,435.88l.28,0,.65-.28Z"/><path class="cls-39" d="M360.82,383.28a17.29,17.29,0,0,0-17.87-.63c-5.42,2.88-9.86,23.74-7.87,25.37s18.45,12.1,21.21,14c3.19,2.21,17.19-.53,17.9-4.39.42-2.3,4.34-20.48.25-24.71C371.94,390.35,366.45,387.07,360.82,383.28Z"/><polygon class="cls-35" points="354.9 389.15 351.34 392.94 351.56 397.03 345.95 415.39 348.85 417.32 353.33 397.94 357.36 394.2 357.07 389.46 354.9 389.15"/><path class="cls-40" d="M349,417.5l-2.53-1.72Z"/><g class="cls-41"><path class="cls-42" d="M349,417.5l-2.53-1.72Z"/></g><path class="cls-43" d="M354.12,382.13c-1.92.62-3.93,3.59-4.41,7.25-.57,4.4.49,5.89.49,5.89l5-5.88.95,7.5a18.51,18.51,0,0,0,6.48-3.33c2.7-2.34,5.17-4.58,4.33-6.56C365.94,384.63,356.58,381.34,354.12,382.13Z"/><path class="cls-44" d="M350.36,361.91c-1.67,4.08-3.74,16.27-1.24,18.88,2,2.07,4.35.71,3.94,3.71s-1.68,3.27-.14,4.59,11.47.37,11.82-2.84c.33-3-.12-4.09,1.75-6.88s6.62-7.28,6.77-11.27S356.25,347.5,350.36,361.91Z"/><path class="cls-45" d="M358.09,349.67a17.57,17.57,0,0,1,8.49-.69c5.74.65,10.12,3.59,9.92,10-.16,4.87-2.84,9.85-5.52,14.24-3.55,5.81-4.88,3.69-4.88,3.69l-13.26-6c-1.22-.56-3.14-1-4.06-2-1.46-1.59-.39-4.29-.32-6.42.09-2.83.11-5.23,2.11-7.87a14.94,14.94,0,0,1,6.21-4.56C357.23,350,357.67,349.81,358.09,349.67Z"/><path class="cls-44" d="M365.91,380.27l2.87-7.54a3.66,3.66,0,0,0,3.28-3.76c.11-3.52-3.51-1.21-4.27-.18,0,0,1.51-12.13-4.51-13.3s-12.32.19-13.06,3.31-3,14.06-3.33,18.13,2.39,5.73,8.12,5.58C355,382.51,365.89,380.26,365.91,380.27Z"/><path class="cls-45" d="M349.55,360.41a5,5,0,0,1,1.16-4.48,10.84,10.84,0,0,1,4-2.93c3.73-1.7,13.62-3.54,12.76,2.57-.43,3-3.91,8.1-7.32,7.46-1.47-.28-2.09-1.74-3.85-1.26-.88.24-3.54,2.43-3.22.09A2.63,2.63,0,0,1,349.55,360.41Z"/><path class="cls-45" d="M370.24,366.3a11.82,11.82,0,0,0-4.3,6.07l-1.19,0c.35-1.62.5-3.06.86-4.68a10.48,10.48,0,0,1-.77-9.59c.54-1.37,1.62-2.89,3-3s2.19,1.25,2.54,2.54A15.92,15.92,0,0,1,370.24,366.3Z"/><ellipse class="cls-35" cx="325.96" cy="401.15" rx="12.23" ry="18.92" transform="matrix(0.96, -0.27, 0.27, 0.96, -95.5, 101.92)"/><polygon class="cls-39" points="317.04 402.51 321.36 410.43 336.26 400.14 334.75 396.69 322.66 405.63 320.13 400.78 317.04 402.51"/><polygon class="cls-13" points="42.77 492.36 16.77 477.35 42.77 462.34 68.76 477.35 42.77 492.36"/><polygon class="cls-13" points="42.77 472.53 59.94 482.44 68.76 477.35 42.77 462.34 16.77 477.35 25.59 482.44 42.77 472.53"/><polygon class="cls-46" points="42.77 472.53 59.94 482.44 68.76 477.35 42.77 462.34 16.77 477.35 25.59 482.44 42.77 472.53"/><polygon class="cls-47" points="68.61 477.44 67.66 301.6 16.34 301.6 16.92 477.43 42.76 492.36 68.61 477.44"/><circle class="cls-48" cx="46.21" cy="460.99" r="1.99"/><path class="cls-13" d="M22.29,445.18a1.24,1.24,0,1,1-1.24-1.24A1.24,1.24,0,0,1,22.29,445.18Z"/><path class="cls-49" d="M30.91,431.23A1.26,1.26,0,1,1,29.65,430,1.26,1.26,0,0,1,30.91,431.23Z"/><path class="cls-49" d="M67.28,426.66a.79.79,0,0,1-.79.79.79.79,0,0,1-.8-.79.8.8,0,0,1,.8-.8A.79.79,0,0,1,67.28,426.66Z"/><path class="cls-49" d="M65.23,422.51a1.67,1.67,0,1,1-1.67-1.66A1.67,1.67,0,0,1,65.23,422.51Z"/><path class="cls-49" d="M27,428.72a.81.81,0,1,1-.8-.81A.8.8,0,0,1,27,428.72Z"/><path class="cls-13" d="M26.06,467.69a1.23,1.23,0,1,1-1.23-1.23A1.23,1.23,0,0,1,26.06,467.69Z"/><circle class="cls-49" cx="33.43" cy="453.75" r="1.26"/><path class="cls-49" d="M30.82,451.23a.81.81,0,1,1-.81-.8A.81.81,0,0,1,30.82,451.23Z"/><path class="cls-48" d="M41.66,441.12A1.77,1.77,0,1,0,42.94,439,1.77,1.77,0,0,0,41.66,441.12Z"/><path class="cls-13" d="M60.48,421.82a1.09,1.09,0,1,0,.79-1.33A1.1,1.1,0,0,0,60.48,421.82Z"/><path class="cls-49" d="M50,411.72a1.13,1.13,0,0,0,1.36.8,1.11,1.11,0,0,0-.55-2.16A1.12,1.12,0,0,0,50,411.72Z"/><path class="cls-49" d="M17.69,415.77a.7.7,0,0,0,.86.51.69.69,0,0,0,.51-.85.71.71,0,0,0-1.37.34Z"/><path class="cls-49" d="M18.55,411.76a1.48,1.48,0,0,0,1.8,1.06,1.48,1.48,0,0,0-.73-2.86A1.48,1.48,0,0,0,18.55,411.76Z"/><path class="cls-49" d="M52.77,408.71a.71.71,0,1,0,.51-.87A.71.71,0,0,0,52.77,408.71Z"/><path class="cls-49" d="M61.35,468.46a.79.79,0,0,1-1.12-.1.78.78,0,0,1,.1-1.11.77.77,0,0,1,1.11.09A.79.79,0,0,1,61.35,468.46Z"/><path class="cls-49" d="M63.18,464.21a1.66,1.66,0,1,1,.2-2.35A1.66,1.66,0,0,1,63.18,464.21Z"/><path class="cls-13" d="M60.64,460.14a1.09,1.09,0,1,0,1.53-.26A1.09,1.09,0,0,0,60.64,460.14Z"/><path class="cls-49" d="M61.56,445.61a1.12,1.12,0,0,0,1.82,1.29,1.12,1.12,0,1,0-1.82-1.29Z"/><path class="cls-49" d="M65.65,445.77a.72.72,0,1,0,1.17.83.71.71,0,0,0-.17-1A.72.72,0,0,0,65.65,445.77Z"/><g class="cls-50"><path class="cls-46" d="M36.84,481.21a1.77,1.77,0,1,0,1.28-2.16A1.78,1.78,0,0,0,36.84,481.21Z"/><path class="cls-46" d="M42,471.63a1.25,1.25,0,1,0,.91-1.52A1.25,1.25,0,0,0,42,471.63Z"/></g><circle class="cls-48" cx="46.21" cy="438.33" r="1.99"/><path class="cls-13" d="M22.29,422.51a1.24,1.24,0,1,1-1.24-1.23A1.24,1.24,0,0,1,22.29,422.51Z"/><path class="cls-49" d="M30.91,408.57a1.26,1.26,0,1,1-1.26-1.26A1.25,1.25,0,0,1,30.91,408.57Z"/><path class="cls-49" d="M67.28,404a.79.79,0,0,1-.79.8.8.8,0,1,1,0-1.59A.79.79,0,0,1,67.28,404Z"/><path class="cls-49" d="M65.23,399.85a1.67,1.67,0,1,1-1.67-1.67A1.66,1.66,0,0,1,65.23,399.85Z"/><path class="cls-49" d="M27,406.06a.81.81,0,1,1-.8-.81A.8.8,0,0,1,27,406.06Z"/><path class="cls-13" d="M26.06,445a1.23,1.23,0,1,1-1.23-1.23A1.23,1.23,0,0,1,26.06,445Z"/><circle class="cls-49" cx="33.43" cy="431.08" r="1.26"/><path class="cls-49" d="M30.82,428.57a.81.81,0,1,1-.81-.8A.81.81,0,0,1,30.82,428.57Z"/><path class="cls-48" d="M41.66,418.46a1.77,1.77,0,1,0,1.28-2.15A1.77,1.77,0,0,0,41.66,418.46Z"/><path class="cls-13" d="M60.48,399.16a1.1,1.1,0,0,0,2.12-.55,1.1,1.1,0,1,0-2.12.55Z"/><path class="cls-49" d="M50,389.05a1.12,1.12,0,0,0,1.36.81,1.11,1.11,0,1,0-1.36-.81Z"/><path class="cls-49" d="M17.69,393.11a.71.71,0,1,0,1.37-.35.71.71,0,0,0-.86-.51A.72.72,0,0,0,17.69,393.11Z"/><path class="cls-49" d="M18.55,389.09a1.48,1.48,0,1,0,2.86-.73,1.48,1.48,0,0,0-2.86.73Z"/><path class="cls-49" d="M52.77,386a.71.71,0,1,0,.51-.87A.72.72,0,0,0,52.77,386Z"/><path class="cls-49" d="M61.35,445.79a.79.79,0,0,1-1.12-.09.79.79,0,0,1,1.21-1A.78.78,0,0,1,61.35,445.79Z"/><path class="cls-49" d="M63.18,441.54a1.66,1.66,0,1,1,.2-2.34A1.65,1.65,0,0,1,63.18,441.54Z"/><path class="cls-13" d="M60.64,437.47a1.09,1.09,0,1,0,1.53-.26A1.1,1.1,0,0,0,60.64,437.47Z"/><path class="cls-49" d="M61.56,422.94a1.12,1.12,0,0,0,.27,1.56,1.12,1.12,0,0,0,1.29-1.82A1.12,1.12,0,0,0,61.56,422.94Z"/><path class="cls-49" d="M65.65,423.11a.72.72,0,1,0,1-.17A.72.72,0,0,0,65.65,423.11Z"/><g class="cls-50"><path class="cls-46" d="M36.84,458.54a1.77,1.77,0,1,0,1.28-2.15A1.78,1.78,0,0,0,36.84,458.54Z"/><path class="cls-46" d="M42,449a1.25,1.25,0,1,0,.91-1.53A1.25,1.25,0,0,0,42,449Z"/></g><polygon class="cls-13" points="465.82 487.51 439.83 472.5 465.82 457.49 491.81 472.5 465.82 487.51"/><polygon class="cls-13" points="465.82 467.68 482.99 477.59 491.81 472.5 465.82 457.49 439.83 472.5 448.65 477.59 465.82 467.68"/><polygon class="cls-46" points="465.82 467.68 482.99 477.59 491.81 472.5 465.82 457.49 439.83 472.5 448.65 477.59 465.82 467.68"/><polygon class="cls-51" points="491.67 472.58 490.72 296.75 439.4 296.75 439.97 472.58 465.82 487.51 491.67 472.58"/><circle class="cls-48" cx="469.26" cy="456.14" r="1.99"/><path class="cls-13" d="M445.34,440.33a1.23,1.23,0,1,1-1.23-1.24A1.23,1.23,0,0,1,445.34,440.33Z"/><path class="cls-49" d="M454,426.38a1.26,1.26,0,1,1-1.25-1.26A1.26,1.26,0,0,1,454,426.38Z"/><path class="cls-49" d="M490.34,421.81a.8.8,0,1,1-.8-.8A.8.8,0,0,1,490.34,421.81Z"/><path class="cls-49" d="M488.28,417.66a1.67,1.67,0,1,1-1.66-1.66A1.66,1.66,0,0,1,488.28,417.66Z"/><path class="cls-49" d="M450.1,423.87a.81.81,0,1,1-.81-.81A.8.8,0,0,1,450.1,423.87Z"/><path class="cls-13" d="M449.12,462.84a1.24,1.24,0,1,1-1.24-1.23A1.24,1.24,0,0,1,449.12,462.84Z"/><circle class="cls-49" cx="456.48" cy="448.9" r="1.26"/><path class="cls-49" d="M453.87,446.38a.81.81,0,1,1-.8-.8A.8.8,0,0,1,453.87,446.38Z"/><path class="cls-48" d="M464.71,436.27a1.77,1.77,0,1,0,1.28-2.15A1.78,1.78,0,0,0,464.71,436.27Z"/><path class="cls-13" d="M483.53,417a1.09,1.09,0,0,0,2.12-.54,1.09,1.09,0,0,0-2.12.54Z"/><path class="cls-49" d="M473.05,406.87a1.12,1.12,0,1,0,.8-1.36A1.12,1.12,0,0,0,473.05,406.87Z"/><path class="cls-49" d="M440.75,410.92a.71.71,0,1,0,.51-.85A.69.69,0,0,0,440.75,410.92Z"/><path class="cls-49" d="M441.61,406.91a1.48,1.48,0,1,0,1.06-1.8A1.47,1.47,0,0,0,441.61,406.91Z"/><path class="cls-49" d="M475.82,403.86a.72.72,0,1,0,.52-.87A.71.71,0,0,0,475.82,403.86Z"/><path class="cls-49" d="M484.41,463.61a.79.79,0,0,1-1.12-.1.79.79,0,0,1,1.21-1A.8.8,0,0,1,484.41,463.61Z"/><path class="cls-49" d="M486.24,459.36a1.66,1.66,0,1,1,.19-2.35A1.67,1.67,0,0,1,486.24,459.36Z"/><path class="cls-13" d="M483.7,455.29a1.09,1.09,0,1,0,1.52-.26A1.09,1.09,0,0,0,483.7,455.29Z"/><path class="cls-49" d="M484.62,440.76a1.11,1.11,0,0,0,.26,1.55,1.12,1.12,0,1,0,1.29-1.82A1.11,1.11,0,0,0,484.62,440.76Z"/><path class="cls-49" d="M488.71,440.92a.72.72,0,0,0,.17,1,.71.71,0,0,0,1-.17.7.7,0,0,0-.17-1A.71.71,0,0,0,488.71,440.92Z"/><g class="cls-50"><path class="cls-46" d="M459.9,476.36a1.77,1.77,0,1,0,1.27-2.16A1.77,1.77,0,0,0,459.9,476.36Z"/><path class="cls-46" d="M465,466.78a1.25,1.25,0,1,0,.9-1.52A1.25,1.25,0,0,0,465,466.78Z"/></g><circle class="cls-48" cx="469.26" cy="433.48" r="1.99"/><path class="cls-13" d="M445.34,417.66a1.23,1.23,0,1,1-1.23-1.23A1.23,1.23,0,0,1,445.34,417.66Z"/><path class="cls-49" d="M454,403.72a1.26,1.26,0,1,1-1.25-1.26A1.25,1.25,0,0,1,454,403.72Z"/><path class="cls-49" d="M490.34,399.14a.8.8,0,1,1-.8-.79A.8.8,0,0,1,490.34,399.14Z"/><path class="cls-49" d="M488.28,395a1.67,1.67,0,0,1-3.33,0,1.67,1.67,0,1,1,3.33,0Z"/><path class="cls-49" d="M450.1,401.21a.81.81,0,1,1-.81-.81A.8.8,0,0,1,450.1,401.21Z"/><path class="cls-13" d="M449.12,440.18a1.24,1.24,0,1,1-1.24-1.23A1.24,1.24,0,0,1,449.12,440.18Z"/><circle class="cls-49" cx="456.48" cy="426.23" r="1.26"/><path class="cls-49" d="M453.87,423.72a.81.81,0,1,1-.8-.8A.8.8,0,0,1,453.87,423.72Z"/><path class="cls-48" d="M464.71,413.61a1.77,1.77,0,1,0,3.43-.88,1.77,1.77,0,0,0-3.43.88Z"/><path class="cls-13" d="M483.53,394.31a1.1,1.1,0,1,0,.79-1.34A1.11,1.11,0,0,0,483.53,394.31Z"/><path class="cls-49" d="M473.05,384.2a1.11,1.11,0,1,0,2.16-.55,1.11,1.11,0,0,0-2.16.55Z"/><path class="cls-49" d="M440.75,388.26a.7.7,0,0,0,.86.51.72.72,0,0,0,.51-.86.71.71,0,0,0-.86-.51A.7.7,0,0,0,440.75,388.26Z"/><path class="cls-49" d="M441.61,384.24a1.48,1.48,0,1,0,1.06-1.79A1.47,1.47,0,0,0,441.61,384.24Z"/><path class="cls-49" d="M475.82,381.19a.72.72,0,1,0,.52-.87A.72.72,0,0,0,475.82,381.19Z"/><path class="cls-49" d="M484.41,440.94a.78.78,0,0,1-1.12-.09.79.79,0,0,1,.09-1.12.79.79,0,1,1,1,1.21Z"/><path class="cls-49" d="M486.24,436.69a1.66,1.66,0,1,1,.19-2.34A1.67,1.67,0,0,1,486.24,436.69Z"/><path class="cls-13" d="M483.7,432.62a1.09,1.09,0,1,0,1.52-.26A1.1,1.1,0,0,0,483.7,432.62Z"/><path class="cls-49" d="M484.62,418.09a1.12,1.12,0,1,0,1.55-.26A1.11,1.11,0,0,0,484.62,418.09Z"/><path class="cls-49" d="M488.71,418.26a.72.72,0,0,0,.17,1,.71.71,0,1,0-.17-1Z"/><g class="cls-50"><path class="cls-46" d="M459.9,453.69a1.77,1.77,0,1,0,1.27-2.15A1.77,1.77,0,0,0,459.9,453.69Z"/><path class="cls-46" d="M465,444.12a1.25,1.25,0,1,0,.9-1.53A1.25,1.25,0,0,0,465,444.12Z"/></g><g class="cls-52"><path class="cls-53" d="M310.83,177.52c-15.2-8.77-42.42-7.35-60.66,3.19s-20.73,26.25-5.52,35l122.41,70.67c15.2,8.78,42.42,7.35,60.67-3.19s20.72-26.24,5.51-35Z"/><path class="cls-54" d="M311.23,178.79c-14.89-8.6-41.46-7.24-59.24,3s-20.13,25.61-5.25,34.21L366.57,285.2c14.89,8.59,41.46,7.23,59.24-3s20.13-25.61,5.25-34.2Z"/><path class="cls-55" d="M311.63,180.05c-14.57-8.41-40.5-7.12-57.81,2.87s-19.55,25-5,33.38L366.09,284c14.56,8.41,40.49,7.12,57.8-2.88s19.55-25,5-33.37Z"/><path class="cls-56" d="M312,181.31c-14.24-8.23-39.53-7-56.37,2.72s-19,24.32-4.72,32.55l114.67,66.2c14.24,8.23,39.53,7,56.38-2.72s18.95-24.33,4.71-32.55Z"/><path class="cls-57" d="M312.42,182.57c-13.93-8-38.58-6.89-54.95,2.56S239.1,208.82,253,216.86l112.09,64.72c13.93,8,38.57,6.88,54.95-2.57s18.37-23.69,4.45-31.73Z"/><path class="cls-58" d="M312.82,183.83c-13.61-7.86-37.62-6.77-53.52,2.41s-17.79,23-4.18,30.9l109.51,63.23c13.6,7.85,37.61,6.77,53.52-2.42s17.78-23,4.18-30.9Z"/><path class="cls-59" d="M313.21,185.09c-13.28-7.67-36.65-6.66-52.09,2.26s-17.19,22.4-3.91,30.07l106.93,61.74c13.28,7.67,36.65,6.65,52.09-2.26s17.19-22.41,3.91-30.07Z"/><path class="cls-60" d="M313.61,186.35c-13-7.48-35.69-6.54-50.66,2.1s-16.61,21.77-3.65,29.25L363.65,278c13,7.48,35.69,6.54,50.66-2.11s16.61-21.76,3.65-29.24Z"/><path class="cls-61" d="M314,187.61c-12.64-7.3-34.72-6.42-49.22,1.95s-16,21.12-3.38,28.42l101.77,58.76c12.64,7.3,34.72,6.42,49.23-1.95s16-21.12,3.37-28.42Z"/><path class="cls-62" d="M314.4,188.87c-12.32-7.11-33.76-6.31-47.8,1.8s-15.43,20.48-3.11,27.59l99.19,57.27c12.32,7.11,33.76,6.31,47.8-1.8s15.43-20.48,3.11-27.59Z"/><path class="cls-63" d="M314.8,190.13c-12-6.93-32.81-6.19-46.37,1.64s-14.85,19.85-2.85,26.78l96.61,55.77c12,6.93,32.8,6.19,46.37-1.64s14.85-19.84,2.85-26.77Z"/><path class="cls-64" d="M315.19,191.39c-11.68-6.74-31.84-6.07-44.94,1.49s-14.25,19.2-2.57,26l94,54.29c11.67,6.74,31.84,6.07,44.94-1.49s14.25-19.21,2.57-25.95Z"/><path class="cls-65" d="M315.59,192.65c-11.36-6.56-30.88-6-43.51,1.34s-13.67,18.56-2.31,25.12l91.45,52.8c11.36,6.55,30.88,6,43.51-1.34S418.4,252,407,245.45Z"/><path class="cls-66" d="M316,193.91c-11-6.37-29.92-5.84-42.08,1.18s-13.09,17.92-2.05,24.3l88.87,51.31c11,6.37,29.92,5.84,42.08-1.18s13.08-17.92,2.05-24.3Z"/><path class="cls-67" d="M316.38,195.18c-10.72-6.19-28.95-5.73-40.65,1s-12.49,17.28-1.77,23.47l86.29,49.82c10.71,6.19,28.95,5.73,40.65-1s12.49-17.28,1.77-23.47Z"/><path class="cls-68" d="M316.78,196.44c-10.4-6-28-5.62-39.22.86S265.65,214,276.05,220l83.71,48.33c10.4,6,28,5.61,39.22-.87s11.91-16.64,1.51-22.64Z"/><path class="cls-69" d="M317.18,197.7c-10.08-5.82-27-5.5-37.8.71s-11.31,16-1.24,21.82l81.13,46.84c10.08,5.82,27,5.5,37.79-.72s11.32-16,1.24-21.81Z"/><path class="cls-70" d="M317.57,199c-9.76-5.64-26.07-5.38-36.36.56s-10.73,15.36-1,21l78.55,45.35c9.75,5.64,26.06,5.38,36.36-.56s10.73-15.36,1-21Z"/><path class="cls-71" d="M318,200.22c-9.44-5.45-25.11-5.27-34.93.4s-10.15,14.73-.71,20.17l76,43.86c9.43,5.45,25.11,5.27,34.93-.4s10.14-14.72.71-20.17Z"/><path class="cls-72" d="M318.36,201.48c-9.11-5.26-24.14-5.15-33.5.25s-9.55,14.08-.44,19.34l73.39,42.38c9.12,5.26,24.15,5.14,33.51-.26s9.55-14.08.43-19.34Z"/><path class="cls-73" d="M318.76,202.74c-8.8-5.08-23.18-5-32.07.1s-9,13.44-.17,18.52l70.81,40.88c8.79,5.07,23.18,5,32.07-.1s9-13.44.17-18.52Z"/><path class="cls-74" d="M319.16,204c-8.48-4.89-22.23-4.92-30.65-.06s-8.38,12.8.1,17.7L356.84,261c8.47,4.89,22.22,4.92,30.64.05s8.38-12.8-.09-17.69Z"/></g><path class="cls-75" d="M441.48,199.8a27.58,27.58,0,0,1-3-.47l-1-.24c-.71-.18-1.42-.37-2.15-.61-.39-.12-.78-.27-1.17-.41-.69-.25-1.39-.53-2.09-.84l-1.22-.55c-1-.46-1.92-1-2.9-1.51l1.56-.91L289.62,113.47A45.56,45.56,0,0,1,276.1,100.9a57.59,57.59,0,0,1-8.75-17.32c-.26-.87-.49-1.74-.7-2.61-.08-.33-.15-.67-.23-1-.13-.61-.25-1.21-.35-1.82-.06-.34-.12-.68-.17-1-.09-.63-.16-1.26-.23-1.89l-.09-.88c-.06-.91-.11-1.81-.1-2.7,0-5.78,1.55-10.24,4.18-13.18a11.83,11.83,0,0,1,2.89-2.36l-53.32,31a11.65,11.65,0,0,0-2.89,2.37c-2.63,2.94-4.17,7.39-4.18,13.17,0,.89,0,1.8.11,2.71,0,.29.06.59.09.88.06.63.13,1.25.22,1.88,0,.35.11.69.17,1,.11.6.22,1.21.36,1.81.07.34.14.68.23,1,0,.18.07.37.12.55.17.69.36,1.37.57,2a57.47,57.47,0,0,0,8.75,17.32,45.68,45.68,0,0,0,13.52,12.57l139.77,80.7-1.57.92c.8.46,1.59.89,2.38,1.28.23.12.46.2.69.31.41.2.81.38,1.22.55.7.31,1.4.59,2.08.84.4.15.79.29,1.19.42q1.08.34,2.13.6c.33.08.66.18,1,.25a27.5,27.5,0,0,0,3,.46,18.71,18.71,0,0,0,11.3-2.27l53.32-31A18.73,18.73,0,0,1,441.48,199.8Z"/><path class="cls-6" d="M267.65,47.7l-53.31,31a15.26,15.26,0,0,1,4.72-1.78c4.45-.88,9.74,0,15.41,2.85l53.32-31c-5.68-2.86-11-3.74-15.41-2.85A15.4,15.4,0,0,0,267.65,47.7Z"/><g class="cls-29"><path class="cls-76" d="M267.65,47.7l-53.31,31a15.26,15.26,0,0,1,4.72-1.78c4.45-.88,9.74,0,15.41,2.85l53.32-31c-5.68-2.86-11-3.74-15.41-2.85A15.4,15.4,0,0,0,267.65,47.7Z"/></g><path class="cls-2" d="M239.57,89.39l53.32-31a2,2,0,0,0,.91-1.4c1-4.66,3.31-8,6.5-9.88L247,78.12c-3.19,1.85-5.48,5.22-6.5,9.87A2,2,0,0,1,239.57,89.39Z"/><g class="cls-77"><path class="cls-3" d="M239.57,89.39l53.32-31a2,2,0,0,0,.91-1.4c1-4.66,3.31-8,6.5-9.88L247,78.12c-3.19,1.85-5.48,5.22-6.5,9.87a2,2,0,0,1-.91,1.4Z"/></g><path class="cls-6" d="M295.41,38.72l-53.32,31a14.35,14.35,0,0,1,2.48-1.15c5.36-1.92,12.22-1,19.66,3.32a49.4,49.4,0,0,1,7.94,5.77l53.32-31a50.65,50.65,0,0,0-7.94-5.77c-7.44-4.29-14.3-5.24-19.66-3.32A15.14,15.14,0,0,0,295.41,38.72Z"/><g class="cls-29"><path class="cls-78" d="M295.41,38.72l-53.32,31a14.35,14.35,0,0,1,2.48-1.15c5.36-1.92,12.22-1,19.66,3.32a49.4,49.4,0,0,1,7.94,5.77l53.32-31a50.65,50.65,0,0,0-7.94-5.77c-7.44-4.29-14.3-5.24-19.66-3.32A15.14,15.14,0,0,0,295.41,38.72Z"/></g><path class="cls-3" d="M277.92,89.3l53.32-31a2.45,2.45,0,0,0,1-2.3V54.89c0-9.91,2.67-17.57,7.17-22.61a20.13,20.13,0,0,1,4.95-4.06L291,59.2a20.35,20.35,0,0,0-5,4.06c-4.5,5-7.14,12.7-7.17,22.61V87A2.45,2.45,0,0,1,277.92,89.3Z"/><g class="cls-79"><g class="cls-4"><path class="cls-3" d="M277.92,89.3l53.32-31a2.45,2.45,0,0,0,1-2.3V54.89c0-9.91,2.67-17.57,7.17-22.61a20.13,20.13,0,0,1,4.95-4.06L291,59.2a20.35,20.35,0,0,0-5,4.06c-4.5,5-7.14,12.7-7.17,22.61V87a2.45,2.45,0,0,1-1,2.31Z"/></g></g><path class="cls-80" d="M219.06,76.91c4.45-.88,9.74,0,15.41,2.85,1.86-5.69,5.42-9.53,10.1-11.2,5.36-1.92,12.22-1,19.66,3.32a49.4,49.4,0,0,1,7.94,5.77,43,43,0,0,1,3.72-15.25c3.71-7.87,9.88-12.82,17.63-14.36s17.1.34,27.13,6.13A83.69,83.69,0,0,1,339.5,69.44a115.73,115.73,0,0,1,21.27,32.49,94.86,94.86,0,0,1,8,31.14,48.45,48.45,0,0,1,7.68,3.62,72.56,72.56,0,0,1,16.33,13.23,100.52,100.52,0,0,1,18.42,28.13c4.5,10.31,7.12,21.15,7.09,31.12A39.71,39.71,0,0,1,415,226c-3.21,6.82-8.55,11.11-15.27,12.45s-14.81-.3-23.5-5.32L236.28,152.38a53.59,53.59,0,0,1-12.11-9.8,74.51,74.51,0,0,1-13.65-20.86,58.5,58.5,0,0,1-5.26-23.07,29.61,29.61,0,0,1,2.48-12.51A15.77,15.77,0,0,1,219.06,76.91Zm-5,37.65a57.36,57.36,0,0,0,8.75,17.32,45.59,45.59,0,0,0,13.53,12.57l139.93,80.79A33.62,33.62,0,0,0,389.9,230c6.3.58,11.68-1.44,15.48-5.69s6-10.72,6.05-19.08a59.64,59.64,0,0,0-2.71-17.28,83.48,83.48,0,0,0-12.66-25.08c-5.59-7.59-12.32-14-19.6-18.21a37,37,0,0,0-10-4.1,3.78,3.78,0,0,1-1-.41,6.55,6.55,0,0,1-2.06-2,7.41,7.41,0,0,1-1.37-4.24,70.8,70.8,0,0,0-3.21-20.49,99,99,0,0,0-15-29.71c-6.62-9-14.59-16.6-23.21-21.58a40.22,40.22,0,0,0-16.2-5.59c-7.46-.68-13.84,1.71-18.34,6.75S279,76,278.92,85.87V87c0,1.38-.55,2.32-1.54,2.51a2.81,2.81,0,0,1-1.91-.44,5.67,5.67,0,0,1-1.41-1.16,42.21,42.21,0,0,0-9.85-8.09c-5.81-3.35-11.11-4.08-15.3-2.59s-7.22,5.22-8.43,10.77c-.35,1.63-1.75,2.11-3.45,1.13l-.57-.34A23.48,23.48,0,0,0,227,85.52a12.28,12.28,0,0,0-10.69,3.94c-2.63,2.94-4.17,7.39-4.18,13.17A41.43,41.43,0,0,0,214,114.56Z"/><path class="cls-6" d="M406.09,236.1l53.32-31a22.31,22.31,0,0,0,8.89-10.05,39.91,39.91,0,0,0,3.35-16.88c0-10-2.59-20.8-7.09-31.11a100.43,100.43,0,0,0-18.42-28.14,72.73,72.73,0,0,0-16.33-13.22,48.54,48.54,0,0,0-7.68-3.63l-53.32,31a48.45,48.45,0,0,1,7.68,3.62,72.56,72.56,0,0,1,16.33,13.23,100.52,100.52,0,0,1,18.42,28.13c4.5,10.31,7.12,21.15,7.09,31.12A39.71,39.71,0,0,1,415,226,22.38,22.38,0,0,1,406.09,236.1Z"/><path class="cls-81" d="M406.09,236.1l53.32-31a22.31,22.31,0,0,0,8.89-10.05,39.91,39.91,0,0,0,3.35-16.88c0-10-2.59-20.8-7.09-31.11a100.43,100.43,0,0,0-18.42-28.14,72.73,72.73,0,0,0-16.33-13.22,48.54,48.54,0,0,0-7.68-3.63l-53.32,31a48.45,48.45,0,0,1,7.68,3.62,72.56,72.56,0,0,1,16.33,13.23,100.52,100.52,0,0,1,18.42,28.13c4.5,10.31,7.12,21.15,7.09,31.12A39.71,39.71,0,0,1,415,226,22.38,22.38,0,0,1,406.09,236.1Z"/><path class="cls-6" d="M339.47,19.81l-53.31,31A23.7,23.7,0,0,1,293.52,48c7.75-1.54,17.1.34,27.13,6.13A83.69,83.69,0,0,1,339.5,69.44a115.73,115.73,0,0,1,21.27,32.49,94.86,94.86,0,0,1,8,31.14l53.32-31a94.8,94.8,0,0,0-8-31.13,115.45,115.45,0,0,0-21.27-32.49A83.74,83.74,0,0,0,374,23.18c-10-5.79-19.38-7.67-27.13-6.13A23.87,23.87,0,0,0,339.47,19.81Z"/><path class="cls-82" d="M339.47,19.81l-53.31,31A23.7,23.7,0,0,1,293.52,48c7.75-1.54,17.1.34,27.13,6.13A83.69,83.69,0,0,1,339.5,69.44a115.73,115.73,0,0,1,21.27,32.49,94.86,94.86,0,0,1,8,31.14l53.32-31a94.8,94.8,0,0,0-8-31.13,115.45,115.45,0,0,0-21.27-32.49A83.74,83.74,0,0,0,374,23.18c-10-5.79-19.38-7.67-27.13-6.13A23.87,23.87,0,0,0,339.47,19.81Z"/><g class="cls-52"><path class="cls-53" d="M125.69,190.45C115,184.3,96,185.3,83.2,192.68s-14.51,18.38-3.86,24.53l85.74,49.5c10.65,6.15,29.71,5.15,42.49-2.23s14.52-18.38,3.87-24.53Z"/><path class="cls-54" d="M126,191.33c-10.42-6-29-5.07-41.49,2.12s-14.1,17.94-3.68,24l83.94,48.46c10.42,6,29,5.06,41.49-2.13s14.1-17.93,3.68-24Z"/><path class="cls-55" d="M126.25,192.21c-10.2-5.89-28.37-5-40.49,2s-13.69,17.48-3.49,23.37L164.4,265c10.2,5.89,28.36,5,40.49-2s13.69-17.49,3.49-23.38Z"/><path class="cls-56" d="M126.53,193.1c-10-5.77-27.7-4.91-39.49,1.9s-13.28,17-3.3,22.8l80.32,46.38c10,5.75,27.69,4.9,39.49-1.91s13.27-17,3.3-22.8Z"/><path class="cls-57" d="M126.81,194c-9.76-5.63-27-4.83-38.49,1.8S75.45,212.37,85.2,218l78.52,45.33c9.75,5.63,27,4.82,38.48-1.8s12.87-16.59,3.12-22.22Z"/><path class="cls-58" d="M127.08,194.86c-9.53-5.5-26.34-4.74-37.48,1.69s-12.46,16.14-2.93,21.65l76.7,44.28c9.53,5.5,26.35,4.74,37.49-1.69s12.46-16.14,2.93-21.64Z"/><path class="cls-59" d="M127.36,195.74c-9.3-5.37-25.67-4.66-36.48,1.59s-12,15.69-2.75,21.06L163,261.64c9.31,5.37,25.67,4.66,36.49-1.59s12-15.69,2.74-21.06Z"/><path class="cls-60" d="M127.64,196.63c-9.08-5.24-25-4.58-35.49,1.47s-11.63,15.25-2.55,20.49l73.09,42.2c9.08,5.24,25,4.58,35.49-1.48s11.63-15.24,2.55-20.48Z"/><path class="cls-61" d="M127.92,197.51c-8.86-5.11-24.33-4.5-34.49,1.37s-11.22,14.79-2.36,19.91l71.28,41.15c8.86,5.11,24.32,4.5,34.48-1.37s11.22-14.79,2.37-19.9Z"/><path class="cls-62" d="M128.19,198.39c-8.63-5-23.65-4.41-33.48,1.26S83.9,214,92.53,219L162,259.1c8.63,5,23.65,4.41,33.48-1.26s10.81-14.35,2.18-19.33Z"/><path class="cls-63" d="M128.47,199.28c-8.41-4.86-23-4.34-32.48,1.15s-10.4,13.9-2,18.75l67.67,39.07c8.4,4.85,23,4.34,32.48-1.15s10.4-13.9,2-18.75Z"/><path class="cls-64" d="M128.75,200.16c-8.18-4.72-22.3-4.26-31.48,1s-10,13.45-1.8,18.18l65.86,38c8.18,4.73,22.3,4.26,31.48-1s10-13.45,1.8-18.17Z"/><path class="cls-65" d="M129,201c-8-4.59-21.63-4.17-30.48.94S89,215,96.93,219.57l64.06,37c7.95,4.59,21.63,4.17,30.48-.94s9.57-13,1.61-17.59Z"/><path class="cls-66" d="M129.3,201.93c-7.73-4.47-21-4.1-29.47.82s-9.16,12.56-1.43,17l62.25,35.94c7.73,4.46,20.95,4.09,29.47-.83s9.16-12.55,1.43-17Z"/><path class="cls-67" d="M129.58,202.81c-7.51-4.34-20.28-4-28.47.72s-8.75,12.1-1.25,16.44l60.45,34.89c7.5,4.34,20.28,4,28.47-.72s8.75-12.1,1.24-16.43Z"/><path class="cls-68" d="M129.86,203.69c-7.28-4.2-19.61-3.93-27.47.61s-8.34,11.66-1.06,15.86L160,254c7.28,4.2,19.6,3.93,27.47-.61s8.34-11.66,1.05-15.86Z"/><path class="cls-69" d="M130.14,204.58c-7.06-4.08-18.94-3.86-26.47.5s-7.93,11.2-.87,15.28l56.82,32.81c7.06,4.07,18.94,3.85,26.48-.5s7.92-11.21.86-15.29Z"/><path class="cls-70" d="M130.41,205.46c-6.83-4-18.26-3.77-25.47.39s-7.51,10.76-.68,14.71l55,31.76c6.84,3.95,18.26,3.77,25.47-.39s7.52-10.76.69-14.71Z"/><path class="cls-71" d="M130.69,206.34c-6.61-3.82-17.58-3.69-24.47.29s-7.1,10.31-.49,14.12l53.21,30.73c6.61,3.81,17.59,3.68,24.47-.29s7.1-10.31.5-14.13Z"/><path class="cls-72" d="M131,207.22c-6.39-3.68-16.91-3.6-23.47.18s-6.69,9.86-.3,13.55l51.4,29.68c6.39,3.69,16.91,3.61,23.47-.18s6.69-9.86.31-13.55Z"/><path class="cls-73" d="M131.25,208.11c-6.16-3.56-16.24-3.53-22.47.07s-6.28,9.41-.12,13l49.6,28.63c6.16,3.56,16.24,3.53,22.47-.07s6.28-9.41.12-13Z"/><path class="cls-74" d="M131.53,209c-5.94-3.43-15.57-3.44-21.47,0s-5.87,9,.07,12.39l47.79,27.6c5.94,3.42,15.56,3.44,21.46,0s5.87-9-.06-12.39Z"/></g><path class="cls-83" d="M217.21,206.05a19.85,19.85,0,0,1-2.1-.33l-.68-.17c-.5-.12-1-.26-1.5-.42-.27-.09-.55-.19-.82-.3-.49-.17-1-.37-1.47-.58l-.85-.39c-.67-.32-1.35-.66-2-1.05l1.09-.64-98-56.59a32.16,32.16,0,0,1-9.48-8.81,40.67,40.67,0,0,1-6.13-12.13c-.18-.61-.33-1.22-.48-1.82-.06-.24-.11-.48-.16-.72-.09-.42-.18-.84-.25-1.27l-.12-.71c-.06-.45-.11-.88-.16-1.32l-.06-.62c0-.64-.08-1.27-.08-1.9,0-4,1.09-7.17,2.93-9.23a8.4,8.4,0,0,1,2-1.65L61.53,127.1a8.21,8.21,0,0,0-2,1.66c-1.85,2.06-2.92,5.18-2.93,9.23,0,.62,0,1.25.07,1.89,0,.21,0,.41.07.62q.06.66.15,1.32l.12.72c.08.42.16.84.25,1.27,0,.24.1.47.16.71l.09.39c.12.48.25,1,.4,1.43A40.26,40.26,0,0,0,64,158.48a32,32,0,0,0,9.47,8.8l97.9,56.52-1.1.65c.56.32,1.12.62,1.67.9l.48.22.86.38c.49.22,1,.41,1.46.59l.82.29c.51.16,1,.3,1.5.42.23.06.46.13.69.17a17.73,17.73,0,0,0,2.09.33,13.12,13.12,0,0,0,7.91-1.59l37.35-21.71A13.12,13.12,0,0,1,217.21,206.05Z"/><path class="cls-6" d="M95.45,99.51,58.1,121.21A11,11,0,0,1,61.41,120c3.12-.62,6.82,0,10.79,2l37.35-21.71c-4-2-7.67-2.61-10.79-2A10.73,10.73,0,0,0,95.45,99.51Z"/><g class="cls-29"><path class="cls-84" d="M95.45,99.51,58.1,121.21A11,11,0,0,1,61.41,120c3.12-.62,6.82,0,10.79,2l37.35-21.71c-4-2-7.67-2.61-10.79-2A10.73,10.73,0,0,0,95.45,99.51Z"/></g><path class="cls-2" d="M75.78,128.71,113.13,107a1.45,1.45,0,0,0,.64-1,10.12,10.12,0,0,1,4.54-6.92L81,120.82a10.09,10.09,0,0,0-4.55,6.91A1.42,1.42,0,0,1,75.78,128.71Z"/><g class="cls-85"><path class="cls-3" d="M75.78,128.71,113.13,107a1.45,1.45,0,0,0,.64-1,10.12,10.12,0,0,1,4.54-6.92L81,120.82a10.09,10.09,0,0,0-4.55,6.91,1.42,1.42,0,0,1-.64,1Z"/></g><path class="cls-6" d="M114.89,93.22,77.54,114.93a10.61,10.61,0,0,1,1.74-.81c3.75-1.34,8.56-.68,13.77,2.33a33.69,33.69,0,0,1,5.56,4L136,98.78a35.35,35.35,0,0,0-5.56-4c-5.21-3-10-3.67-13.77-2.32A9.8,9.8,0,0,0,114.89,93.22Z"/><g class="cls-29"><path class="cls-86" d="M114.89,93.22,77.54,114.93a10.61,10.61,0,0,1,1.74-.81c3.75-1.34,8.56-.68,13.77,2.33a33.69,33.69,0,0,1,5.56,4L136,98.78a35.35,35.35,0,0,0-5.56-4c-5.21-3-10-3.67-13.77-2.32A9.8,9.8,0,0,0,114.89,93.22Z"/></g><path class="cls-3" d="M102.64,128.65,140,106.94a1.72,1.72,0,0,0,.7-1.61v-.79c0-6.94,1.87-12.3,5-15.83a14.45,14.45,0,0,1,3.47-2.85l-37.35,21.71a14.18,14.18,0,0,0-3.47,2.84c-3.15,3.53-5,8.89-5,15.84V127A1.73,1.73,0,0,1,102.64,128.65Z"/><g class="cls-87"><g class="cls-4"><path class="cls-3" d="M102.64,128.65,140,106.94a1.72,1.72,0,0,0,.7-1.61v-.79c0-6.94,1.87-12.3,5-15.83a14.45,14.45,0,0,1,3.47-2.85l-37.35,21.71a14.18,14.18,0,0,0-3.47,2.84c-3.15,3.53-5,8.89-5,15.84V127a1.73,1.73,0,0,1-.7,1.62Z"/></g></g><path class="cls-88" d="M61.41,120c3.12-.62,6.82,0,10.79,2,1.31-4,3.8-6.68,7.08-7.85,3.75-1.34,8.56-.68,13.77,2.33a33.69,33.69,0,0,1,5.56,4,30,30,0,0,1,2.61-10.68c2.6-5.52,6.92-9,12.35-10.06s12,.24,19,4.29a58.69,58.69,0,0,1,13.21,10.7,80.93,80.93,0,0,1,14.89,22.76,66.13,66.13,0,0,1,5.63,21.8,34.17,34.17,0,0,1,5.38,2.54,50.91,50.91,0,0,1,11.44,9.27A70.07,70.07,0,0,1,196,190.82a55.16,55.16,0,0,1,5,21.79,27.85,27.85,0,0,1-2.35,11.82A14.86,14.86,0,0,1,188,233.15c-4.7.93-10.38-.21-16.46-3.73l-98-56.58A38,38,0,0,1,65,166a52.12,52.12,0,0,1-9.56-14.62,41,41,0,0,1-3.69-16.16,20.76,20.76,0,0,1,1.74-8.76A11,11,0,0,1,61.41,120Zm-3.52,26.37A40.26,40.26,0,0,0,64,158.48a32.09,32.09,0,0,0,9.47,8.8l98,56.59a23.59,23.59,0,0,0,9.57,3.3,12.47,12.47,0,0,0,10.84-4c2.66-3,4.22-7.51,4.24-13.37a42,42,0,0,0-1.9-12.1,58.76,58.76,0,0,0-8.87-17.57,46.36,46.36,0,0,0-13.72-12.75,26.09,26.09,0,0,0-7-2.88,2.51,2.51,0,0,1-.69-.28,4.72,4.72,0,0,1-1.44-1.39,5.11,5.11,0,0,1-1-3,49.88,49.88,0,0,0-2.25-14.35,69.41,69.41,0,0,0-10.51-20.81,55,55,0,0,0-16.27-15.11,28,28,0,0,0-11.34-3.92,14.78,14.78,0,0,0-12.85,4.73c-3.15,3.53-5,8.89-5,15.84V127c0,1-.39,1.63-1.08,1.76a2,2,0,0,1-1.34-.31,4.21,4.21,0,0,1-1-.81A29.46,29.46,0,0,0,93,122c-4.06-2.35-7.78-2.86-10.71-1.81s-5.06,3.66-5.9,7.54c-.25,1.14-1.23,1.48-2.42.79l-.4-.23A16.4,16.4,0,0,0,67,126a8.59,8.59,0,0,0-7.48,2.76c-1.85,2.06-2.92,5.18-2.93,9.23a28.8,28.8,0,0,0,1.31,8.35Z"/><path class="cls-6" d="M192.42,231.47l37.34-21.7a15.63,15.63,0,0,0,6.23-7,27.88,27.88,0,0,0,2.35-11.82,55.17,55.17,0,0,0-5-21.8,70.29,70.29,0,0,0-12.9-19.71A50.81,50.81,0,0,0,209,140.14a34.59,34.59,0,0,0-5.38-2.54L166.3,159.3a34.17,34.17,0,0,1,5.38,2.54,50.91,50.91,0,0,1,11.44,9.27A70.07,70.07,0,0,1,196,190.82a55.16,55.16,0,0,1,5,21.79,27.85,27.85,0,0,1-2.35,11.82A15.56,15.56,0,0,1,192.42,231.47Z"/><path class="cls-89" d="M192.42,231.47l37.34-21.7a15.63,15.63,0,0,0,6.23-7,27.88,27.88,0,0,0,2.35-11.82,55.17,55.17,0,0,0-5-21.8,70.29,70.29,0,0,0-12.9-19.71A50.81,50.81,0,0,0,209,140.14a34.59,34.59,0,0,0-5.38-2.54L166.3,159.3a34.17,34.17,0,0,1,5.38,2.54,50.91,50.91,0,0,1,11.44,9.27A70.07,70.07,0,0,1,196,190.82a55.16,55.16,0,0,1,5,21.79,27.85,27.85,0,0,1-2.35,11.82A15.56,15.56,0,0,1,192.42,231.47Z"/><path class="cls-6" d="M145.76,80l-37.35,21.71a16.27,16.27,0,0,1,5.16-1.93c5.42-1.08,12,.24,19,4.29a58.69,58.69,0,0,1,13.21,10.7,80.93,80.93,0,0,1,14.89,22.76,66.13,66.13,0,0,1,5.63,21.8l37.35-21.7A66.43,66.43,0,0,0,198,115.79,81.1,81.1,0,0,0,183.13,93a58.42,58.42,0,0,0-13.21-10.7c-7-4.06-13.58-5.38-19-4.3A16.81,16.81,0,0,0,145.76,80Z"/><path class="cls-90" d="M145.76,80l-37.35,21.71a16.27,16.27,0,0,1,5.16-1.93c5.42-1.08,12,.24,19,4.29a58.69,58.69,0,0,1,13.21,10.7,80.93,80.93,0,0,1,14.89,22.76,66.13,66.13,0,0,1,5.63,21.8l37.35-21.7A66.43,66.43,0,0,0,198,115.79,81.1,81.1,0,0,0,183.13,93a58.42,58.42,0,0,0-13.21-10.7c-7-4.06-13.58-5.38-19-4.3A16.81,16.81,0,0,0,145.76,80Z"/></g></g></g></svg>